{
.appVersion = "3134";
.formatVersion = 3;
DisplayStrings = (
"Aa Bb Cc Dd Ee Ff Gg Hh Ii Jj Kk Ll Mm Nn Oo Pp Qq Rr Ss Tt Uu Vv Ww Xx Yy Zz
0123456789

AMOEBA
SANS
DIGITAL"
);
customParameters = (
{
name = vendorID;
value = ITFO;
},
{
name = panose;
value = (
0,
0,
10,
0,
0,
0,
0,
0,
0,
0
);
},
{
name = unicodeRanges;
value = (
0,
1,
2,
15
);
},
{
name = codePageRanges;
value = (
"1252",
"1250",
"1254",
"1257",
"bit 29"
);
},
{
name = fsType;
value = (
);
},
{
name = glyphOrder;
value = (
.notdef,
.null,
CR,
space,
dvR,
dvKx,
dvGx,
dvJx,
uni20A8,
uni20B9,
uni200C,
uni200D,
uni25CC,
dvEyelash,
dvRashtrasign,
dvKx_RA,
dvGx_RA,
dvJx_RA,
dvKx_R,
dvGx_R,
dvJx_R,
dvKx_KxA,
dvKx_TA,
dvKx_PHA,
dvKx_PHxA,
dvKx_BA,
dvKx_MA,
dvJx_JxA,
dvJx_YA,
dvEyelash_YA,
dvEyelash_HA,
dvmII.aLong,
dvmII_Anusvara,
dvmII_Reph,
dvmII_Reph_Anusvara,
dvmII_Anusvara.aLong,
dvmII_Reph.aLong,
dvmII_Reph_Anusvara.aLong,
dvmE_Anusvara,
dvmE_Reph,
dvmE_Reph_Anusvara,
dvmAI_Anusvara,
dvmAI_Reph,
dvmAI_Reph_Anusvara,
dvmO_Anusvara,
dvmO_Reph,
dvmO_Reph_Anusvara,
dvmAU_Anusvara,
dvmAU_Reph,
dvmAU_Reph_Anusvara,
dvmEcandra_Anusvara,
dvmOcandra_Anusvara,
dvRA_mU,
dvRA_mUU,
dvmI.a01,
dvmI.a02,
dvmI.a03,
dvmI.a04,
dvmI.a05,
dvmI.a06,
dvmI.a07,
dvmI.a08,
dvmI.a09,
dvmI.a10,
dvmI.a11,
dvmI.a12,
dvmI.a13,
dvmI.a14,
dvmI.a15,
dvmI.a16,
dvmI.a17,
dvmI.a18,
dvmI.a19,
dvmI.a20,
dvmI.a21,
dvmI.a22,
dvmI.a23,
dvmI.a24,
exclam,
quotedbl,
numbersign,
dollar,
percent,
ampersand,
quotesingle,
parenleft,
parenright,
asterisk,
plus,
comma,
hyphen,
period,
slash,
zero,
one,
two,
three,
four,
five,
six,
seven,
eight,
nine,
colon,
semicolon,
less,
equal,
greater,
question,
at,
A,
B,
C,
D,
E,
F,
G,
H,
I,
J,
K,
L,
M,
N,
O,
P,
Q,
R,
S,
T,
U,
V,
W,
X,
Y,
Z,
bracketleft,
backslash,
bracketright,
asciicircum,
underscore,
grave,
a,
b,
c,
d,
e,
f,
g,
h,
i,
j,
k,
l,
m,
n,
o,
p,
q,
r,
s,
t,
u,
v,
w,
x,
y,
z,
braceleft,
bar,
braceright,
asciitilde,
uni00A0,
exclamdown,
cent,
sterling,
currency,
yen,
brokenbar,
section,
dieresis,

glyphs = (
{
glyphname = .notdef;
layers = (
{
layerId = m01;
shapes = (
{
closed = 1;
nodes = (
(0,0,l),
(500,0,l),
(500,700,l),
(0,700,l)
);
},
{
closed = 1;
nodes = (
(50,605,l),
(220,350,l),
(50,95,l)
);
},
{
closed = 1;
nodes = (
(250,305,l),
(420,50,l),
(80,50,l)
);
},
{
closed = 1;
nodes = (
(420,650,l),
(250,395,l),
(80,650,l)
);
},
{
closed = 1;
nodes = (
(450,605,l),
(450,95,l),
(280,350,l)
);
}
);
userData = {
assembly = "NPUSHB[ ]	/* 56 values pushed */
15 14 13 8 6 5 6 2 3 1 76 4 1 1 0 3 2 1 3 103 5 1 2 0 0 2 87 5 1 2 2 0 95 0 0 2 0 79 7 7 0 0 12 11 7 9 7 9 0 3 0 3 17 6 6 23 
CALL[ ]	/* CallFunction */";
};
width = 500;
}
);
note = ".notdef";
},
{
glyphname = dvR;
layers = (
{
layerId = m01;
shapes = (
{
closed = 1;
nodes = (
(299,-291,l),
(506,-291,l),
(367,-53,l),
(165,-53,l)
);
},
{
closed = 1;
nodes = (
(-11,571,l),
(272,571,l),
(272,545,ls),
(272,493,o),
(220,438,o),
(148,438,qs),
(50,438,l),
(50,209,ls),
(50,147,o),
(104,48,o),
(209,-9,o),
(283,-9,qs),
(386,-9,o),
(501,107,o),
(501,206,qs),
(500,232,l),
(305,232,l),
(305,199,ls),
(305,184,o),
(292,164,o),
(279,164,qs),
(252,164,o),
(252,199,qs),
(252,276,l),
(377,283,o),
(476,427,o),
(476,545,qs),
(476,571,l),
(539,571,l),
(539,740,l),
(-11,740,l)
);
}
);
userData = {
assembly = "MPPEM[ ]	/* MeasurePixelPerEm */
PUSHB[ ]	/* 1 value pushed */
19 
LT[ ]	/* LessThan */
IF[ ]	/* If */
NPUSHB[ ]	/* 57 values pushed */
0 7 2 3 2 7 3 128 0 3 5 2 3 5 126 0 5 4 4 5 112 11 1 9 8 1 2 7 9 2 103 0 4 0 6 1 4 6 106 10 1 1 0 0 1 87 10 1 1 1 0 95 0 0 1 0 79 
ELSE[ ]	/* Else */
NPUSHB[ ]	/* 58 values pushed */
0 7 2 3 2 7 3 128 0 3 5 2 3 5 126 0 5 4 2 5 4 126 11 1 9 8 1 2 7 9 2 103 0 4 0 6 1 4 6 106 10 1 1 0 0 1 87 10 1 1 1 0 95 0 0 1 0 79 
EIF[ ]	/* EndIf */
NPUSHB[ ]	/* 30 values pushed */
4 4 0 0 4 34 4 34 33 32 29 27 23 21 18 17 14 12 10 9 6 5 0 3 0 3 17 12 6 23 
CALL[ ]	/* CallFunction */";
};
width = 528;
}
);
note = dvR;
},
{
glyphname = dvKx;
layers = (
{
layerId = m01;
shapes = (
{
closed = 1;
nodes = (
(580,0,l),
(580,267,ls),
(580,302,o),
(611,340,o),
(639,340,qs),
(668,340,o),
(697,304,o),
(697,278,q),
(904,278,l),
(904,344,o),
(859,450,o),
(770,513,o),
(706,513,qs),
(624,513,o),
(580,461,q),
(580,571,l),
(904,571,l),
(904,740,l),
(-11,740,l),
(-11,571,l),
(384,571,l),
(384,461,l),
(340,513,o),
(252,513,qs),
(152,513,o),
(42,384,o),
(42,278,qs),
(42,210,o),
(90,104,o),
(181,43,o),
(244,43,qs),
(337,43,o),
(384,100,q),
(384,0,l)
);
},
{
closed = 1;
nodes = (
(265,-227,o),
(331,-162,o),
(331,-115,qs),
(331,-67,o),
(265,0,o),
(217,0,qs),
(170,0,o),
(104,-67,o),
(104,-115,qs),
(104,-162,o),
(170,-227,o),
(217,-227,qs)
);
},
{
closed = 1;
nodes = (
(285,214,o),
(249,249,o),
(249,277,qs),
(249,305,o),
(287,341,o),
(317,341,qs),
(347,341,o),
(383,307,o),
(384,279,qs),
(384,251,o),
(345,214,o),
(316,214,qs)
);
}
);
userData = {
assembly = "NPUSHB[ ]	/* 11 values pushed */
18 11 2 7 1 0 1 0 12 2 76 
MPPEM[ ]	/* MeasurePixelPerEm */
PUSHB[ ]	/* 1 value pushed */
21 
LT[ ]	/* LessThan */
IF[ ]	/* If */
NPUSHB[ ]	/* 60 values pushed */
0 6 7 12 7 6 114 0 8 0 9 0 8 9 128 0 3 4 1 2 1 3 2 103 5 1 1 11 1 7 6 1 7 105 14 1 12 0 0 8 12 0 105 0 9 10 10 9 89 0 9 9 10 97 13 1 10 9 10 81 
ELSE[ ]	/* Else */
NPUSHB[ ]	/* 61 values pushed */
0 6 7 12 7 6 12 128 0 8 0 9 0 8 9 128 0 3 4 1 2 1 3 2 103 5 1 1 11 1 7 6 1 7 105 14 1 12 0 0 8 12 0 105 0 9 10 10 9 89 0 9 9 10 97 13 1 10 9 10 81 
EIF[ ]	/* EndIf */
NPUSHB[ ]	/* 28 values pushed */
46 46 34 34 46 57 46 56 52 50 34 45 34 44 40 38 19 34 19 34 17 17 18 37 33 15 6 31 
CALL[ ]	/* CallFunction */";
};
width = 677;
}
);
note = dvKx;
},
{
glyphname = dvGx;
layers = (
{
layerId = m01;
shapes = (
{
closed = 1;
nodes = (
(-11,571,l),
(292,571,l),
(292,364,ls),
(292,339,o),
(279,308,o),
(260,308,qs),
(241,308,o),
(226,337,o),
(226,364,qs),
(226,396,l),
(29,396,l),
(28,385,o),
(28,363,qs),
(28,250,o),
(153,135,o),
(266,135,qs),
(381,135,o),
(496,265,o),
(496,373,qs),
(496,571,l),
(599,571,l),
(599,740,l),
(-11,740,l)
);
},
{
closed = 1;
nodes = (
(313,-135,o),
(379,-70,o),
(379,-23,qs),
(379,25,o),
(313,92,o),
(265,92,qs),
(218,92,o),
(152,25,o),
(152,-23,qs),
(152,-70,o),
(218,-135,o),
(265,-135,qs)
);
}
);
userData = {
assembly = "NPUSHB[ ]	/* 65 values pushed */
0 2 0 3 0 2 3 128 8 1 5 4 1 0 2 5 0 103 0 3 0 1 6 3 1 105 0 6 7 7 6 89 0 6 6 7 97 9 1 7 6 7 81 23 23 0 0 23 34 23 33 29 27 0 22 0 22 19 35 20 35 17 10 6 27 
CALL[ ]	/* CallFunction */";
};
width = 588;
}
);
note = dvGx;
},
{
glyphname = dvJx;
layers = (
{
layerId = m01;
shapes = (
{
closed = 1;
nodes = (
(363,80,o),
(472,138,o),
(532,241,o),
(535,308,q),
(712,308,l),
(712,481,l),
(336,481,l),
(336,325,ls),
(336,258,o),
(290,258,qs),
(242,258,o),
(242,325,qs),
(242,481,l),
(37,481,l),
(37,319,ls),
(37,210,o),
(167,80,o),
(290,80,qs)
);
},
{
closed = 1;
nodes = (
(-11,571,l),
(712,571,l),
(712,740,l),
(-11,740,l)
);
},
{
closed = 1;
nodes = (
(337,-189,o),
(403,-124,o),
(403,-77,qs),
(403,-29,o),
(337,38,o),
(289,38,qs),
(242,38,o),
(176,-29,o),
(176,-77,qs),
(176,-124,o),
(242,-189,o),
(289,-189,qs)
);
}
);
userData = {
assembly = "NPUSHB[ ]	/* 73 values pushed */
10 1 6 0 5 0 6 5 103 2 1 0 0 3 1 0 3 103 0 1 9 1 4 7 1 4 105 0 7 8 8 7 89 0 7 7 8 97 11 1 8 7 8 81 22 22 18 18 0 0 22 33 22 32 28 26 18 21 18 21 20 19 0 17 0 16 17 18 34 19 12 6 26 
CALL[ ]	/* CallFunction */";
};
width = 553;
}
);
note = dvJx;
},
{
glyphname = uni20A8;
layers = (
{
layerId = m01;
shapes = (
{
closed = 1;
nodes = (
(424,431,o),
(392,402,o),
(360,402,qs),
(272,402,l),
(272,522,l),
(360,522,ls),
(391,522,o),
(424,490,o),
(424,462,qs)
);
},
{
closed = 1;
nodes = (
(50,0,l),
(272,0,l),
(272,254,l),
(406,0,l),
(650,0,l),
(496,271,l),
(570,295,o),
(649,405,o),
(649,476,qs),
(649,542,o),
(588,647,o),
(466,708,o),
(380,708,qs),
(50,708,l)
);
},
{
closed = 1;
nodes = (
(674,331,o),
(745,260,o),
(840,230,o),
(909,219,qs),
(963,209,o),
(1008,194,o),
(1008,178,qs),
(1008,156,o),
(969,156,qs),
(902,156,o),
(897,195,q),
(680,195,l),
(696,97,o),
(848,-7,o),
(972,-7,qs),
(1046,-7,o),
(1153,40,o),
(1208,122,o),
(1208,173,qs),
(1208,233,o),
(1135,304,o),
(1037,334,o),
(967,346,qs),
(914,356,o),
(870,370,o),
(870,385,qs),
(870,407,o),
(914,407,qs),
(975,407,o),
(985,369,q),
(1202,369,l),
(1184,460,o),
(1040,571,o),
(917,571,qs),
(840,571,o),
(730,523,o),
(674,442,o),
(674,393,qs)
);
}
);
userData = {
assembly = "PUSHB[ ]	/* 7 values pushed */
19 16 2 9 6 1 76 
MPPEM[ ]	/* MeasurePixelPerEm */
PUSHB[ ]	/* 1 value pushed */
33 
LT[ ]	/* LessThan */
IF[ ]	/* If */
NPUSHB[ ]	/* 54 values pushed */
0 1 7 6 7 1 6 128 0 6 9 7 6 112 0 9 10 10 9 112 0 0 0 2 95 11 1 2 2 28 77 0 7 7 5 97 0 5 5 37 77 0 10 10 3 96 8 4 2 3 3 29 3 78 
ELSE[ ]	/* Else */
MPPEM[ ]	/* MeasurePixelPerEm */
PUSHB[ ]	/* 1 value pushed */
34 
LT[ ]	/* LessThan */
IF[ ]	/* If */
NPUSHB[ ]	/* 56 values pushed */
0 1 7 6 7 1 6 128 0 6 9 7 6 9 126 0 9 10 7 9 10 126 0 0 0 2 95 11 1 2 2 28 77 0 7 7 5 97 0 5 5 37 77 0 10 10 3 96 8 4 2 3 3 29 3 78 
ELSE[ ]	/* Else */
NPUSHB[ ]	/* 60 values pushed */
0 1 7 6 7 1 6 128 0 6 9 7 6 9 126 0 9 10 7 9 10 126 0 0 0 2 95 11 1 2 2 28 77 0 7 7 5 97 0 5 5 37 77 4 1 3 3 29 77 0 10 10 8 98 0 8 8 35 8 78 
EIF[ ]	/* EndIf */
EIF[ ]	/* EndIf */
NPUSHB[ ]	/* 27 values pushed */
10 9 52 50 49 48 46 44 33 31 30 29 27 25 21 20 18 17 9 22 10 22 33 33 12 8 24 
CALL[ ]	/* CallFunction */";
};
width = 1229;
}
);
note = uni20A8;
unicode = 8360;
},
{
glyphname = uni20B9;
layers = (
{
layerId = m01;
shapes = (
{
closed = 1;
nodes = (
(30,563,l),
(282,563,l),
(282,530,l),
(30,530,l),
(30,406,l),
(276,406,l),
(268,387,o),
(220,370,o),
(127,365,o),
(30,365,q),
(30,242,ls),
(30,111,o),
(159,-10,o),
(281,-10,qs),
(389,-10,o),
(503,110,o),
(509,211,q),
(304,211,l),
(304,180,o),
(290,155,o),
(271,155,qs),
(252,155,o),
(237,180,o),
(237,204,qs),
(237,223,l),
(344,223,o),
(468,325,o),
(484,406,q),
(547,406,l),
(547,530,l),
(489,530,l),
(489,563,l),
(547,563,l),
(547,708,l),
(30,708,l)
);
}
);
userData = {
assembly = "MPPEM[ ]	/* MeasurePixelPerEm */
PUSHB[ ]	/* 1 value pushed */
23 
LT[ ]	/* LessThan */
IF[ ]	/* If */
NPUSHB[ ]	/* 53 values pushed */
0 5 4 3 4 5 117 0 3 7 4 3 7 129 0 7 2 4 7 2 129 10 1 0 12 1 11 0 11 99 0 4 4 6 97 0 6 6 21 77 8 1 2 2 1 95 9 1 1 1 20 1 78 
ELSE[ ]	/* Else */
MPPEM[ ]	/* MeasurePixelPerEm */
PUSHB[ ]	/* 1 value pushed */
50 
LT[ ]	/* LessThan */
IF[ ]	/* If */
NPUSHB[ ]	/* 54 values pushed */
0 5 4 3 4 5 3 131 0 3 7 4 3 7 129 0 7 2 4 7 2 129 10 1 0 12 1 11 0 11 99 0 4 4 6 97 0 6 6 21 77 8 1 2 2 1 95 9 1 1 1 20 1 78 
ELSE[ ]	/* Else */
NPUSHB[ ]	/* 52 values pushed */
0 5 4 3 4 5 3 131 0 3 7 4 3 7 129 0 7 2 4 7 2 129 8 1 2 9 1 1 0 2 1 107 10 1 0 12 1 11 0 11 99 0 4 4 6 97 0 6 6 21 4 78 
EIF[ ]	/* EndIf */
EIF[ ]	/* EndIf */
NPUSHB[ ]	/* 22 values pushed */
0 0 0 34 0 34 33 32 31 30 18 35 34 18 35 18 17 17 17 13 7 31 
CALL[ ]	/* CallFunction */";
};
width = 577;
}
);
note = uni20B9;
unicode = 8377;
},
{
glyphname = uni200C;
layers = (
{
layerId = m01;
shapes = (
{
closed = 1;
nodes = (
(24,-230,l),
(24,811,l),
(-23,811,l),
(-23,-230,l)
);
}
);
userData = {
assembly = "NPUSHB[ ]	/* 21 values pushed */
0 0 1 1 0 87 0 0 0 1 95 0 1 0 1 79 17 16 2 8 24 
CALL[ ]	/* CallFunction */";
};
width = 0;
}
);
note = uni200C;
unicode = 8204;
},
{
glyphname = uni200D;
layers = (
{
layerId = m01;
shapes = (
{
closed = 1;
nodes = (
(128,593,l),
(32,688,l),
(128,784,l),
(96,816,l),
(0,721,l),
(-95,816,l),
(-128,783,l),
(-33,688,l),
(-126,595,l),
(-93,562,l),
(-24,635,l),
(-24,-230,l),
(23,-230,l),
(23,635,l),
(95,560,l)
);
}
);
userData = {
assembly = "NPUSHB[ ]	/* 24 values pushed */
14 13 12 11 10 9 8 7 6 5 4 3 0 13 0 74 0 0 0 118 17 1 8 23 
CALL[ ]	/* CallFunction */";
};
width = 0;
}
);
note = uni200D;
unicode = 8205;
},
{
glyphname = uni25CC;
layers = (
{
layerId = m01;
shapes = (
{
closed = 1;
nodes = (
(557,428,o),
(533,451,o),
(514,451,qs),
(495,451,o),
(471,428,o),
(471,409,qs),
(471,390,o),
(495,367,o),
(514,367,qs),
(533,367,o),
(557,390,o),
(557,409,qs)
);
},
{
closed = 1;
nodes = (
(181,142,o),
(157,165,o),
(138,165,qs),
(119,165,o),
(95,142,o),
(95,123,qs),
(95,104,o),
(119,81,o),
(138,81,qs),
(157,81,o),
(181,104,o),
(181,123,qs)
);
},
{
closed = 1;
nodes = (
(279,66,o),
(255,89,o),
(236,89,qs),
(217,89,o),
(193,66,o),
(193,47,qs),
(193,28,o),
(217,5,o),
(236,5,qs),
(255,5,o),
(279,28,o),
(279,47,qs)
);
},
{
closed = 1;
nodes = (
(136,255,o),
(112,278,o),
(93,278,qs),
(74,278,o),
(50,255,o),
(50,236,qs),
(50,217,o),
(74,194,o),
(93,194,qs),
(112,194,o),
(136,217,o),
(136,236,qs)
);
},
{
closed = 1;
nodes = (
(403,52,o),
(379,75,o),
(360,75,qs),
(341,75,o),
(317,52,o),
(317,33,qs),
(317,14,o),
(341,-9,o),
(360,-9,qs),
(379,-9,o),
(403,14,o),
(403,33,qs)
);
},
{
closed = 1;
nodes = (
(151,376,o),
(127,399,o),
(108,399,qs),
(89,399,o),
(65,376,o),
(65,357,qs),
(65,338,o),
(89,315,o),
(108,315,qs),
(127,315,o),
(151,338,o),
(151,357,qs)
);
},
{
closed = 1;
nodes = (
(518,98,o),
(494,121,o),
(475,121,qs),
(456,121,o),
(432,98,o),
(432,79,qs),
(432,60,o),
(456,37,o),
(475,37,qs),
(494,37,o),
(518,60,o),
(518,79,qs)
);
},
{
closed = 1;
nodes = (
(227,475,o),
(203,498,o),
(184,498,qs),
(165,498,o),
(141,475,o),
(141,456,qs),
(141,437,o),
(165,414,o),
(184,414,qs),
(203,414,o),
(227,437,o),
(227,456,qs)
);
},
{
closed = 1;
nodes = (
(591,194,o),
(567,217,o),
(548,217,qs),
(529,217,o),
(505,194,o),
(505,175,qs),
(505,156,o),
(529,133,o),
(548,133,qs),
(567,133,o),
(591,156,o),
(591,175,qs)
);
},
{
closed = 1;
nodes = (
(344,517,o),
(320,540,o),
(301,540,qs),
(282,540,o),
(258,517,o),
(258,498,qs),
(258,479,o),
(282,456,o),
(301,456,qs),
(320,456,o),
(344,479,o),
(344,498,qs)
);
},
{
closed = 1;
nodes = (
(601,314,o),
(577,337,o),
(558,337,qs),
(539,337,o),
(515,314,o),
(515,295,qs),
(515,276,o),
(539,253,o),
(558,253,qs),
(577,253,o),
(601,276,o),
(601,295,qs)
);
},
{
closed = 1;
nodes = (
(465,502,o),
(441,525,o),
(422,525,qs),
(403,525,o),
(379,502,o),
(379,483,qs),
(379,464,o),
(403,441,o),
(422,441,qs),
(441,441,o),
(465,464,o),
(465,483,qs)
);
}
);
userData = {
assembly = "NPUSHB[ ]	/* 146 values pushed */
0 19 0 18 1 19 18 105 0 23 0 22 14 23 22 105 0 15 0 14 11 15 14 105 0 1 0 0 21 1 0 105 0 11 0 10 7 11 10 105 0 21 0 20 17 21 20 105 0 7 0 6 3 7 6 105 0 17 0 16 13 17 16 105 0 3 0 2 9 3 2 105 0 9 12 8 9 89 0 13 0 12 4 13 12 105 0 5 0 4 8 5 4 105 0 9 9 8 97 0 8 9 8 81 141 139 135 133 129 127 123 121 117 115 111 109 105 103 99 97 93 91 87 85 81 79 75 73 69 67 63 61 57 55 36 36 36 36 36 36 36 36 33 24 6 31 
CALL[ ]	/* CallFunction */";
};
width = 651;
}
);
note = uni25CC;
unicode = 9676;
},
{
glyphname = dvEyelash;
layers = (
{
layerId = m01;
shapes = (
{
closed = 1;
nodes = (
(366,403,o),
(317,403,qs),
(277,403,o),
(227,444,o),
(223,488,q),
(29,488,l),
(34,369,o),
(179,258,o),
(288,258,qs),
(344,258,o),
(451,291,o),
(490,319,q),
(410,428,l)
);
},
{
closed = 1;
nodes = (
(-11,571,l),
(491,571,l),
(491,740,l),
(-11,740,l)
);
}
);
userData = {
assembly = "PUSHB[ ]	/* 6 values pushed */
12 1 2 1 1 76 
MPPEM[ ]	/* MeasurePixelPerEm */
PUSHB[ ]	/* 1 value pushed */
15 
LT[ ]	/* LessThan */
IF[ ]	/* If */
NPUSHB[ ]	/* 32 values pushed */
0 1 3 2 2 1 114 5 1 4 0 3 1 4 3 103 0 2 0 0 2 89 0 2 2 0 98 0 0 2 0 82 
ELSE[ ]	/* Else */
NPUSHB[ ]	/* 33 values pushed */
0 1 3 2 3 1 2 128 5 1 4 0 3 1 4 3 103 0 2 0 0 2 89 0 2 2 0 98 0 0 2 0 82 
EIF[ ]	/* EndIf */
NPUSHB[ ]	/* 13 values pushed */
13 13 13 16 13 16 19 34 18 34 6 6 26 
CALL[ ]	/* CallFunction */";
};
width = 391;
}
);
note = dvEyelash;
},
{
glyphname = dvRashtrasign;
layers = (
{
layerId = m01;
shapes = (
{
closed = 1;
nodes = (
(-626,-97,l),
(-422,-97,l),
(-358,1,l),
(-293,-97,l),
(-88,-97,l),
(-222,82,l),
(-493,82,l)
);
}
);
userData = {
assembly = "NPUSHB[ ]	/* 36 values pushed */
3 1 0 2 1 76 3 1 2 0 0 2 87 3 1 2 2 0 95 1 1 0 2 0 79 0 0 0 6 0 6 18 17 4 6 24 
CALL[ ]	/* CallFunction */";
};
width = 0;
}
);
note = dvRashtrasign;
},
{
glyphname = dvKx_RA;
layers = (
{
layerId = m01;
shapes = (
{
closed = 1;
nodes = (
(481,0,l),
(676,0,l),
(676,267,l),
(679,301,o),
(709,340,o),
(736,340,qs),
(765,340,o),
(794,304,o),
(794,278,qs),
(794,252,o),
(764,221,o),
(740,221,qs),
(732,221,o),
(724,223,q),
(724,65,l),
(760,56,o),
(796,56,qs),
(856,56,o),
(949,110,o),
(1001,213,o),
(1001,283,qs),
(1001,346,o),
(956,451,o),
(866,513,o),
(802,513,qs),
(720,513,o),
(676,461,q),
(676,571,l),
(1054,571,l),
(1054,740,l),
(-11,740,l),
(-11,571,l),
(481,571,l),
(481,461,l),
(437,513,o),
(349,513,qs),
(249,513,o),
(139,384,o),
(139,278,qs),
(139,210,o),
(200,105,o),
(254,80,q),
(150,-46,l),
(368,-46,l),
(481,111,l)
);
},
{
closed = 1;
nodes = (
(108,-25,o),
(162,29,o),
(162,67,qs),
(162,106,o),
(108,161,o),
(68,161,qs),
(29,161,o),
(-25,106,o),
(-25,67,qs),
(-25,29,o),
(29,-25,o),
(68,-25,qs)
);
},
{
closed = 1;
nodes = (
(382,214,o),
(346,249,o),
(346,277,qs),
(346,305,o),
(383,341,o),
(414,341,qs),
(444,341,o),
(480,307,o),
(481,279,qs),
(481,251,o),
(442,214,o),
(413,214,qs)
);
}
);
userData = {
assembly = "NPUSHB[ ]	/* 114 values pushed */
17 10 2 8 1 41 30 2 7 8 44 29 2 3 6 10 3 76 15 1 13 7 10 7 13 10 128 0 9 6 11 6 9 11 128 0 0 11 0 134 0 3 4 1 2 1 3 2 103 5 1 1 12 1 8 7 1 8 105 0 10 6 11 10 89 0 7 0 6 9 7 6 105 0 10 10 11 97 14 1 11 10 11 81 57 57 45 45 57 68 57 67 63 61 45 56 45 55 51 49 43 42 36 35 38 34 17 17 18 38 16 16 6 31 
CALL[ ]	/* CallFunction */";
};
width = 1043;
}
);
note = dvKx_RA;
},
{
glyphname = dvGx_RA;
layers = (
{
layerId = m01;
shapes = (
{
closed = 1;
nodes = (
(594,0,l),
(793,0,l),
(793,571,l),
(869,571,l),
(869,740,l),
(-11,740,l),
(-11,571,l),
(292,571,l),
(292,442,ls),
(292,418,o),
(279,387,o),
(260,387,qs),
(241,387,o),
(226,415,o),
(226,442,qs),
(226,474,l),
(29,474,l),
(28,463,o),
(28,441,qs),
(28,328,o),
(153,213,o),
(266,213,qs),
(381,213,o),
(496,344,o),
(496,451,qs),
(496,571,l),
(589,571,l),
(589,346,l),
(200,-20,l),
(434,-20,l),
(594,141,l)
);
},
{
closed = 1;
nodes = (
(141,-1,o),
(195,53,o),
(195,91,qs),
(195,130,o),
(141,185,o),
(101,185,qs),
(62,185,o),
(8,130,o),
(8,91,qs),
(8,53,o),
(62,-1,o),
(101,-1,qs)
);
}
);
userData = {
assembly = "NPUSHB[ ]	/* 79 values pushed */
2 1 2 4 30 1 8 9 2 76 0 3 1 4 1 3 4 128 0 0 8 0 134 0 6 7 5 2 1 3 6 1 103 0 4 0 2 9 4 2 105 0 9 8 8 9 89 0 9 9 8 97 11 10 2 8 9 8 81 31 31 31 42 31 41 37 35 17 17 17 19 35 20 35 18 16 12 6 31 
CALL[ ]	/* CallFunction */";
};
width = 858;
}
);
note = dvGx_RA;
},
{
glyphname = dvJx_RA;
layers = (
{
layerId = m01;
shapes = (
{
closed = 1;
nodes = (
(-11,571,l),
(612,571,l),
(612,488,l),
(336,488,l),
(336,394,ls),
(336,327,o),
(289,327,qs),
(242,327,o),
(242,394,qs),
(242,488,l),
(37,488,l),
(37,388,ls),
(37,279,o),
(167,149,o),
(290,149,qs),
(384,149,o),
(502,243,o),
(520,324,q),
(612,324,l),
(612,316,l),
(258,-58,l),
(480,-58,l),
(617,106,l),
(617,0,l),
(807,0,l),
(807,571,l),
(883,571,l),
(883,740,l),
(-11,740,l)
);
},
{
closed = 1;
nodes = (
(181,-56,o),
(235,-2,o),
(235,36,qs),
(235,75,o),
(181,130,o),
(141,130,qs),
(102,130,o),
(48,75,o),
(48,36,qs),
(48,-2,o),
(102,-56,o),
(141,-56,qs)
);
}
);
userData = {
assembly = "NPUSHB[ ]	/* 88 values pushed */
8 1 3 5 5 1 1 9 2 76 6 1 4 0 5 0 4 5 128 0 1 9 2 9 1 2 128 11 1 8 7 1 0 4 8 0 103 0 5 0 3 9 5 3 105 0 9 1 2 9 89 0 9 9 2 97 12 10 2 2 9 2 81 29 29 0 0 29 40 29 39 35 33 0 28 0 28 17 18 34 19 37 18 17 17 13 6 30 
CALL[ ]	/* CallFunction */";
};
width = 872;
}
);
note = dvJx_RA;
},
{
glyphname = dvKx_R;
layers = (
{
layerId = m01;
shapes = (
{
closed = 1;
nodes = (
(481,0,l),
(676,0,l),
(676,267,l),
(679,301,o),
(709,340,o),
(736,340,qs),
(765,340,o),
(794,304,o),
(794,278,q),
(1001,278,l),
(1001,344,o),
(956,450,o),
(866,513,o),
(802,513,qs),
(720,513,o),
(676,461,q),
(676,571,l),
(1001,571,l),
(1001,740,l),
(-11,740,l),
(-11,571,l),
(481,571,l),
(481,461,l),
(437,513,o),
(349,513,qs),
(249,513,o),
(139,384,o),
(139,278,qs),
(139,210,o),
(200,105,o),
(254,80,q),
(150,-46,l),
(368,-46,l),
(481,111,l)
);
},
{
closed = 1;
nodes = (
(108,-25,o),
(162,29,o),
(162,67,qs),
(162,106,o),
(108,161,o),
(68,161,qs),
(29,161,o),
(-25,106,o),
(-25,67,qs),
(-25,29,o),
(29,-25,o),
(68,-25,qs)
);
},
{
closed = 1;
nodes = (
(382,214,o),
(346,249,o),
(346,277,qs),
(346,305,o),
(383,341,o),
(414,341,qs),
(444,341,o),
(480,307,o),
(481,279,qs),
(481,251,o),
(442,214,o),
(413,214,qs)
);
}
);
userData = {
assembly = "NPUSHB[ ]	/* 16 values pushed */
17 10 2 7 1 30 1 12 6 33 2 2 8 9 3 76 
MPPEM[ ]	/* MeasurePixelPerEm */
PUSHB[ ]	/* 1 value pushed */
21 
LT[ ]	/* LessThan */
IF[ ]	/* If */
NPUSHB[ ]	/* 64 values pushed */
0 6 7 12 7 6 114 14 1 12 9 7 12 9 126 0 8 9 10 9 8 10 128 0 0 10 0 134 0 3 4 1 2 1 3 2 103 5 1 1 11 1 7 6 1 7 105 0 9 8 10 9 89 0 9 9 10 97 13 1 10 9 10 81 
ELSE[ ]	/* Else */
NPUSHB[ ]	/* 65 values pushed */
0 6 7 12 7 6 12 128 14 1 12 9 7 12 9 126 0 8 9 10 9 8 10 128 0 0 10 0 134 0 3 4 1 2 1 3 2 103 5 1 1 11 1 7 6 1 7 105 0 9 8 10 9 89 0 9 9 10 97 13 1 10 9 10 81 
EIF[ ]	/* EndIf */
NPUSHB[ ]	/* 28 values pushed */
46 46 34 34 46 57 46 56 52 50 34 45 34 44 40 38 19 34 19 34 17 17 18 38 16 15 6 31 
CALL[ ]	/* CallFunction */";
};
width = 774;
}
);
note = dvKx_R;
},
{
glyphname = dvGx_R;
layers = (
{
layerId = m01;
shapes = (
{
closed = 1;
nodes = (
(633,180,l),
(633,387,l),
(200,-20,l),
(434,-20,l)
);
},
{
closed = 1;
nodes = (
(-11,571,l),
(292,571,l),
(292,442,ls),
(292,418,o),
(279,387,o),
(260,387,qs),
(241,387,o),
(226,415,o),
(226,442,qs),
(226,474,l),
(29,474,l),
(28,463,o),
(28,441,qs),
(28,328,o),
(153,213,o),
(266,213,qs),
(381,213,o),
(496,344,o),
(496,451,qs),
(496,571,l),
(633,571,l),
(633,740,l),
(-11,740,l)
);
},
{
closed = 1;
nodes = (
(141,-1,o),
(195,53,o),
(195,91,qs),
(195,130,o),
(141,185,o),
(101,185,qs),
(62,185,o),
(8,130,o),
(8,91,qs),
(8,53,o),
(62,-1,o),
(101,-1,qs)
);
}
);
userData = {
assembly = "NPUSHB[ ]	/* 93 values pushed */
2 1 8 7 1 76 1 1 4 1 75 0 3 1 4 1 3 4 128 9 1 0 8 0 134 10 1 6 5 1 1 3 6 1 103 0 4 0 2 7 4 2 105 0 7 8 8 7 89 0 7 7 8 97 11 1 8 7 8 81 27 27 4 4 0 0 27 38 27 37 33 31 4 26 4 26 25 24 21 19 16 15 11 9 6 5 0 3 0 3 12 6 22 
CALL[ ]	/* CallFunction */";
};
width = 588;
}
);
note = dvGx_R;
},
{
glyphname = dvJx_R;
layers = (
{
layerId = m01;
shapes = (
{
closed = 1;
nodes = (
(-11,571,l),
(712,571,l),
(712,740,l),
(-11,740,l)
);
},
{
closed = 1;
nodes = (
(480,-58,l),
(712,219,l),
(712,488,l),
(336,488,l),
(336,394,ls),
(336,327,o),
(289,327,qs),
(242,327,o),
(242,394,qs),
(242,488,l),
(37,488,l),
(37,388,ls),
(37,279,o),
(167,149,o),
(290,149,qs),
(381,149,o),
(498,237,o),
(517,314,q),
(611,314,l),
(258,-58,l)
);
},
{
closed = 1;
nodes = (
(181,-56,o),
(235,-2,o),
(235,36,qs),
(235,75,o),
(181,130,o),
(141,130,qs),
(102,130,o),
(48,75,o),
(48,36,qs),
(48,-2,o),
(102,-56,o),
(141,-56,qs)
);
}
);
userData = {
assembly = "NPUSHB[ ]	/* 80 values pushed */
21 1 3 2 1 76 10 1 1 0 0 4 1 0 103 6 1 4 0 2 3 4 2 103 0 5 0 3 8 5 3 105 0 8 7 7 8 89 0 8 8 7 97 11 9 2 7 8 7 81 24 24 0 0 24 35 24 34 30 28 23 22 20 19 17 15 13 12 9 7 5 4 0 3 0 3 17 12 6 23 
CALL[ ]	/* CallFunction */";
};
width = 553;
}
);
note = dvJx_R;
},
{
glyphname = dvKx_KxA;
layers = (
{
layerId = m01;
shapes = (
{
closed = 1;
nodes = (
(1039,571,l),
(1039,461,l),
(995,513,o),
(907,513,qs),
(843,513,o),
(796,485,q),
(759,513,o),
(705,513,qs),
(624,513,o),
(580,461,q),
(580,571,l)
);
},
{
closed = 1;
nodes = (
(265,-227,o),
(331,-162,o),
(331,-115,qs),
(331,-67,o),
(265,0,o),
(217,0,qs),
(170,0,o),
(104,-67,o),
(104,-115,qs),
(104,-162,o),
(170,-227,o),
(217,-227,qs)
);
},
{
closed = 1;
nodes = (
(920,-227,o),
(986,-162,o),
(986,-115,qs),
(986,-67,o),
(920,0,o),
(872,0,qs),
(825,0,o),
(759,-67,o),
(759,-115,qs),
(759,-162,o),
(825,-227,o),
(872,-227,qs)
);
},
{
closed = 1;
nodes = (
(285,214,o),
(249,249,o),
(249,277,qs),
(249,305,o),
(287,341,o),
(317,341,qs),
(347,341,o),
(383,307,o),
(384,279,qs),
(384,251,o),
(345,214,o),
(316,214,qs)
);
},
{
closed = 1;
nodes = (
(940,214,o),
(904,249,o),
(904,277,qs),
(904,305,o),
(942,341,o),
(972,341,qs),
(1002,341,o),
(1038,307,o),
(1039,279,qs),
(1039,251,o),
(1000,214,o),
(971,214,qs)
);
},
{
closed = 1;
nodes = (
(1235,0,l),
(1235,267,ls),
(1235,302,o),
(1266,340,o),
(1294,340,qs),
(1323,340,o),
(1352,304,o),
(1352,278,qs),
(1352,252,o),
(1322,221,o),
(1298,221,qs),
(1289,221,o),
(1283,223,q),
(1283,65,l),
(1318,56,o),
(1354,56,qs),
(1414,56,o),
(1507,110,o),
(1559,213,o),
(1559,283,qs),
(1559,346,o),
(1514,451,o),
(1425,513,o),
(1361,513,qs),
(1279,513,o),
(1235,461,q),
(1235,571,l),
(1612,571,l),
(1612,740,l),
(-11,740,l),
(-11,571,l),
(384,571,l),
(384,461,l),
(340,513,o),
(252,513,qs),
(152,513,o),
(42,384,o),
(42,278,qs),
(42,210,o),
(90,104,o),
(181,43,o),
(244,43,qs),
(337,43,o),
(384,100,q),
(384,0,l),
(580,0,l),
(580,267,ls),
(580,302,o),
(611,340,o),
(639,340,qs),
(668,340,o),
(696,304,o),
(696,278,q),
(697,278,l),
(697,210,o),
(745,104,o),
(836,43,o),
(899,43,qs),
(992,43,o),
(1039,100,q),
(1039,0,l)
);
}
);
userData = {
assembly = "NPUSHB[ ]	/* 157 values pushed */
93 86 8 4 0 5 7 0 106 1 21 7 105 75 59 3 20 8 3 76 23 1 13 11 3 11 13 3 128 0 17 18 16 2 2 0 17 2 103 19 15 1 3 0 22 12 9 3 7 21 0 7 105 0 21 0 20 11 21 20 105 27 10 26 3 8 14 1 11 13 8 11 105 5 1 3 4 4 3 89 5 1 3 3 4 97 25 6 24 3 4 3 4 81 47 47 35 35 23 23 11 11 119 118 115 113 109 108 104 102 96 94 92 91 90 89 88 87 85 83 78 76 74 73 70 68 62 60 47 58 47 57 53 51 35 46 35 45 41 39 23 34 23 33 29 27 11 22 11 21 37 18 34 33 28 6 26 
CALL[ ]	/* CallFunction */";
};
width = 1601;
}
);
note = dvKx_KxA;
},
{
glyphname = dvKx_TA;
layers = (
{
layerId = m01;
shapes = (
{
closed = 1;
nodes = (
(1096,571,l),
(1096,488,l),
(975,488,ls),
(890,488,o),
(825,459,q),
(776,503,o),
(700,503,qs),
(622,503,o),
(580,458,q),
(580,571,l)
);
},
{
closed = 1;
nodes = (
(265,-227,o),
(331,-162,o),
(331,-115,qs),
(331,-67,o),
(265,0,o),
(217,0,qs),
(170,0,o),
(104,-67,o),
(104,-115,qs),
(104,-162,o),
(170,-227,o),
(217,-227,qs)
);
},
{
closed = 1;
nodes = (
(285,214,o),
(249,249,o),
(249,277,qs),
(249,305,o),
(287,341,o),
(317,341,qs),
(347,341,o),
(383,307,o),
(384,279,qs),
(384,251,o),
(345,214,o),
(316,214,qs)
);
},
{
closed = 1;
nodes = (
(580,267,ls),
(580,302,o),
(611,339,o),
(639,339,qs),
(662,339,o),
(691,300,o),
(692,267,q),
(691,259,o),
(691,243,qs),
(691,119,o),
(839,1,o),
(951,1,qs),
(1000,1,l),
(1000,160,l),
(984,160,ls),
(940,160,o),
(897,203,o),
(897,238,qs),
(897,272,o),
(946,314,o),
(985,314,qs),
(1096,314,l),
(1096,0,l),
(1300,0,l),
(1300,571,l),
(1377,571,l),
(1377,740,l),
(-11,740,l),
(-11,571,l),
(384,571,l),
(384,461,l),
(340,513,o),
(252,513,qs),
(152,513,o),
(42,384,o),
(42,278,qs),
(42,210,o),
(90,104,o),
(181,43,o),
(244,43,qs),
(337,43,o),
(384,100,q),
(384,0,l),
(580,0,l)
);
}
);
userData = {
assembly = "NPUSHB[ ]	/* 133 values pushed */
46 4 0 3 5 1 70 1 6 13 35 1 7 14 3 76 0 10 11 9 2 2 8 10 2 103 0 8 0 5 8 89 0 0 16 1 5 13 0 5 105 0 1 0 13 6 1 13 103 19 1 6 0 7 12 6 7 105 0 14 20 17 15 3 12 3 14 12 103 0 3 4 4 3 89 0 3 3 4 97 18 1 4 3 4 81 34 34 22 22 10 10 34 77 34 77 74 72 66 64 63 61 57 55 54 53 52 51 50 49 48 47 45 43 38 36 22 33 22 32 28 26 10 21 10 20 37 17 34 33 21 6 26 
CALL[ ]	/* CallFunction */";
};
width = 1366;
}
);
note = dvKx_TA;
},
{
glyphname = dvKx_PHA;
layers = (
{
layerId = m01;
shapes = (
{
closed = 1;
nodes = (
(681,571,l),
(681,502,l),
(618,496,o),
(580,457,q),
(580,571,l)
);
},
{
closed = 1;
nodes = (
(921,307,o),
(885,353,o),
(885,390,qs),
(885,571,l),
(1030,571,l),
(1030,390,ls),
(1030,354,o),
(992,307,o),
(956,307,qs)
);
},
{
closed = 1;
nodes = (
(580,267,ls),
(580,302,o),
(611,340,o),
(639,340,qs),
(660,340,o),
(686,320,o),
(691,304,qs),
(711,227,o),
(819,136,o),
(902,136,qs),
(982,136,o),
(1030,179,q),
(1030,0,l),
(1234,0,l),
(1234,245,ls),
(1234,291,o),
(1270,340,o),
(1303,340,qs),
(1332,340,o),
(1361,304,o),
(1361,278,qs),
(1361,253,o),
(1333,220,o),
(1307,220,qs),
(1296,220,o),
(1284,223,q),
(1284,68,l),
(1320,56,o),
(1363,56,qs),
(1423,56,o),
(1516,111,o),
(1568,216,o),
(1568,288,qs),
(1568,350,o),
(1522,452,o),
(1433,513,o),
(1370,513,qs),
(1283,513,o),
(1234,462,q),
(1234,571,l),
(1619,571,l),
(1619,740,l),
(-11,740,l),
(-11,571,l),
(384,571,l),
(384,461,l),
(340,513,o),
(252,513,qs),
(152,513,o),
(42,384,o),
(42,278,qs),
(42,210,o),
(90,104,o),
(181,43,o),
(244,43,qs),
(337,43,o),
(384,100,q),
(384,0,l),
(580,0,l)
);
},
{
closed = 1;
nodes = (
(265,-227,o),
(331,-162,o),
(331,-115,qs),
(331,-67,o),
(265,0,o),
(217,0,qs),
(170,0,o),
(104,-67,o),
(104,-115,qs),
(104,-162,o),
(170,-227,o),
(217,-227,qs)
);
},
{
closed = 1;
nodes = (
(285,214,o),
(249,249,o),
(249,277,qs),
(249,305,o),
(287,341,o),
(317,341,qs),
(347,341,o),
(383,307,o),
(384,279,qs),
(384,251,o),
(345,214,o),
(316,214,qs)
);
}
);
userData = {
assembly = "NPUSHB[ ]	/* 154 values pushed */
33 26 2 0 4 11 4 46 1 10 2 60 1 13 19 45 15 2 9 13 4 76 21 15 2 12 3 16 3 12 16 128 0 6 7 5 1 3 0 4 6 0 103 8 1 4 18 14 2 11 2 4 11 105 20 1 2 0 13 9 2 13 105 0 10 0 9 3 10 9 105 23 1 19 0 3 12 19 3 105 0 16 17 17 16 89 0 16 16 17 97 22 1 17 16 17 81 85 85 73 73 14 14 5 5 85 96 85 95 91 89 73 84 73 83 79 77 14 72 14 72 69 67 63 61 59 58 55 53 49 47 44 42 36 34 32 31 30 29 28 27 25 23 18 16 5 13 5 12 20 19 24 6 24 
CALL[ ]	/* CallFunction */";
};
width = 1608;
}
);
note = dvKx_PHA;
},
{
glyphname = dvKx_PHxA;
layers = (
{
layerId = m01;
shapes = (
{
closed = 1;
nodes = (
(682,571,l),
(682,502,l),
(616,496,o),
(580,457,q),
(580,571,l)
);
},
{
closed = 1;
nodes = (
(265,-227,o),
(331,-162,o),
(331,-115,qs),
(331,-67,o),
(265,0,o),
(217,0,qs),
(170,0,o),
(104,-67,o),
(104,-115,qs),
(104,-162,o),
(170,-227,o),
(217,-227,qs)
);
},
{
closed = 1;
nodes = (
(879,-127,o),
(945,-62,o),
(945,-15,qs),
(945,33,o),
(879,100,o),
(831,100,qs),
(784,100,o),
(718,33,o),
(718,-15,qs),
(718,-62,o),
(784,-127,o),
(831,-127,qs)
);
},
{
closed = 1;
nodes = (
(285,214,o),
(249,249,o),
(249,277,qs),
(249,305,o),
(287,341,o),
(317,341,qs),
(347,341,o),
(383,307,o),
(384,279,qs),
(384,251,o),
(345,214,o),
(316,214,qs)
);
},
{
closed = 1;
nodes = (
(922,307,o),
(886,353,o),
(886,390,qs),
(886,571,l),
(1031,571,l),
(1031,390,ls),
(1031,354,o),
(993,307,o),
(957,307,qs)
);
},
{
closed = 1;
nodes = (
(580,267,ls),
(580,302,o),
(611,340,o),
(639,340,qs),
(660,340,o),
(687,319,o),
(692,302,q),
(693,302,l),
(712,226,o),
(821,136,o),
(903,136,qs),
(983,136,o),
(1031,179,q),
(1031,0,l),
(1235,0,l),
(1235,245,ls),
(1235,291,o),
(1271,340,o),
(1304,340,qs),
(1333,340,o),
(1362,304,o),
(1362,278,qs),
(1362,253,o),
(1334,220,o),
(1308,220,qs),
(1297,220,o),
(1285,223,q),
(1285,68,l),
(1321,56,o),
(1364,56,qs),
(1424,56,o),
(1517,111,o),
(1569,216,o),
(1569,288,qs),
(1569,350,o),
(1523,452,o),
(1434,513,o),
(1371,513,qs),
(1284,513,o),
(1235,462,q),
(1235,571,l),
(1620,571,l),
(1620,740,l),
(-11,740,l),
(-11,571,l),
(384,571,l),
(384,461,l),
(340,513,o),
(252,513,qs),
(152,513,o),
(42,384,o),
(42,278,qs),
(42,210,o),
(90,104,o),
(181,43,o),
(244,43,qs),
(337,43,o),
(384,100,q),
(384,0,l),
(580,0,l)
);
}
);
userData = {
assembly = "NPUSHB[ ]	/* 175 values pushed */
69 62 2 0 4 5 10 82 1 16 8 96 1 19 6 81 1 15 3 4 76 51 1 3 1 75 26 21 2 18 9 1 9 18 1 128 0 12 13 11 7 3 0 10 12 0 103 14 1 10 20 17 2 5 8 10 5 105 25 1 8 0 19 3 8 19 105 0 16 0 15 9 16 15 105 24 1 6 0 9 18 6 9 105 0 1 4 2 1 89 0 3 23 1 4 2 3 4 105 0 1 1 2 97 22 1 2 1 2 81 50 50 41 41 29 29 17 17 5 5 50 109 50 109 106 104 99 97 95 94 91 89 85 83 80 78 72 70 68 67 66 65 64 63 61 59 54 52 41 49 41 48 45 44 29 40 29 39 35 33 17 28 17 27 23 21 5 16 5 15 37 19 27 6 24 
CALL[ ]	/* CallFunction */";
};
width = 1609;
}
);
note = dvKx_PHxA;
},
{
glyphname = dvKx_BA;
layers = (
{
layerId = m01;
shapes = (
{
closed = 1;
nodes = (
(1080,571,l),
(1080,489,l),
(1023,524,o),
(940,524,qs),
(861,524,o),
(797,484,q),
(758,513,o),
(705,513,qs),
(624,513,o),
(580,461,q),
(580,571,l)
);
},
{
closed = 1;
nodes = (
(1276,0,l),
(1276,571,l),
(1352,571,l),
(1352,740,l),
(-11,740,l),
(-11,571,l),
(384,571,l),
(384,461,l),
(340,513,o),
(252,513,qs),
(152,513,o),
(42,384,o),
(42,278,qs),
(42,210,o),
(90,104,o),
(181,43,o),
(244,43,qs),
(337,43,o),
(384,100,q),
(384,0,l),
(580,0,l),
(580,267,ls),
(580,302,o),
(611,340,o),
(639,340,qs),
(668,340,o),
(696,304,o),
(696,278,qs),
(698,209,o),
(762,100,o),
(871,39,o),
(940,39,qs),
(1033,39,o),
(1080,85,q),
(1080,0,l)
);
},
{
closed = 1;
nodes = (
(265,-227,o),
(331,-162,o),
(331,-115,qs),
(331,-67,o),
(265,0,o),
(217,0,qs),
(170,0,o),
(104,-67,o),
(104,-115,qs),
(104,-162,o),
(170,-227,o),
(217,-227,qs)
);
},
{
closed = 1;
nodes = (
(285,214,o),
(249,249,o),
(249,277,qs),
(249,305,o),
(287,341,o),
(317,341,qs),
(347,341,o),
(383,307,o),
(384,279,qs),
(384,251,o),
(345,214,o),
(316,214,qs)
);
},
{
closed = 1;
nodes = (
(1031,395,o),
(1092,335,o),
(1092,288,qs),
(1092,279,o),
(1090,265,q),
(923,378,l),
(951,395,o),
(984,395,qs)
);
},
{
closed = 1;
nodes = (
(938,182,o),
(873,241,o),
(873,288,qs),
(873,300,o),
(876,312,q),
(1044,198,l),
(1017,182,o),
(984,182,qs)
);
}
);
userData = {
assembly = "MPPEM[ ]	/* MeasurePixelPerEm */
PUSHB[ ]	/* 1 value pushed */
10 
LT[ ]	/* LessThan */
IF[ ]	/* If */
NPUSHB[ ]	/* 27 values pushed */
37 8 4 0 4 16 0 71 1 4 16 80 72 2 15 4 79 1 17 15 26 11 2 6 17 5 76 
ELSE[ ]	/* Else */
MPPEM[ ]	/* MeasurePixelPerEm */
PUSHB[ ]	/* 1 value pushed */
11 
LT[ ]	/* LessThan */
IF[ ]	/* If */
NPUSHB[ ]	/* 27 values pushed */
37 8 4 0 4 16 0 71 1 4 16 80 72 2 15 4 79 1 17 15 26 11 2 3 17 5 76 
ELSE[ ]	/* Else */
NPUSHB[ ]	/* 27 values pushed */
37 8 4 0 4 16 0 71 1 4 16 80 72 2 15 4 79 1 17 15 26 11 2 6 17 5 76 
EIF[ ]	/* EndIf */
EIF[ ]	/* EndIf */
MPPEM[ ]	/* MeasurePixelPerEm */
PUSHB[ ]	/* 1 value pushed */
10 
LT[ ]	/* LessThan */
IF[ ]	/* If */
NPUSHB[ ]	/* 73 values pushed */
11 1 5 3 12 3 5 12 128 0 9 10 8 2 2 1 9 2 103 0 1 20 1 16 4 1 16 105 7 1 0 14 1 4 15 0 4 105 19 1 15 0 6 3 15 6 105 21 1 17 0 3 5 17 3 105 0 12 13 13 12 89 0 12 12 13 97 18 1 13 12 13 81 
ELSE[ ]	/* Else */
MPPEM[ ]	/* MeasurePixelPerEm */
PUSHB[ ]	/* 1 value pushed */
11 
LT[ ]	/* LessThan */
IF[ ]	/* If */
NPUSHB[ ]	/* 72 values pushed */
11 1 5 3 12 3 5 12 128 0 9 10 8 2 2 1 9 2 103 0 1 20 1 16 4 1 16 105 7 1 0 14 1 4 15 0 4 105 19 1 15 17 3 15 89 21 1 17 6 1 3 5 17 3 105 0 12 13 13 12 89 0 12 12 13 97 18 1 13 12 13 81 
ELSE[ ]	/* Else */
NPUSHB[ ]	/* 73 values pushed */
11 1 5 3 12 3 5 12 128 0 9 10 8 2 2 1 9 2 103 0 1 20 1 16 4 1 16 105 7 1 0 14 1 4 15 0 4 105 19 1 15 0 6 3 15 6 105 21 1 17 0 3 5 17 3 105 0 12 13 13 12 89 0 12 12 13 97 18 1 13 12 13 81 
EIF[ ]	/* EndIf */
EIF[ ]	/* EndIf */
NPUSHB[ ]	/* 46 values pushed */
78 78 70 70 58 58 46 46 78 85 78 84 70 77 70 76 58 69 58 68 64 62 46 57 46 56 52 50 45 44 43 42 41 40 18 37 34 19 37 34 18 34 33 22 6 31 
CALL[ ]	/* CallFunction */";
};
width = 1341;
}
);
note = dvKx_BA;
},
{
glyphname = dvKx_MA;
layers = (
{
layerId = m01;
shapes = (
{
closed = 1;
nodes = (
(623,503,o),
(580,455,q),
(580,571,l),
(984,571,l),
(984,471,l),
(940,471,ls),
(881,471,o),
(831,453,q),
(786,503,o),
(705,503,qs)
);
},
{
closed = 1;
nodes = (
(265,-227,o),
(331,-162,o),
(331,-115,qs),
(331,-67,o),
(265,0,o),
(217,0,qs),
(170,0,o),
(104,-67,o),
(104,-115,qs),
(104,-162,o),
(170,-227,o),
(217,-227,qs)
);
},
{
closed = 1;
nodes = (
(285,214,o),
(249,249,o),
(249,277,qs),
(249,305,o),
(287,341,o),
(317,341,qs),
(347,341,o),
(383,307,o),
(384,279,qs),
(384,251,o),
(345,214,o),
(316,214,qs)
);
},
{
closed = 1;
nodes = (
(911,208,o),
(884,232,o),
(884,256,qs),
(884,280,o),
(918,305,o),
(946,305,qs),
(984,305,l),
(984,266,ls),
(984,240,o),
(958,208,o),
(932,208,qs)
);
},
{
closed = 1;
nodes = (
(1268,471,l),
(1174,471,l),
(1174,571,l),
(1268,571,l)
);
},
{
closed = 1;
nodes = (
(580,267,ls),
(580,302,o),
(611,340,o),
(639,340,qs),
(667,340,o),
(695,305,o),
(696,279,q),
(695,271,o),
(695,255,qs),
(695,189,o),
(755,90,o),
(864,36,o),
(936,36,qs),
(1052,36,o),
(1174,165,o),
(1174,277,qs),
(1174,305,l),
(1268,305,l),
(1268,0,l),
(1473,0,l),
(1473,571,l),
(1550,571,l),
(1550,740,l),
(-11,740,l),
(-11,571,l),
(384,571,l),
(384,461,l),
(340,513,o),
(252,513,qs),
(152,513,o),
(42,384,o),
(42,278,qs),
(42,210,o),
(90,104,o),
(181,43,o),
(244,43,qs),
(337,43,o),
(384,100,q),
(384,0,l),
(580,0,l)
);
}
);
userData = {
assembly = "NPUSHB[ ]	/* 166 values pushed */
61 7 1 3 5 0 81 1 6 7 50 1 11 8 3 76 26 20 2 16 18 3 18 16 3 128 0 14 15 13 25 10 4 1 12 14 1 103 0 12 2 5 12 89 21 1 2 19 1 5 7 2 5 105 9 1 0 17 1 7 6 0 7 105 23 1 6 0 11 18 6 11 105 24 1 8 0 18 16 8 18 105 0 3 4 4 3 89 0 3 3 4 97 22 1 4 3 4 81 49 49 45 45 34 34 22 22 10 10 0 0 49 88 49 88 85 83 76 74 71 70 69 68 67 66 65 64 63 62 60 58 53 51 45 48 45 48 47 46 34 44 34 43 39 37 22 33 22 32 28 26 10 21 10 20 16 14 0 9 0 8 17 34 27 6 24 
CALL[ ]	/* CallFunction */";
};
width = 1525;
}
);
note = dvKx_MA;
},
{
glyphname = dvJx_JxA;
layers = (
{
layerId = m01;
shapes = (
{
closed = 1;
nodes = (
(337,-189,o),
(403,-124,o),
(403,-77,qs),
(403,-29,o),
(337,38,o),
(289,38,qs),
(242,38,o),
(176,-29,o),
(176,-77,qs),
(176,-124,o),
(242,-189,o),
(289,-189,qs)
);
},
{
closed = 1;
nodes = (
(901,-189,o),
(967,-124,o),
(967,-77,qs),
(967,-29,o),
(901,38,o),
(853,38,qs),
(806,38,o),
(740,-29,o),
(740,-77,qs),
(740,-124,o),
(806,-189,o),
(853,-189,qs)
);
},
{
closed = 1;
nodes = (
(1371,0,l),
(1371,571,l),
(1447,571,l),
(1447,740,l),
(-11,740,l),
(-11,571,l),
(1167,571,l),
(1167,481,l),
(900,481,l),
(900,325,ls),
(900,258,o),
(854,258,qs),
(806,258,o),
(806,325,qs),
(806,481,l),
(336,481,l),
(336,325,ls),
(336,258,o),
(290,258,qs),
(242,258,o),
(242,325,qs),
(242,481,l),
(37,481,l),
(37,319,ls),
(37,210,o),
(167,80,o),
(290,80,qs),
(363,80,o),
(472,138,o),
(532,241,o),
(535,308,q),
(601,308,l),
(605,204,o),
(734,80,o),
(854,80,qs),
(927,80,o),
(1036,138,o),
(1096,241,o),
(1099,308,q),
(1167,308,l),
(1167,0,l)
);
}
);
userData = {
assembly = "NPUSHB[ ]	/* 103 values pushed */
0 16 0 1 0 16 1 128 0 14 15 1 13 8 14 13 103 12 10 2 8 6 1 4 9 8 4 103 11 1 9 7 1 5 0 9 5 105 2 1 0 16 1 0 89 2 1 0 0 1 97 18 3 17 3 1 0 1 81 12 12 0 0 64 63 62 61 60 59 58 57 56 55 53 51 49 48 46 44 42 41 38 36 33 32 30 28 25 24 12 23 12 22 18 16 0 11 0 10 36 19 6 23 
CALL[ ]	/* CallFunction */";
};
width = 1436;
}
);
note = dvJx_JxA;
},
{
glyphname = dvJx_YA;
layers = (
{
layerId = m01;
shapes = (
{
closed = 1;
nodes = (
(1260,0,l),
(1260,571,l),
(1336,571,l),
(1336,740,l),
(-11,740,l),
(-11,571,l),
(743,571,l),
(743,540,ls),
(743,493,o),
(692,441,o),
(615,441,qs),
(336,441,l),
(336,325,ls),
(336,258,o),
(290,258,qs),
(242,258,o),
(242,325,qs),
(242,441,l),
(37,441,l),
(37,319,ls),
(37,210,o),
(167,80,o),
(290,80,qs),
(389,80,o),
(517,184,o),
(531,272,q),
(589,272,o),
(612,273,q),
(634,174,o),
(771,63,o),
(877,63,qs),
(989,63,o),
(1055,121,q),
(1055,0,l)
);
},
{
closed = 1;
nodes = (
(337,-189,o),
(403,-124,o),
(403,-77,qs),
(403,-29,o),
(337,38,o),
(289,38,qs),
(242,38,o),
(176,-29,o),
(176,-77,qs),
(176,-124,o),
(242,-189,o),
(289,-189,qs)
);
},
{
closed = 1;
nodes = (
(872,232,o),
(812,277,o),
(806,311,q),
(875,330,o),
(945,434,o),
(945,502,qs),
(945,571,l),
(1055,571,l),
(1055,375,ls),
(1055,312,o),
(987,232,o),
(922,232,qs)
);
}
);
userData = {
assembly = "NPUSHB[ ]	/* 101 values pushed */
54 1 1 3 0 1 2 13 2 76 0 9 10 11 10 9 11 128 0 7 12 8 2 6 3 7 6 103 5 1 3 0 1 4 3 1 103 0 4 0 2 0 4 2 105 15 1 13 0 0 10 13 0 105 0 10 9 11 10 89 0 10 10 11 97 14 1 11 10 11 81 46 46 34 34 46 57 46 56 50 49 34 45 34 44 40 38 33 32 17 17 19 34 34 19 34 34 33 16 6 31 
CALL[ ]	/* CallFunction */";
};
width = 1325;
}
);
note = dvJx_YA;
},
{
glyphname = dvEyelash_YA;
layers = (
{
layerId = m01;
shapes = (
{
closed = 1;
nodes = (
(580,232,o),
(519,279,o),
(515,314,q),
(590,328,o),
(653,429,o),
(653,502,qs),
(653,571,l),
(764,571,l),
(764,375,ls),
(764,312,o),
(696,232,o),
(631,232,qs)
);
},
{
closed = 1;
nodes = (
(968,0,l),
(968,571,l),
(1045,571,l),
(1045,740,l),
(-11,740,l),
(-11,571,l),
(452,571,l),
(452,540,ls),
(452,484,o),
(409,419,o),
(344,415,qs),
(320,413,o),
(269,430,o),
(235,469,o),
(235,498,q),
(42,498,l),
(47,377,o),
(203,261,o),
(320,259,q),
(342,167,o),
(480,63,o),
(586,63,qs),
(698,63,o),
(764,121,q),
(764,0,l)
);
}
);
userData = {
assembly = "NPUSHB[ ]	/* 85 values pushed */
8 1 3 5 12 1 2 1 2 76 0 5 4 3 4 5 3 128 0 9 2 9 134 0 7 8 6 2 0 4 7 0 103 0 4 0 3 1 4 3 105 10 1 1 2 2 1 89 10 1 1 1 2 97 0 2 1 2 81 0 0 36 35 34 33 32 31 30 29 26 25 21 20 18 17 15 13 0 11 0 10 19 11 6 23 
CALL[ ]	/* CallFunction */";
};
width = 1034;
}
);
note = dvEyelash_YA;
},
{
glyphname = dvEyelash_HA;
layers = (
{
layerId = m01;
shapes = (
{
closed = 1;
nodes = (
(616,70,o),
(587,50,o),
(568,50,qs),
(546,50,o),
(512,84,o),
(512,118,qs),
(512,150,o),
(546,184,o),
(568,184,qs),
(589,184,o),
(617,162,o),
(620,144,q),
(815,144,l),
(806,237,o),
(685,344,o),
(573,344,qs),
(554,344,o),
(544,343,q),
(538,351,o),
(538,360,qs),
(538,374,o),
(557,388,o),
(572,388,qs),
(739,388,l),
(739,571,l),
(859,571,l),
(859,740,l),
(-11,740,l),
(-11,571,l),
(545,571,l),
(545,531,l),
(497,531,ls),
(429,531,o),
(347,473,o),
(338,425,q),
(328,422,o),
(311,422,qs),
(277,422,o),
(235,461,o),
(235,492,q),
(42,492,l),
(44,422,o),
(110,318,o),
(215,263,o),
(275,263,qs),
(347,263,o),
(390,288,q),
(353,260,o),
(313,175,o),
(313,121,qs),
(313,48,o),
(377,-60,o),
(493,-117,o),
(568,-117,qs),
(673,-117,o),
(809,-9,o),
(815,86,q),
(620,86,l)
);
}
);
userData = {
assembly = "PUSHB[ ]	/* 7 values pushed */
39 10 2 1 9 1 76 
MPPEM[ ]	/* MeasurePixelPerEm */
PUSHB[ ]	/* 1 value pushed */
18 
LT[ ]	/* LessThan */
IF[ ]	/* If */
NPUSHB[ ]	/* 77 values pushed */
0 4 5 2 5 4 2 128 0 2 3 3 2 112 0 8 3 9 3 8 9 128 0 10 11 13 11 10 114 14 1 13 12 12 13 112 0 6 7 1 5 4 6 5 103 0 3 0 1 11 3 1 106 0 9 0 11 10 9 11 105 0 12 0 0 12 89 0 12 12 0 98 0 0 12 0 82 
ELSE[ ]	/* Else */
MPPEM[ ]	/* MeasurePixelPerEm */
PUSHB[ ]	/* 1 value pushed */
32 
LT[ ]	/* LessThan */
IF[ ]	/* If */
NPUSHB[ ]	/* 78 values pushed */
0 4 5 2 5 4 2 128 0 2 3 5 2 3 126 0 8 3 9 3 8 9 128 0 10 11 13 11 10 114 14 1 13 12 12 13 112 0 6 7 1 5 4 6 5 103 0 3 0 1 11 3 1 106 0 9 0 11 10 9 11 105 0 12 0 0 12 89 0 12 12 0 98 0 0 12 0 82 
ELSE[ ]	/* Else */
MPPEM[ ]	/* MeasurePixelPerEm */
PUSHB[ ]	/* 1 value pushed */
35 
LT[ ]	/* LessThan */
IF[ ]	/* If */
NPUSHB[ ]	/* 79 values pushed */
0 4 5 2 5 4 2 128 0 2 3 5 2 3 126 0 8 3 9 3 8 9 128 0 10 11 13 11 10 13 128 14 1 13 12 12 13 112 0 6 7 1 5 4 6 5 103 0 3 0 1 11 3 1 106 0 9 0 11 10 9 11 105 0 12 0 0 12 89 0 12 12 0 98 0 0 12 0 82 
ELSE[ ]	/* Else */
NPUSHB[ ]	/* 80 values pushed */
0 4 5 2 5 4 2 128 0 2 3 5 2 3 126 0 8 3 9 3 8 9 128 0 10 11 13 11 10 13 128 14 1 13 12 11 13 12 126 0 6 7 1 5 4 6 5 103 0 3 0 1 11 3 1 106 0 9 0 11 10 9 11 105 0 12 0 0 12 89 0 12 12 0 98 0 0 12 0 82 
EIF[ ]	/* EndIf */
EIF[ ]	/* EndIf */
EIF[ ]	/* EndIf */
NPUSHB[ ]	/* 26 values pushed */
0 0 0 57 0 57 55 53 49 47 45 44 42 40 33 17 17 17 35 34 19 39 34 15 6 31 
CALL[ ]	/* CallFunction */";
};
width = 849;
}
);
note = dvEyelash_HA;
},
{
glyphname = dvmII.aLong;
layers = (
{
layerId = m01;
shapes = (
{
closed = 1;
nodes = (
(-366,696,l),
(-366,748,ls),
(-366,806,o),
(-279,883,o),
(-149,883,qs),
(-16,883,o),
(72,806,o),
(72,748,qs),
(72,740,l),
(-11,740,l),
(-11,571,l),
(66,571,l),
(66,0,l),
(270,0,l),
(270,571,l),
(346,571,l),
(346,740,l),
(270,740,l),
(270,763,ls),
(270,897,o),
(71,1054,o),
(-149,1054,qs),
(-362,1054,o),
(-562,899,o),
(-562,763,qs),
(-562,696,l)
);
}
);
userData = {
assembly = "NPUSHB[ ]	/* 51 values pushed */
0 7 1 2 1 7 2 128 0 3 2 3 134 0 0 0 6 1 0 6 105 5 1 1 7 2 1 87 5 1 1 1 2 95 4 1 2 1 2 79 19 35 17 17 17 17 19 34 8 6 30 
CALL[ ]	/* CallFunction */";
};
width = 335;
}
);
note = dvmII.aLong;
},
{
glyphname = dvmII_Anusvara;
layers = (
{
layerId = m01;
shapes = (
{
closed = 1;
nodes = (
(-72,696,l),
(-72,775,ls),
(-72,819,o),
(-44,882,o),
(2,882,qs),
(45,882,o),
(72,819,o),
(72,775,qs),
(72,740,l),
(-11,740,l),
(-11,571,l),
(66,571,l),
(66,0,l),
(270,0,l),
(270,571,l),
(346,571,l),
(346,740,l),
(270,740,l),
(270,765,ls),
(270,1053,o),
(2,1053,qs),
(-141,1053,o),
(-270,900,o),
(-270,765,qs),
(-270,696,l)
);
},
{
closed = 1;
nodes = (
(463,782,o),
(530,848,o),
(530,895,qs),
(530,943,o),
(463,1009,o),
(415,1009,qs),
(368,1009,o),
(302,943,o),
(302,895,qs),
(302,848,o),
(368,782,o),
(415,782,qs)
);
}
);
userData = {
assembly = "NPUSHB[ ]	/* 67 values pushed */
0 7 1 2 1 7 2 128 0 3 2 3 134 0 0 0 6 9 0 6 105 0 8 10 1 9 1 8 9 105 5 1 1 7 2 1 87 5 1 1 1 2 95 4 1 2 1 2 79 25 25 25 36 25 35 37 19 35 17 17 17 17 18 34 11 6 31 
CALL[ ]	/* CallFunction */";
};
width = 335;
}
);
note = dvmII_Anusvara;
},
{
glyphname = dvmII_Reph;
layers = (
{
layerId = m01;
shapes = (
{
closed = 1;
nodes = (
(-72,696,l),
(-72,775,ls),
(-72,819,o),
(-44,882,o),
(2,882,qs),
(45,882,o),
(72,819,o),
(72,775,qs),
(72,740,l),
(-11,740,l),
(-11,571,l),
(66,571,l),
(66,0,l),
(270,0,l),
(270,571,l),
(346,571,l),
(346,740,l),
(270,740,l),
(270,822,ls),
(270,845,o),
(286,877,o),
(312,877,qs),
(335,877,o),
(354,845,o),
(352,812,q),
(533,812,l),
(541,921,o),
(447,1038,o),
(364,1038,qs),
(260,1038,o),
(218,964,q),
(152,1053,o),
(2,1053,qs),
(-141,1053,o),
(-270,900,o),
(-270,765,qs),
(-270,696,l)
);
}
);
userData = {
assembly = "PUSHB[ ]	/* 6 values pushed */
5 1 9 1 1 76 
MPPEM[ ]	/* MeasurePixelPerEm */
PUSHB[ ]	/* 1 value pushed */
20 
LT[ ]	/* LessThan */
IF[ ]	/* If */
NPUSHB[ ]	/* 55 values pushed */
0 2 3 4 3 2 114 0 10 4 5 4 10 5 128 0 6 5 6 134 0 0 0 9 3 0 9 105 0 1 0 3 2 1 3 105 8 1 4 10 5 4 87 8 1 4 4 5 95 7 1 5 4 5 79 
ELSE[ ]	/* Else */
NPUSHB[ ]	/* 56 values pushed */
0 2 3 4 3 2 4 128 0 10 4 5 4 10 5 128 0 6 5 6 134 0 0 0 9 3 0 9 105 0 1 0 3 2 1 3 105 8 1 4 10 5 4 87 8 1 4 4 5 95 7 1 5 4 5 79 
EIF[ ]	/* EndIf */
NPUSHB[ ]	/* 16 values pushed */
36 35 32 30 17 17 17 17 19 34 18 34 34 11 6 31 
CALL[ ]	/* CallFunction */";
};
width = 335;
}
);
note = dvmII_Reph;
},
{
glyphname = dvmII_Reph_Anusvara;
layers = (
{
layerId = m01;
shapes = (
{
closed = 1;
nodes = (
(270,740,l),
(270,812,ls),
(270,852,o),
(313,901,o),
(350,901,qs),
(385,901,o),
(424,865,o),
(427,841,q),
(590,841,l),
(597,902,o),
(552,1001,o),
(458,1058,o),
(394,1058,qs),
(329,1058,o),
(241,1007,o),
(217,965,q),
(150,1053,o),
(2,1053,qs),
(-141,1053,o),
(-270,900,o),
(-270,765,qs),
(-270,696,l),
(-72,696,l),
(-72,775,ls),
(-72,819,o),
(-44,882,o),
(2,882,qs),
(45,882,o),
(72,819,o),
(72,775,qs),
(72,740,l),
(-11,740,l),
(-11,571,l),
(66,571,l),
(66,0,l),
(270,0,l),
(270,571,l),
(346,571,l),
(346,740,l)
);
},
{
closed = 1;
nodes = (
(370,768,o),
(400,797,o),
(400,817,qs),
(400,838,o),
(370,867,o),
(349,867,qs),
(329,867,o),
(300,838,o),
(300,817,qs),
(300,797,o),
(329,768,o),
(349,768,qs)
);
}
);
userData = {
assembly = "PUSHB[ ]	/* 6 values pushed */
22 1 9 6 1 76 
MPPEM[ ]	/* MeasurePixelPerEm */
PUSHB[ ]	/* 1 value pushed */
21 
LT[ ]	/* LessThan */
IF[ ]	/* If */
NPUSHB[ ]	/* 64 values pushed */
0 8 11 12 9 8 114 0 5 3 0 3 5 0 128 0 1 0 1 134 0 7 0 9 4 7 9 105 0 6 0 4 11 6 4 105 0 11 13 1 12 3 11 12 105 10 1 3 5 0 3 87 10 1 3 3 0 95 2 1 0 3 0 79 
ELSE[ ]	/* Else */
NPUSHB[ ]	/* 65 values pushed */
0 8 11 12 11 8 12 128 0 5 3 0 3 5 0 128 0 1 0 1 134 0 7 0 9 4 7 9 105 0 6 0 4 11 6 4 105 0 11 13 1 12 3 11 12 105 10 1 3 5 0 3 87 10 1 3 3 0 95 2 1 0 3 0 79 
EIF[ ]	/* EndIf */
NPUSHB[ ]	/* 24 values pushed */
39 39 39 50 39 49 45 43 38 37 34 32 19 35 35 19 35 17 17 17 16 14 6 31 
CALL[ ]	/* CallFunction */";
};
width = 335;
}
);
note = dvmII_Reph_Anusvara;
},
{
glyphname = dvmII_Anusvara.aLong;
layers = (
{
layerId = m01;
shapes = (
{
closed = 1;
nodes = (
(-366,696,l),
(-366,748,ls),
(-366,806,o),
(-279,883,o),
(-149,883,qs),
(-16,883,o),
(72,806,o),
(72,748,qs),
(72,740,l),
(-11,740,l),
(-11,571,l),
(66,571,l),
(66,0,l),
(270,0,l),
(270,571,l),
(346,571,l),
(346,740,l),
(270,740,l),
(270,763,ls),
(270,897,o),
(71,1054,o),
(-149,1054,qs),
(-362,1054,o),
(-562,899,o),
(-562,763,qs),
(-562,696,l)
);
},
{
closed = 1;
nodes = (
(463,782,o),
(530,848,o),
(530,895,qs),
(530,943,o),
(463,1009,o),
(415,1009,qs),
(368,1009,o),
(302,943,o),
(302,895,qs),
(302,848,o),
(368,782,o),
(415,782,qs)
);
}
);
userData = {
assembly = "NPUSHB[ ]	/* 67 values pushed */
0 7 1 2 1 7 2 128 0 3 2 3 134 0 0 0 6 9 0 6 105 0 8 10 1 9 1 8 9 105 5 1 1 7 2 1 87 5 1 1 1 2 95 4 1 2 1 2 79 26 26 26 37 26 36 37 19 35 17 17 17 17 19 34 11 6 31 
CALL[ ]	/* CallFunction */";
};
width = 335;
}
);
note = dvmII_Anusvara.aLong;
},
{
glyphname = dvmII_Reph.aLong;
layers = (
{
layerId = m01;
shapes = (
{
closed = 1;
nodes = (
(-366,696,l),
(-366,748,ls),
(-366,806,o),
(-279,883,o),
(-149,883,qs),
(-16,883,o),
(72,806,o),
(72,748,qs),
(72,740,l),
(-11,740,l),
(-11,571,l),
(66,571,l),
(66,0,l),
(270,0,l),
(270,571,l),
(346,571,l),
(346,740,l),
(270,740,l),
(270,822,ls),
(270,845,o),
(286,877,o),
(312,877,qs),
(335,877,o),
(354,845,o),
(352,812,q),
(533,812,l),
(541,921,o),
(447,1038,o),
(364,1038,qs),
(301,1038,o),
(224,985,o),
(207,942,q),
(106,1054,o),
(-149,1054,qs),
(-362,1054,o),
(-562,899,o),
(-562,763,qs),
(-562,696,l)
);
}
);
userData = {
assembly = "PUSHB[ ]	/* 6 values pushed */
5 1 9 1 1 76 
MPPEM[ ]	/* MeasurePixelPerEm */
PUSHB[ ]	/* 1 value pushed */
20 
LT[ ]	/* LessThan */
IF[ ]	/* If */
NPUSHB[ ]	/* 55 values pushed */
0 2 3 4 3 2 114 0 10 4 5 4 10 5 128 0 6 5 6 134 0 0 0 9 3 0 9 105 0 1 0 3 2 1 3 105 8 1 4 10 5 4 87 8 1 4 4 5 95 7 1 5 4 5 79 
ELSE[ ]	/* Else */
NPUSHB[ ]	/* 56 values pushed */
0 2 3 4 3 2 4 128 0 10 4 5 4 10 5 128 0 6 5 6 134 0 0 0 9 3 0 9 105 0 1 0 3 2 1 3 105 8 1 4 10 5 4 87 8 1 4 4 5 95 7 1 5 4 5 79 
EIF[ ]	/* EndIf */
NPUSHB[ ]	/* 16 values pushed */
37 36 33 31 17 17 17 17 19 34 18 35 34 11 6 31 
CALL[ ]	/* CallFunction */";
};
width = 335;
}
);
note = dvmII_Reph.aLong;
},
{
glyphname = dvmII_Reph_Anusvara.aLong;
layers = (
{
layerId = m01;
shapes = (
{
closed = 1;
nodes = (
(270,740,l),
(270,812,ls),
(270,852,o),
(313,901,o),
(350,901,qs),
(385,901,o),
(424,865,o),
(427,841,q),
(590,841,l),
(597,902,o),
(552,1001,o),
(458,1058,o),
(394,1058,qs),
(320,1058,o),
(227,994,o),
(207,943,q),
(104,1054,o),
(-149,1054,qs),
(-362,1054,o),
(-562,899,o),
(-562,763,qs),
(-562,696,l),
(-366,696,l),
(-366,748,ls),
(-366,806,o),
(-279,883,o),
(-149,883,qs),
(-16,883,o),
(72,806,o),
(72,748,qs),
(72,740,l),
(-11,740,l),
(-11,571,l),
(66,571,l),
(66,0,l),
(270,0,l),
(270,571,l),
(346,571,l),
(346,740,l)
);
},
{
closed = 1;
nodes = (
(370,768,o),
(400,797,o),
(400,817,qs),
(400,838,o),
(370,867,o),
(349,867,qs),
(329,867,o),
(300,838,o),
(300,817,qs),
(300,797,o),
(329,768,o),
(349,768,qs)
);
}
);
userData = {
assembly = "PUSHB[ ]	/* 6 values pushed */
22 1 9 6 1 76 
MPPEM[ ]	/* MeasurePixelPerEm */
PUSHB[ ]	/* 1 value pushed */
10 
LT[ ]	/* LessThan */
IF[ ]	/* If */
NPUSHB[ ]	/* 64 values pushed */
0 8 11 12 9 8 114 0 5 3 0 3 5 0 128 0 1 0 1 134 0 7 0 9 4 7 9 105 0 6 0 4 11 6 4 105 0 11 13 1 12 3 11 12 105 10 1 3 5 0 3 87 10 1 3 3 0 95 2 1 0 3 0 79 
ELSE[ ]	/* Else */
MPPEM[ ]	/* MeasurePixelPerEm */
PUSHB[ ]	/* 1 value pushed */
11 
LT[ ]	/* LessThan */
IF[ ]	/* If */
NPUSHB[ ]	/* 63 values pushed */
0 8 11 12 9 8 114 0 5 3 0 3 5 0 128 0 1 0 1 134 0 9 4 6 9 89 7 1 6 0 4 11 6 4 105 0 11 13 1 12 3 11 12 105 10 1 3 5 0 3 87 10 1 3 3 0 95 2 1 0 3 0 79 
ELSE[ ]	/* Else */
MPPEM[ ]	/* MeasurePixelPerEm */
PUSHB[ ]	/* 1 value pushed */
21 
LT[ ]	/* LessThan */
IF[ ]	/* If */
NPUSHB[ ]	/* 64 values pushed */
0 8 11 12 9 8 114 0 5 3 0 3 5 0 128 0 1 0 1 134 0 7 0 9 4 7 9 105 0 6 0 4 11 6 4 105 0 11 13 1 12 3 11 12 105 10 1 3 5 0 3 87 10 1 3 3 0 95 2 1 0 3 0 79 
ELSE[ ]	/* Else */
NPUSHB[ ]	/* 65 values pushed */
0 8 11 12 11 8 12 128 0 5 3 0 3 5 0 128 0 1 0 1 134 0 7 0 9 4 7 9 105 0 6 0 4 11 6 4 105 0 11 13 1 12 3 11 12 105 10 1 3 5 0 3 87 10 1 3 3 0 95 2 1 0 3 0 79 
EIF[ ]	/* EndIf */
EIF[ ]	/* EndIf */
EIF[ ]	/* EndIf */
NPUSHB[ ]	/* 24 values pushed */
39 39 39 50 39 49 45 43 38 37 34 32 19 35 35 19 35 17 17 17 16 14 6 31 
CALL[ ]	/* CallFunction */";
};
width = 335;
}
);
note = dvmII_Reph_Anusvara.aLong;
},
{
glyphname = dvmE_Anusvara;
layers = (
{
layerId = m01;
shapes = (
{
closed = 1;
nodes = (
(-134,859,o),
(-229,973,o),
(-334,1011,o),
(-425,1012,qs),
(-481,1012,l),
(-481,849,l),
(-422,849,ls),
(-380,849,o),
(-332,832,o),
(-292,787,o),
(-258,735,q),
(-68,735,l)
);
},
{
closed = 1;
nodes = (
(69,787,o),
(136,853,o),
(136,900,qs),
(136,948,o),
(69,1014,o),
(21,1014,qs),
(-26,1014,o),
(-92,948,o),
(-92,900,qs),
(-92,853,o),
(-26,787,o),
(21,787,qs)
);
}
);
userData = {
assembly = "MPPEM[ ]	/* MeasurePixelPerEm */
PUSHB[ ]	/* 1 value pushed */
9 
LT[ ]	/* LessThan */
IF[ ]	/* If */
NPUSHB[ ]	/* 27 values pushed */
5 1 2 4 2 134 3 1 1 0 0 4 1 0 105 3 1 1 1 4 97 6 1 4 1 4 81 
ELSE[ ]	/* Else */
MPPEM[ ]	/* MeasurePixelPerEm */
PUSHB[ ]	/* 1 value pushed */
10 
LT[ ]	/* LessThan */
IF[ ]	/* If */
NPUSHB[ ]	/* 31 values pushed */
5 1 2 4 2 134 0 3 1 4 3 89 0 1 0 0 4 1 0 105 0 3 3 4 97 6 1 4 3 4 81 
ELSE[ ]	/* Else */
NPUSHB[ ]	/* 27 values pushed */
5 1 2 4 2 134 3 1 1 0 0 4 1 0 105 3 1 1 1 4 97 6 1 4 1 4 81 
EIF[ ]	/* EndIf */
EIF[ ]	/* EndIf */
NPUSHB[ ]	/* 19 values pushed */
12 12 0 0 12 23 12 22 18 16 0 11 0 11 33 35 7 6 24 
CALL[ ]	/* CallFunction */";
};
width = 0;
}
);
note = dvmE_Anusvara;
},
{
glyphname = dvmE_Reph;
layers = (
{
layerId = m01;
shapes = (
{
closed = 1;
nodes = (
(-72,742,ls),
(-90,776,o),
(-90,808,qs),
(-90,831,o),
(-68,859,o),
(-46,859,qs),
(-24,859,o),
(-4,827,o),
(-6,805,q),
(166,805,l),
(172,863,o),
(137,958,o),
(57,1014,o),
(-2,1014,qs),
(-73,1014,o),
(-150,943,o),
(-160,888,q),
(-198,940,o),
(-271,993,o),
(-358,1011,o),
(-425,1012,qs),
(-481,1012,l),
(-481,849,l),
(-422,849,ls),
(-380,849,o),
(-332,832,o),
(-292,787,o),
(-258,735,q),
(-68,735,l)
);
}
);
userData = {
assembly = "PUSHB[ ]	/* 6 values pushed */
11 1 4 1 1 76 
MPPEM[ ]	/* MeasurePixelPerEm */
PUSHB[ ]	/* 1 value pushed */
9 
LT[ ]	/* LessThan */
IF[ ]	/* If */
NPUSHB[ ]	/* 32 values pushed */
0 3 0 5 4 3 114 6 1 5 5 132 2 1 1 0 4 0 1 4 105 2 1 1 1 0 97 0 0 1 0 81 
ELSE[ ]	/* Else */
MPPEM[ ]	/* MeasurePixelPerEm */
PUSHB[ ]	/* 1 value pushed */
10 
LT[ ]	/* LessThan */
IF[ ]	/* If */
NPUSHB[ ]	/* 36 values pushed */
0 3 0 5 4 3 114 6 1 5 5 132 0 1 4 0 1 89 0 2 0 4 0 2 4 105 0 1 1 0 97 0 0 1 0 81 
ELSE[ ]	/* Else */
MPPEM[ ]	/* MeasurePixelPerEm */
PUSHB[ ]	/* 1 value pushed */
24 
LT[ ]	/* LessThan */
IF[ ]	/* If */
NPUSHB[ ]	/* 32 values pushed */
0 3 0 5 4 3 114 6 1 5 5 132 2 1 1 0 4 0 1 4 105 2 1 1 1 0 97 0 0 1 0 81 
ELSE[ ]	/* Else */
NPUSHB[ ]	/* 33 values pushed */
0 3 0 5 0 3 5 128 6 1 5 5 132 2 1 1 0 4 0 1 4 105 2 1 1 1 0 97 0 0 1 0 81 
EIF[ ]	/* EndIf */
EIF[ ]	/* EndIf */
EIF[ ]	/* EndIf */
NPUSHB[ ]	/* 14 values pushed */
0 0 0 28 0 28 34 19 37 33 35 7 6 27 
CALL[ ]	/* CallFunction */";
};
width = 0;
}
);
note = dvmE_Reph;
},
{
glyphname = dvmE_Reph_Anusvara;
layers = (
{
layerId = m01;
shapes = (
{
closed = 1;
nodes = (
(-74,747,ls),
(-95,787,o),
(-95,822,qs),
(-95,856,o),
(-52,902,o),
(-18,902,qs),
(24,902,o),
(67,849,o),
(65,814,q),
(201,814,l),
(207,879,o),
(164,976,o),
(73,1029,o),
(10,1029,qs),
(-66,1029,o),
(-155,957,o),
(-170,901,q),
(-205,947,o),
(-276,994,o),
(-361,1011,o),
(-425,1012,qs),
(-481,1012,l),
(-481,849,l),
(-422,849,ls),
(-380,849,o),
(-332,832,o),
(-292,787,o),
(-258,735,q),
(-68,735,l)
);
},
{
closed = 1;
nodes = (
(3,770,o),
(33,799,o),
(33,819,qs),
(33,840,o),
(3,869,o),
(-18,869,qs),
(-38,869,o),
(-67,840,o),
(-67,819,qs),
(-67,799,o),
(-38,770,o),
(-18,770,qs)
);
}
);
userData = {
assembly = "PUSHB[ ]	/* 6 values pushed */
11 1 6 4 1 76 
MPPEM[ ]	/* MeasurePixelPerEm */
PUSHB[ ]	/* 1 value pushed */
15 
LT[ ]	/* LessThan */
IF[ ]	/* If */
NPUSHB[ ]	/* 46 values pushed */
0 3 0 7 4 3 114 8 1 5 7 5 134 0 2 0 4 6 2 4 105 0 6 0 7 6 89 0 1 0 0 3 1 0 105 0 6 6 7 97 9 1 7 6 7 81 
ELSE[ ]	/* Else */
NPUSHB[ ]	/* 47 values pushed */
0 3 0 7 0 3 7 128 8 1 5 7 5 134 0 2 0 4 6 2 4 105 0 6 0 7 6 89 0 1 0 0 3 1 0 105 0 6 6 7 97 9 1 7 6 7 81 
EIF[ ]	/* EndIf */
NPUSHB[ ]	/* 22 values pushed */
29 29 0 0 29 40 29 39 35 33 0 28 0 28 34 19 37 33 35 10 6 27 
CALL[ ]	/* CallFunction */";
};
width = 0;
}
);
note = dvmE_Reph_Anusvara;
},
{
glyphname = dvmAI_Anusvara;
layers = (
{
layerId = m01;
shapes = (
{
closed = 1;
nodes = (
(-69,737,l),
(-162,915,o),
(-256,1053,o),
(-346,1091,o),
(-437,1091,qs),
(-497,1091,l),
(-497,965,l),
(-432,965,ls),
(-395,965,o),
(-351,956,o),
(-302,919,o),
(-275,877,q),
(-302,896,o),
(-344,912,o),
(-390,916,o),
(-441,916,qs),
(-497,916,l),
(-497,791,l),
(-436,791,ls),
(-385,791,o),
(-348,788,o),
(-318,777,o),
(-284,759,qs),
(-243,737,l)
);
},
{
closed = 1;
nodes = (
(74,783,o),
(141,849,o),
(141,896,qs),
(141,944,o),
(74,1010,o),
(26,1010,qs),
(-21,1010,o),
(-87,944,o),
(-87,896,qs),
(-87,849,o),
(-21,783,o),
(26,783,qs)
);
}
);
userData = {
assembly = "NPUSHB[ ]	/* 59 values pushed */
11 1 0 1 1 76 0 4 6 4 134 0 5 2 6 5 89 0 3 0 2 1 3 2 105 0 1 0 0 6 1 0 105 0 5 5 6 97 7 1 6 5 6 81 24 24 24 35 24 34 37 19 33 38 33 35 8 6 28 
CALL[ ]	/* CallFunction */";
};
width = 0;
}
);
note = dvmAI_Anusvara;
},
{
glyphname = dvmAI_Reph;
layers = (
{
layerId = m01;
shapes = (
{
closed = 1;
nodes = (
(-69,737,l),
(-75,748,ls),
(-90,781,o),
(-90,808,qs),
(-90,831,o),
(-68,859,o),
(-46,859,qs),
(-24,859,o),
(-4,827,o),
(-6,805,q),
(147,805,l),
(153,863,o),
(121,958,o),
(48,1014,o),
(-5,1014,qs),
(-71,1014,o),
(-144,951,o),
(-157,901,q),
(-208,991,o),
(-283,1070,o),
(-362,1091,o),
(-437,1091,qs),
(-497,1091,l),
(-497,965,l),
(-432,965,ls),
(-395,965,o),
(-351,956,o),
(-302,919,o),
(-275,877,q),
(-302,896,o),
(-344,912,o),
(-390,916,o),
(-441,916,qs),
(-497,916,l),
(-497,791,l),
(-436,791,ls),
(-385,791,o),
(-348,788,o),
(-318,777,o),
(-284,759,qs),
(-243,737,l)
);
}
);
userData = {
assembly = "PUSHB[ ]	/* 7 values pushed */
22 11 2 6 1 1 76 
MPPEM[ ]	/* MeasurePixelPerEm */
PUSHB[ ]	/* 1 value pushed */
24 
LT[ ]	/* LessThan */
IF[ ]	/* If */
NPUSHB[ ]	/* 44 values pushed */
0 5 6 0 6 5 114 0 7 0 7 134 0 3 0 2 1 3 2 105 0 1 6 0 1 89 0 4 0 6 5 4 6 105 0 1 1 0 97 0 0 1 0 81 
ELSE[ ]	/* Else */
NPUSHB[ ]	/* 45 values pushed */
0 5 6 0 6 5 0 128 0 7 0 7 134 0 3 0 2 1 3 2 105 0 1 6 0 1 89 0 4 0 6 5 4 6 105 0 1 1 0 97 0 0 1 0 81 
EIF[ ]	/* EndIf */
NPUSHB[ ]	/* 11 values pushed */
21 34 19 37 33 38 33 35 8 6 30 
CALL[ ]	/* CallFunction */";
};
width = 0;
}
);
note = dvmAI_Reph;
},
{
glyphname = dvmAI_Reph_Anusvara;
layers = (
{
layerId = m01;
shapes = (
{
closed = 1;
nodes = (
(-69,737,l),
(-71,741,o),
(-71,742,q),
(-84,768,o),
(-95,799,o),
(-95,818,qs),
(-95,855,o),
(-53,902,o),
(-18,902,qs),
(24,902,o),
(67,849,o),
(65,814,q),
(201,814,l),
(207,876,o),
(165,974,o),
(74,1029,o),
(10,1029,qs),
(-60,1029,o),
(-147,963,o),
(-163,912,q),
(-212,996,o),
(-285,1071,o),
(-363,1091,o),
(-437,1091,qs),
(-497,1091,l),
(-497,965,l),
(-432,965,ls),
(-395,965,o),
(-351,956,o),
(-302,919,o),
(-275,877,q),
(-302,896,o),
(-344,912,o),
(-390,916,o),
(-441,916,qs),
(-497,916,l),
(-497,791,l),
(-436,791,ls),
(-385,791,o),
(-348,788,o),
(-318,777,o),
(-284,759,qs),
(-243,737,l)
);
},
{
closed = 1;
nodes = (
(3,770,o),
(33,799,o),
(33,819,qs),
(33,840,o),
(3,869,o),
(-18,869,qs),
(-38,869,o),
(-67,840,o),
(-67,819,qs),
(-67,799,o),
(-38,770,o),
(-18,770,qs)
);
}
);
userData = {
assembly = "NPUSHB[ ]	/* 10 values pushed */
22 1 6 1 11 1 8 6 2 76 
MPPEM[ ]	/* MeasurePixelPerEm */
PUSHB[ ]	/* 1 value pushed */
15 
LT[ ]	/* LessThan */
IF[ ]	/* If */
NPUSHB[ ]	/* 53 values pushed */
0 5 8 0 6 5 114 0 7 9 7 134 0 3 0 2 1 3 2 105 0 4 0 6 8 4 6 105 0 8 5 9 8 89 0 1 0 0 9 1 0 105 0 8 8 9 97 10 1 9 8 9 81 
ELSE[ ]	/* Else */
NPUSHB[ ]	/* 54 values pushed */
0 5 8 0 8 5 0 128 0 7 9 7 134 0 3 0 2 1 3 2 105 0 4 0 6 8 4 6 105 0 8 5 9 8 89 0 1 0 0 9 1 0 105 0 8 8 9 97 10 1 9 8 9 81 
EIF[ ]	/* EndIf */
NPUSHB[ ]	/* 18 values pushed */
43 43 43 54 43 53 37 53 34 19 37 33 38 33 35 11 6 31 
CALL[ ]	/* CallFunction */";
};
width = 0;
}
);
note = dvmAI_Reph_Anusvara;
},
{
glyphname = dvmO_Anusvara;
layers = (
{
layerId = m01;
shapes = (
{
closed = 1;
nodes = (
(270,0,l),
(270,571,l),
(346,571,l),
(346,740,l),
(265,740,l),
(200,861,o),
(107,974,o),
(2,1011,o),
(-89,1012,qs),
(-145,1012,l),
(-145,849,l),
(-86,849,ls),
(-44,849,o),
(3,832,o),
(42,789,o),
(75,740,q),
(-11,740,l),
(-11,571,l),
(66,571,l),
(66,0,l)
);
},
{
closed = 1;
nodes = (
(405,787,o),
(472,853,o),
(472,900,qs),
(472,948,o),
(405,1014,o),
(357,1014,qs),
(310,1014,o),
(244,948,o),
(244,900,qs),
(244,853,o),
(310,787,o),
(357,787,qs)
);
}
);
userData = {
assembly = "MPPEM[ ]	/* MeasurePixelPerEm */
PUSHB[ ]	/* 1 value pushed */
9 
LT[ ]	/* LessThan */
IF[ ]	/* If */
NPUSHB[ ]	/* 40 values pushed */
0 6 0 6 134 0 2 8 3 2 89 7 1 3 9 1 8 1 3 8 105 4 1 1 0 0 1 87 4 1 1 1 0 95 5 1 0 1 0 79 
ELSE[ ]	/* Else */
MPPEM[ ]	/* MeasurePixelPerEm */
PUSHB[ ]	/* 1 value pushed */
10 
LT[ ]	/* LessThan */
IF[ ]	/* If */
NPUSHB[ ]	/* 41 values pushed */
0 6 0 6 134 0 3 0 2 8 3 2 105 0 7 9 1 8 1 7 8 105 4 1 1 0 0 1 87 4 1 1 1 0 95 5 1 0 1 0 79 
ELSE[ ]	/* Else */
NPUSHB[ ]	/* 40 values pushed */
0 6 0 6 134 0 2 8 3 2 89 7 1 3 9 1 8 1 3 8 105 4 1 1 0 0 1 87 4 1 1 1 0 95 5 1 0 1 0 79 
EIF[ ]	/* EndIf */
EIF[ ]	/* EndIf */
NPUSHB[ ]	/* 17 values pushed */
20 20 20 31 20 30 37 17 17 19 33 35 17 16 10 6 30 
CALL[ ]	/* CallFunction */";
};
width = 335;
}
);
note = dvmO_Anusvara;
},
{
glyphname = dvmO_Reph;
layers = (
{
layerId = m01;
shapes = (
{
closed = 1;
nodes = (
(270,0,l),
(270,571,l),
(346,571,l),
(346,740,l),
(265,740,l),
(264,742,ls),
(246,776,o),
(246,808,qs),
(246,831,o),
(268,859,o),
(290,859,qs),
(312,859,o),
(332,827,o),
(330,805,q),
(502,805,l),
(508,863,o),
(473,958,o),
(393,1014,o),
(334,1014,qs),
(263,1014,o),
(186,943,o),
(176,888,q),
(138,940,o),
(65,993,o),
(-22,1011,o),
(-89,1012,qs),
(-145,1012,l),
(-145,849,l),
(-86,849,ls),
(-44,849,o),
(3,832,o),
(42,789,o),
(75,740,q),
(-11,740,l),
(-11,571,l),
(66,571,l),
(66,0,l)
);
}
);
userData = {
assembly = "PUSHB[ ]	/* 6 values pushed */
14 1 6 3 1 76 
MPPEM[ ]	/* MeasurePixelPerEm */
PUSHB[ ]	/* 1 value pushed */
9 
LT[ ]	/* LessThan */
IF[ ]	/* If */
NPUSHB[ ]	/* 46 values pushed */
0 5 2 1 6 5 114 0 9 0 9 134 0 6 2 3 6 89 4 1 3 0 2 5 3 2 105 7 1 1 0 0 1 87 7 1 1 1 0 95 8 1 0 1 0 79 
ELSE[ ]	/* Else */
MPPEM[ ]	/* MeasurePixelPerEm */
PUSHB[ ]	/* 1 value pushed */
10 
LT[ ]	/* LessThan */
IF[ ]	/* If */
NPUSHB[ ]	/* 47 values pushed */
0 5 2 1 6 5 114 0 9 0 9 134 0 4 0 6 2 4 6 105 0 3 0 2 5 3 2 105 7 1 1 0 0 1 87 7 1 1 1 0 95 8 1 0 1 0 79 
ELSE[ ]	/* Else */
MPPEM[ ]	/* MeasurePixelPerEm */
PUSHB[ ]	/* 1 value pushed */
24 
LT[ ]	/* LessThan */
IF[ ]	/* If */
NPUSHB[ ]	/* 46 values pushed */
0 5 2 1 6 5 114 0 9 0 9 134 0 6 2 3 6 89 4 1 3 0 2 5 3 2 105 7 1 1 0 0 1 87 7 1 1 1 0 95 8 1 0 1 0 79 
ELSE[ ]	/* Else */
NPUSHB[ ]	/* 47 values pushed */
0 5 2 1 2 5 1 128 0 9 0 9 134 0 6 2 3 6 89 4 1 3 0 2 5 3 2 105 7 1 1 0 0 1 87 7 1 1 1 0 95 8 1 0 1 0 79 
EIF[ ]	/* EndIf */
EIF[ ]	/* EndIf */
EIF[ ]	/* EndIf */
NPUSHB[ ]	/* 14 values pushed */
36 35 17 36 34 19 37 33 35 17 16 10 6 31 
CALL[ ]	/* CallFunction */";
};
width = 335;
}
);
note = dvmO_Reph;
},
{
glyphname = dvmO_Reph_Anusvara;
layers = (
{
layerId = m01;
shapes = (
{
closed = 1;
nodes = (
(270,571,l),
(346,571,l),
(346,740,l),
(265,740,l),
(262,747,ls),
(241,787,o),
(241,822,qs),
(241,856,o),
(284,902,o),
(318,902,qs),
(360,902,o),
(403,849,o),
(401,814,q),
(537,814,l),
(543,879,o),
(500,976,o),
(409,1029,o),
(346,1029,qs),
(270,1029,o),
(181,957,o),
(166,901,q),
(131,947,o),
(60,994,o),
(-25,1011,o),
(-89,1012,qs),
(-145,1012,l),
(-145,849,l),
(-86,849,ls),
(-44,849,o),
(3,832,o),
(42,789,o),
(75,740,q),
(-11,740,l),
(-11,571,l),
(66,571,l),
(66,0,l),
(270,0,l)
);
},
{
closed = 1;
nodes = (
(339,770,o),
(369,799,o),
(369,819,qs),
(369,840,o),
(339,869,o),
(318,869,qs),
(298,869,o),
(269,840,o),
(269,819,qs),
(269,799,o),
(298,770,o),
(318,770,qs)
);
}
);
userData = {
assembly = "PUSHB[ ]	/* 6 values pushed */
15 1 10 6 1 76 
MPPEM[ ]	/* MeasurePixelPerEm */
PUSHB[ ]	/* 1 value pushed */
15 
LT[ ]	/* LessThan */
IF[ ]	/* If */
NPUSHB[ ]	/* 57 values pushed */
0 5 2 11 6 5 114 12 1 9 0 9 134 0 4 0 6 10 4 6 105 0 3 0 2 5 3 2 105 0 10 13 1 11 1 10 11 105 7 1 1 0 0 1 87 7 1 1 1 0 95 8 1 0 1 0 79 
ELSE[ ]	/* Else */
NPUSHB[ ]	/* 58 values pushed */
0 5 2 11 2 5 11 128 12 1 9 0 9 134 0 4 0 6 10 4 6 105 0 3 0 2 5 3 2 105 0 10 13 1 11 1 10 11 105 7 1 1 0 0 1 87 7 1 1 1 0 95 8 1 0 1 0 79 
EIF[ ]	/* EndIf */
NPUSHB[ ]	/* 26 values pushed */
37 37 0 0 37 48 37 47 43 41 0 36 0 36 17 21 34 19 37 33 35 17 17 14 6 31 
CALL[ ]	/* CallFunction */";
};
width = 335;
}
);
note = dvmO_Reph_Anusvara;
},
{
glyphname = dvmAU_Anusvara;
layers = (
{
layerId = m01;
shapes = (
{
closed = 1;
nodes = (
(270,0,l),
(270,571,l),
(346,571,l),
(346,740,l),
(258,740,l),
(166,917,o),
(73,1053,o),
(-17,1091,o),
(-108,1091,qs),
(-168,1091,l),
(-168,965,l),
(-103,965,ls),
(-66,965,o),
(-22,956,o),
(27,919,o),
(54,877,q),
(27,896,o),
(-15,912,o),
(-61,916,o),
(-112,916,qs),
(-168,916,l),
(-168,791,l),
(-107,791,ls),
(-56,791,o),
(-19,788,o),
(11,776,o),
(45,758,qs),
(80,740,l),
(-11,740,l),
(-11,571,l),
(66,571,l),
(66,0,l)
);
},
{
closed = 1;
nodes = (
(403,783,o),
(470,849,o),
(470,896,qs),
(470,944,o),
(403,1010,o),
(355,1010,qs),
(308,1010,o),
(242,944,o),
(242,896,qs),
(242,849,o),
(308,783,o),
(355,783,qs)
);
}
);
userData = {
assembly = "NPUSHB[ ]	/* 75 values pushed */
15 1 2 3 1 76 0 8 0 8 134 0 5 0 4 3 5 4 105 0 3 0 2 10 3 2 105 0 9 11 1 10 1 9 10 105 6 1 1 0 0 1 87 6 1 1 1 0 95 7 1 0 1 0 79 32 32 32 43 32 42 38 36 17 17 19 33 38 33 36 17 16 12 6 31 
CALL[ ]	/* CallFunction */";
};
width = 335;
}
);
note = dvmAU_Anusvara;
},
{
glyphname = dvmAU_Reph;
layers = (
{
layerId = m01;
shapes = (
{
closed = 1;
nodes = (
(270,0,l),
(270,571,l),
(346,571,l),
(346,740,l),
(258,740,l),
(254,748,ls),
(239,781,o),
(239,808,qs),
(239,831,o),
(261,859,o),
(283,859,qs),
(305,859,o),
(325,827,o),
(323,805,q),
(476,805,l),
(482,863,o),
(450,958,o),
(377,1014,o),
(324,1014,qs),
(258,1014,o),
(185,951,o),
(172,901,q),
(121,991,o),
(46,1070,o),
(-33,1091,o),
(-108,1091,qs),
(-168,1091,l),
(-168,965,l),
(-103,965,ls),
(-66,965,o),
(-22,956,o),
(27,919,o),
(54,877,q),
(27,896,o),
(-15,912,o),
(-61,916,o),
(-112,916,qs),
(-168,916,l),
(-168,791,l),
(-107,791,ls),
(-56,791,o),
(-19,788,o),
(11,776,o),
(45,758,qs),
(80,740,l),
(-11,740,l),
(-11,571,l),
(66,571,l),
(66,0,l)
);
}
);
userData = {
assembly = "PUSHB[ ]	/* 7 values pushed */
26 15 2 8 3 1 76 
MPPEM[ ]	/* MeasurePixelPerEm */
PUSHB[ ]	/* 1 value pushed */
24 
LT[ ]	/* LessThan */
IF[ ]	/* If */
NPUSHB[ ]	/* 55 values pushed */
0 7 8 2 8 7 114 0 11 0 11 134 0 5 0 4 3 5 4 105 0 6 0 8 7 6 8 105 0 3 0 2 1 3 2 105 9 1 1 0 0 1 87 9 1 1 1 0 95 10 1 0 1 0 79 
ELSE[ ]	/* Else */
NPUSHB[ ]	/* 56 values pushed */
0 7 8 2 8 7 2 128 0 11 0 11 134 0 5 0 4 3 5 4 105 0 6 0 8 7 6 8 105 0 3 0 2 1 3 2 105 9 1 1 0 0 1 87 9 1 1 1 0 95 10 1 0 1 0 79 
EIF[ ]	/* EndIf */
NPUSHB[ ]	/* 18 values pushed */
48 47 46 45 44 43 34 19 37 33 38 33 36 17 16 12 6 31 
CALL[ ]	/* CallFunction */";
};
width = 335;
}
);
note = dvmAU_Reph;
},
{
glyphname = dvmAU_Reph_Anusvara;
layers = (
{
layerId = m01;
shapes = (
{
closed = 1;
nodes = (
(270,0,l),
(270,571,l),
(346,571,l),
(346,740,l),
(258,740,l),
(255,746,ls),
(244,768,o),
(234,799,o),
(234,818,qs),
(234,855,o),
(276,902,o),
(311,902,qs),
(353,902,o),
(396,849,o),
(394,814,q),
(530,814,l),
(536,876,o),
(494,974,o),
(403,1029,o),
(339,1029,qs),
(269,1029,o),
(182,963,o),
(166,912,q),
(117,996,o),
(44,1071,o),
(-34,1091,o),
(-108,1091,qs),
(-168,1091,l),
(-168,965,l),
(-103,965,ls),
(-66,965,o),
(-22,956,o),
(27,919,o),
(54,877,q),
(27,896,o),
(-15,912,o),
(-61,916,o),
(-112,916,qs),
(-168,916,l),
(-168,791,l),
(-107,791,ls),
(-56,791,o),
(-19,788,o),
(11,776,o),
(45,758,qs),
(80,740,l),
(-11,740,l),
(-11,571,l),
(66,571,l),
(66,0,l)
);
},
{
closed = 1;
nodes = (
(332,770,o),
(362,799,o),
(362,819,qs),
(362,840,o),
(332,869,o),
(311,869,qs),
(291,869,o),
(262,840,o),
(262,819,qs),
(262,799,o),
(291,770,o),
(311,770,qs)
);
}
);
userData = {
assembly = "NPUSHB[ ]	/* 10 values pushed */
26 1 8 3 15 1 12 8 2 76 
MPPEM[ ]	/* MeasurePixelPerEm */
PUSHB[ ]	/* 1 value pushed */
15 
LT[ ]	/* LessThan */
IF[ ]	/* If */
NPUSHB[ ]	/* 64 values pushed */
0 7 12 2 8 7 114 0 11 0 11 134 0 5 0 4 3 5 4 105 0 6 0 8 12 6 8 105 0 3 0 2 13 3 2 105 0 12 14 1 13 1 12 13 105 9 1 1 0 0 1 87 9 1 1 1 0 95 10 1 0 1 0 79 
ELSE[ ]	/* Else */
NPUSHB[ ]	/* 65 values pushed */
0 7 12 2 12 7 2 128 0 11 0 11 134 0 5 0 4 3 5 4 105 0 6 0 8 12 6 8 105 0 3 0 2 13 3 2 105 0 12 14 1 13 1 12 13 105 9 1 1 0 0 1 87 9 1 1 1 0 95 10 1 0 1 0 79 
EIF[ ]	/* EndIf */
NPUSHB[ ]	/* 26 values pushed */
50 50 50 61 50 60 56 54 49 48 47 46 45 44 34 19 37 33 38 33 36 17 16 15 6 31 
CALL[ ]	/* CallFunction */";
};
width = 335;
}
);
note = dvmAU_Reph_Anusvara;
},
{
glyphname = dvmEcandra_Anusvara;
layers = (
{
layerId = m01;
shapes = (
{
closed = 1;
nodes = (
(-40,807,o),
(95,926,o),
(95,1040,q),
(-68,1040,l),
(-68,1000,o),
(-121,950,o),
(-167,950,qs),
(-213,950,o),
(-268,1000,o),
(-268,1040,q),
(-429,1040,l),
(-429,926,o),
(-294,807,o),
(-167,807,qs)
);
},
{
closed = 1;
nodes = (
(-137,989,o),
(-95,1031,o),
(-95,1062,qs),
(-95,1092,o),
(-137,1135,o),
(-169,1135,qs),
(-198,1135,o),
(-241,1092,o),
(-241,1062,qs),
(-241,1032,o),
(-199,989,o),
(-169,989,qs)
);
}
);
userData = {
assembly = "MPPEM[ ]	/* MeasurePixelPerEm */
PUSHB[ ]	/* 1 value pushed */
14 
LT[ ]	/* LessThan */
IF[ ]	/* If */
NPUSHB[ ]	/* 34 values pushed */
2 1 0 4 5 1 0 114 0 4 7 1 5 1 4 5 105 0 1 3 3 1 89 0 1 1 3 98 6 1 3 1 3 82 
ELSE[ ]	/* Else */
NPUSHB[ ]	/* 35 values pushed */
2 1 0 4 5 4 0 5 128 0 4 7 1 5 1 4 5 105 0 1 3 3 1 89 0 1 1 3 98 6 1 3 1 3 82 
EIF[ ]	/* EndIf */
NPUSHB[ ]	/* 20 values pushed */
14 14 0 0 14 25 14 24 20 18 0 13 0 12 18 34 18 8 6 25 
CALL[ ]	/* CallFunction */";
};
width = 0;
}
);
note = dvmEcandra_Anusvara;
},
{
glyphname = dvmOcandra_Anusvara;
layers = (
{
layerId = m01;
shapes = (
{
closed = 1;
nodes = (
(66,0,l),
(270,0,l),
(270,571,l),
(346,571,l),
(346,740,l),
(-11,740,l),
(-11,571,l),
(66,571,l)
);
},
{
closed = 1;
nodes = (
(295,807,o),
(430,926,o),
(430,1040,q),
(267,1040,l),
(267,1000,o),
(214,950,o),
(168,950,qs),
(122,950,o),
(67,1000,o),
(67,1040,q),
(-94,1040,l),
(-94,926,o),
(41,807,o),
(168,807,qs)
);
},
{
closed = 1;
nodes = (
(198,989,o),
(240,1031,o),
(240,1062,qs),
(240,1092,o),
(198,1135,o),
(166,1135,qs),
(137,1135,o),
(94,1092,o),
(94,1062,qs),
(94,1032,o),
(137,989,o),
(166,989,qs)
);
}
);
userData = {
assembly = "MPPEM[ ]	/* MeasurePixelPerEm */
PUSHB[ ]	/* 1 value pushed */
14 
LT[ ]	/* LessThan */
IF[ ]	/* If */
NPUSHB[ ]	/* 49 values pushed */
6 1 4 8 9 5 4 114 0 2 1 2 134 0 8 12 1 9 5 8 9 105 0 5 11 1 7 0 5 7 106 0 0 1 1 0 87 0 0 0 1 95 10 3 2 1 0 1 79 
ELSE[ ]	/* Else */
NPUSHB[ ]	/* 50 values pushed */
6 1 4 8 9 8 4 9 128 0 2 1 2 134 0 8 12 1 9 5 8 9 105 0 5 11 1 7 0 5 7 106 0 0 1 1 0 87 0 0 0 1 95 10 3 2 1 0 1 79 
EIF[ ]	/* EndIf */
NPUSHB[ ]	/* 32 values pushed */
22 22 8 8 0 0 22 33 22 32 28 26 8 21 8 20 18 17 15 13 11 10 0 7 0 7 17 17 17 13 6 25 
CALL[ ]	/* CallFunction */";
};
width = 335;
}
);
note = dvmOcandra_Anusvara;
},
{
glyphname = dvRA_mU;
layers = (
{
layerId = m01;
shapes = (
{
closed = 1;
nodes = (
(-11,571,l),
(272,571,l),
(272,545,ls),
(272,493,o),
(220,438,o),
(148,438,qs),
(50,438,l),
(50,209,ls),
(50,147,o),
(104,48,o),
(209,-9,o),
(283,-9,qs),
(386,-9,o),
(501,106,o),
(501,203,qs),
(500,221,l),
(305,221,l),
(305,196,ls),
(305,182,o),
(292,164,o),
(279,164,qs),
(252,164,o),
(252,199,qs),
(252,276,l),
(583,276,ls),
(601,276,o),
(620,260,o),
(620,247,qs),
(620,217,o),
(580,217,qs),
(569,217,o),
(551,219,q),
(551,58,l),
(573,54,o),
(599,54,qs),
(691,54,o),
(800,156,o),
(800,240,qs),
(800,438,o),
(566,438,qs),
(455,438,l),
(476,489,o),
(476,545,qs),
(476,571,l),
(833,571,l),
(833,740,l),
(-11,740,l)
);
}
);
userData = {
assembly = "MPPEM[ ]	/* MeasurePixelPerEm */
PUSHB[ ]	/* 1 value pushed */
10 
LT[ ]	/* LessThan */
IF[ ]	/* If */
NPUSHB[ ]	/* 10 values pushed */
14 1 3 6 13 1 2 5 2 76 
ELSE[ ]	/* Else */
MPPEM[ ]	/* MeasurePixelPerEm */
PUSHB[ ]	/* 1 value pushed */
11 
LT[ ]	/* LessThan */
IF[ ]	/* If */
NPUSHB[ ]	/* 10 values pushed */
14 1 3 4 13 1 2 5 2 76 
ELSE[ ]	/* Else */
NPUSHB[ ]	/* 10 values pushed */
14 1 3 6 13 1 2 5 2 76 
EIF[ ]	/* EndIf */
EIF[ ]	/* EndIf */
MPPEM[ ]	/* MeasurePixelPerEm */
PUSHB[ ]	/* 1 value pushed */
10 
LT[ ]	/* LessThan */
IF[ ]	/* If */
NPUSHB[ ]	/* 50 values pushed */
0 6 4 3 5 6 114 11 1 10 9 1 0 1 10 0 103 8 1 1 0 4 6 1 4 103 0 5 2 7 5 89 0 3 0 2 7 3 2 105 0 5 5 7 98 0 7 5 7 82 
ELSE[ ]	/* Else */
MPPEM[ ]	/* MeasurePixelPerEm */
PUSHB[ ]	/* 1 value pushed */
11 
LT[ ]	/* LessThan */
IF[ ]	/* If */
NPUSHB[ ]	/* 44 values pushed */
11 1 10 9 1 0 1 10 0 103 8 1 1 0 4 3 1 4 103 0 5 2 7 5 89 6 1 3 0 2 7 3 2 105 0 5 5 7 98 0 7 5 7 82 
ELSE[ ]	/* Else */
MPPEM[ ]	/* MeasurePixelPerEm */
PUSHB[ ]	/* 1 value pushed */
22 
LT[ ]	/* LessThan */
IF[ ]	/* If */
NPUSHB[ ]	/* 50 values pushed */
0 6 4 3 5 6 114 11 1 10 9 1 0 1 10 0 103 8 1 1 0 4 6 1 4 103 0 5 2 7 5 89 0 3 0 2 7 3 2 105 0 5 5 7 98 0 7 5 7 82 
ELSE[ ]	/* Else */
NPUSHB[ ]	/* 51 values pushed */
0 6 4 3 4 6 3 128 11 1 10 9 1 0 1 10 0 103 8 1 1 0 4 6 1 4 103 0 5 2 7 5 89 0 3 0 2 7 3 2 105 0 5 5 7 98 0 7 5 7 82 
EIF[ ]	/* EndIf */
EIF[ ]	/* EndIf */
EIF[ ]	/* EndIf */
NPUSHB[ ]	/* 20 values pushed */
0 0 0 46 0 46 45 44 36 35 19 34 35 35 35 35 17 12 6 31 
CALL[ ]	/* CallFunction */";
};
width = 821;
}
);
note = dvRA_mU;
},
{
glyphname = dvRA_mUU;
layers = (
{
layerId = m01;
shapes = (
{
closed = 1;
nodes = (
(-11,571,l),
(272,571,l),
(272,545,ls),
(272,493,o),
(220,438,o),
(148,438,qs),
(50,438,l),
(50,209,ls),
(50,147,o),
(104,48,o),
(209,-9,o),
(283,-9,qs),
(386,-9,o),
(501,106,o),
(501,203,qs),
(500,221,l),
(305,221,l),
(305,196,ls),
(305,182,o),
(292,164,o),
(279,164,qs),
(252,164,o),
(252,199,qs),
(252,276,l),
(481,276,ls),
(521,276,o),
(563,233,o),
(563,198,qs),
(563,116,l),
(752,116,l),
(752,203,ls),
(752,312,o),
(626,438,o),
(503,438,qs),
(455,438,l),
(476,489,o),
(476,545,qs),
(476,571,l),
(788,571,l),
(788,740,l),
(-11,740,l)
);
}
);
userData = {
assembly = "MPPEM[ ]	/* MeasurePixelPerEm */
PUSHB[ ]	/* 1 value pushed */
22 
LT[ ]	/* LessThan */
IF[ ]	/* If */
NPUSHB[ ]	/* 50 values pushed */
0 5 3 4 4 5 114 0 2 4 6 4 2 6 128 10 1 9 8 1 0 1 9 0 103 7 1 1 0 3 5 1 3 103 0 4 2 6 4 89 0 4 4 6 98 0 6 4 6 82 
ELSE[ ]	/* Else */
NPUSHB[ ]	/* 51 values pushed */
0 5 3 4 3 5 4 128 0 2 4 6 4 2 6 128 10 1 9 8 1 0 1 9 0 103 7 1 1 0 3 5 1 3 103 0 4 2 6 4 89 0 4 4 6 98 0 6 4 6 82 
EIF[ ]	/* EndIf */
NPUSHB[ ]	/* 18 values pushed */
0 0 0 40 0 40 19 36 35 19 34 35 19 35 17 11 6 31 
CALL[ ]	/* CallFunction */";
};
width = 777;
}
);
note = dvRA_mUU;
},
{
glyphname = dvmI.a01;
layers = (
{
layerId = m01;
shapes = (
{
closed = 1;
nodes = (
(270,571,l),
(346,571,l),
(346,740,l),
(269,740,l),
(276,809,o),
(369,888,o),
(439,888,qs),
(488,888,o),
(567,845,o),
(613,765,o),
(613,710,qs),
(613,696,l),
(811,696,l),
(811,714,ls),
(811,808,o),
(725,962,o),
(557,1053,o),
(439,1053,qs),
(324,1053,o),
(160,971,o),
(72,829,o),
(67,740,q),
(-11,740,l),
(-11,571,l),
(66,571,l),
(66,0,l),
(270,0,l)
);
}
);
userData = {
assembly = "NPUSHB[ ]	/* 57 values pushed */
0 3 1 0 1 3 0 128 8 1 7 0 7 134 0 2 0 4 1 2 4 105 5 1 1 3 0 1 87 5 1 1 1 0 95 6 1 0 1 0 79 0 0 0 26 0 26 17 18 36 20 35 17 17 9 6 29 
CALL[ ]	/* CallFunction */";
};
width = 335;
}
);
note = dvmI.a01;
},
{
glyphname = dvmI.a02;
layers = (
{
layerId = m01;
shapes = (
{
closed = 1;
nodes = (
(270,571,l),
(346,571,l),
(346,740,l),
(269,740,l),
(276,811,o),
(380,889,o),
(467,889,qs),
(561,889,o),
(671,793,o),
(671,708,qs),
(671,694,l),
(870,694,l),
(870,713,ls),
(870,809,o),
(780,964,o),
(598,1054,o),
(467,1054,qs),
(341,1054,o),
(165,973,o),
(72,831,o),
(67,740,q),
(-11,740,l),
(-11,571,l),
(66,571,l),
(66,0,l),
(270,0,l)
);
}
);
userData = {
assembly = "NPUSHB[ ]	/* 57 values pushed */
0 3 1 0 1 3 0 128 8 1 7 0 7 134 0 2 0 4 1 2 4 105 5 1 1 3 0 1 87 5 1 1 1 0 95 6 1 0 1 0 79 0 0 0 25 0 25 17 18 35 20 35 17 17 9 6 29 
CALL[ ]	/* CallFunction */";
};
width = 335;
}
);
note = dvmI.a02;
},
{
glyphname = dvmI.a03;
layers = (
{
layerId = m01;
shapes = (
{
closed = 1;
nodes = (
(270,571,l),
(346,571,l),
(346,740,l),
(269,740,l),
(277,813,o),
(391,890,o),
(494,890,qs),
(607,890,o),
(729,794,o),
(729,705,qs),
(729,692,l),
(929,692,l),
(929,710,ls),
(929,809,o),
(835,965,o),
(640,1055,o),
(496,1055,qs),
(358,1055,o),
(169,974,o),
(72,832,o),
(67,740,q),
(-11,740,l),
(-11,571,l),
(66,571,l),
(66,0,l),
(270,0,l)
);
}
);
userData = {
assembly = "NPUSHB[ ]	/* 57 values pushed */
0 3 1 0 1 3 0 128 8 1 7 0 7 134 0 2 0 4 1 2 4 105 5 1 1 3 0 1 87 5 1 1 1 0 95 6 1 0 1 0 79 0 0 0 25 0 25 17 18 35 20 35 17 17 9 6 29 
CALL[ ]	/* CallFunction */";
};
width = 335;
}
);
note = dvmI.a03;
},
{
glyphname = dvmI.a04;
layers = (
{
layerId = m01;
shapes = (
{
closed = 1;
nodes = (
(270,571,l),
(346,571,l),
(346,740,l),
(269,740,l),
(285,891,o),
(521,891,qs),
(654,891,o),
(788,795,o),
(788,703,qs),
(788,691,l),
(987,691,l),
(987,708,ls),
(987,809,o),
(889,966,o),
(681,1056,o),
(523,1056,qs),
(301,1056,o),
(76,885,o),
(67,740,q),
(-11,740,l),
(-11,571,l),
(66,571,l),
(66,0,l),
(270,0,l)
);
}
);
userData = {
assembly = "NPUSHB[ ]	/* 57 values pushed */
0 3 1 0 1 3 0 128 8 1 7 0 7 134 0 2 0 4 1 2 4 105 5 1 1 3 0 1 87 5 1 1 1 0 95 6 1 0 1 0 79 0 0 0 23 0 23 17 17 35 20 34 17 17 9 6 29 
CALL[ ]	/* CallFunction */";
};
width = 335;
}
);
note = dvmI.a04;
},
{
glyphname = dvmI.a05;
layers = (
{
layerId = m01;
shapes = (
{
closed = 1;
nodes = (
(270,571,l),
(346,571,l),
(346,740,l),
(269,740,l),
(277,815,o),
(412,892,o),
(549,892,qs),
(847,892,o),
(847,701,qs),
(847,689,l),
(1046,689,l),
(1046,706,ls),
(1046,809,o),
(943,967,o),
(722,1057,o),
(552,1057,qs),
(312,1057,o),
(76,887,o),
(67,740,q),
(-11,740,l),
(-11,571,l),
(66,571,l),
(66,0,l),
(270,0,l)
);
}
);
userData = {
assembly = "NPUSHB[ ]	/* 57 values pushed */
0 3 1 0 1 3 0 128 8 1 7 0 7 134 0 2 0 4 1 2 4 105 5 1 1 3 0 1 87 5 1 1 1 0 95 6 1 0 1 0 79 0 0 0 23 0 23 17 18 34 20 34 17 17 9 6 29 
CALL[ ]	/* CallFunction */";
};
width = 335;
}
);
note = dvmI.a05;
},
{
glyphname = dvmI.a06;
layers = (
{
layerId = m01;
shapes = (
{
closed = 1;
nodes = (
(270,571,l),
(346,571,l),
(346,740,l),
(269,740,l),
(278,816,o),
(422,893,o),
(576,893,qs),
(747,893,o),
(904,796,o),
(904,699,qs),
(904,687,l),
(1104,687,l),
(1104,704,ls),
(1104,867,o),
(852,1058,o),
(580,1058,qs),
(323,1058,o),
(76,889,o),
(67,740,q),
(-11,740,l),
(-11,571,l),
(66,571,l),
(66,0,l),
(270,0,l)
);
}
);
userData = {
assembly = "NPUSHB[ ]	/* 57 values pushed */
0 3 1 0 1 3 0 128 8 1 7 0 7 134 0 2 0 4 1 2 4 105 5 1 1 3 0 1 87 5 1 1 1 0 95 6 1 0 1 0 79 0 0 0 23 0 23 17 18 35 19 34 17 17 9 6 29 
CALL[ ]	/* CallFunction */";
};
width = 335;
}
);
note = dvmI.a06;
},
{
glyphname = dvmI.a07;
layers = (
{
layerId = m01;
shapes = (
{
closed = 1;
nodes = (
(270,571,l),
(346,571,l),
(346,740,l),
(269,740,l),
(278,818,o),
(433,893,o),
(604,893,qs),
(795,893,o),
(963,797,o),
(963,697,qs),
(963,685,l),
(1162,685,l),
(1162,702,ls),
(1162,868,o),
(899,1058,o),
(609,1058,qs),
(334,1058,o),
(77,892,o),
(67,740,q),
(-11,740,l),
(-11,571,l),
(66,571,l),
(66,0,l),
(270,0,l)
);
}
);
userData = {
assembly = "NPUSHB[ ]	/* 57 values pushed */
0 3 1 0 1 3 0 128 8 1 7 0 7 134 0 2 0 4 1 2 4 105 5 1 1 3 0 1 87 5 1 1 1 0 95 6 1 0 1 0 79 0 0 0 23 0 23 17 18 35 19 34 17 17 9 6 29 
CALL[ ]	/* CallFunction */";
};
width = 335;
}
);
note = dvmI.a07;
},
{
glyphname = dvmI.a08;
layers = (
{
layerId = m01;
shapes = (
{
closed = 1;
nodes = (
(270,571,l),
(346,571,l),
(346,740,l),
(269,740,l),
(275,792,o),
(348,860,o),
(504,894,o),
(632,894,qs),
(773,894,o),
(945,851,o),
(1022,763,o),
(1022,695,qs),
(1022,684,l),
(1221,684,l),
(1221,700,ls),
(1221,1059,o),
(638,1059,qs),
(344,1059,o),
(77,894,o),
(67,740,q),
(-11,740,l),
(-11,571,l),
(66,571,l),
(66,0,l),
(270,0,l)
);
}
);
userData = {
assembly = "NPUSHB[ ]	/* 57 values pushed */
0 3 1 0 1 3 0 128 8 1 7 0 7 134 0 2 0 4 1 2 4 105 5 1 1 3 0 1 87 5 1 1 1 0 95 6 1 0 1 0 79 0 0 0 24 0 24 17 19 36 18 34 17 17 9 6 29 
CALL[ ]	/* CallFunction */";
};
width = 335;
}
);
note = dvmI.a08;
},
{
glyphname = dvmI.a09;
layers = (
{
layerId = m01;
shapes = (
{
closed = 1;
nodes = (
(270,571,l),
(346,571,l),
(346,740,l),
(269,740,l),
(275,793,o),
(352,861,o),
(518,895,o),
(658,895,qs),
(813,895,o),
(997,851,o),
(1078,763,o),
(1078,692,qs),
(1078,682,l),
(1279,682,l),
(1279,697,ls),
(1279,870,o),
(993,1060,o),
(665,1060,qs),
(354,1060,o),
(77,896,o),
(67,740,q),
(-11,740,l),
(-11,571,l),
(66,571,l),
(66,0,l),
(270,0,l)
);
}
);
userData = {
assembly = "NPUSHB[ ]	/* 57 values pushed */
0 3 1 0 1 3 0 128 8 1 7 0 7 134 0 2 0 4 1 2 4 105 5 1 1 3 0 1 87 5 1 1 1 0 95 6 1 0 1 0 79 0 0 0 25 0 25 17 19 36 19 34 17 17 9 6 29 
CALL[ ]	/* CallFunction */";
};
width = 335;
}
);
note = dvmI.a09;
},
{
glyphname = dvmI.a10;
layers = (
{
layerId = m01;
shapes = (
{
closed = 1;
nodes = (
(270,571,l),
(346,571,l),
(346,740,l),
(269,740,l),
(275,794,o),
(356,862,o),
(534,896,o),
(686,896,qs),
(854,896,o),
(1051,852,o),
(1137,762,o),
(1137,690,qs),
(1137,680,l),
(1337,680,l),
(1337,695,ls),
(1337,871,o),
(1041,1061,o),
(693,1061,qs),
(470,1061,o),
(197,985,o),
(73,844,o),
(67,740,q),
(-11,740,l),
(-11,571,l),
(66,571,l),
(66,0,l),
(270,0,l)
);
}
);
userData = {
assembly = "NPUSHB[ ]	/* 57 values pushed */
0 3 1 0 1 3 0 128 8 1 7 0 7 134 0 2 0 4 1 2 4 105 5 1 1 3 0 1 87 5 1 1 1 0 95 6 1 0 1 0 79 0 0 0 26 0 26 17 19 36 19 35 17 17 9 6 29 
CALL[ ]	/* CallFunction */";
};
width = 335;
}
);
note = dvmI.a10;
},
{
glyphname = dvmI.a11;
layers = (
{
layerId = m01;
shapes = (
{
closed = 1;
nodes = (
(270,571,l),
(346,571,l),
(346,740,l),
(269,740,l),
(276,794,o),
(360,863,o),
(550,897,o),
(714,897,qs),
(895,897,o),
(1105,853,o),
(1196,762,o),
(1196,688,qs),
(1196,678,l),
(1396,678,l),
(1396,693,ls),
(1396,810,o),
(1270,973,o),
(971,1062,o),
(721,1062,qs),
(486,1062,o),
(202,987,o),
(74,845,o),
(67,740,q),
(-11,740,l),
(-11,571,l),
(66,571,l),
(66,0,l),
(270,0,l)
);
}
);
userData = {
assembly = "NPUSHB[ ]	/* 57 values pushed */
0 3 1 0 1 3 0 128 8 1 7 0 7 134 0 2 0 4 1 2 4 105 5 1 1 3 0 1 87 5 1 1 1 0 95 6 1 0 1 0 79 0 0 0 27 0 27 17 19 36 20 35 17 17 9 6 29 
CALL[ ]	/* CallFunction */";
};
width = 335;
}
);
note = dvmI.a11;
},
{
glyphname = dvmI.a12;
layers = (
{
layerId = m01;
shapes = (
{
closed = 1;
nodes = (
(270,571,l),
(346,571,l),
(346,740,l),
(269,740,l),
(276,795,o),
(364,863,o),
(566,898,o),
(741,898,qs),
(936,898,o),
(1160,853,o),
(1255,761,o),
(1255,686,qs),
(1255,677,l),
(1455,677,l),
(1455,691,ls),
(1455,810,o),
(1324,974,o),
(1013,1063,o),
(750,1063,qs),
(502,1063,o),
(206,988,o),
(74,847,o),
(67,740,q),
(-11,740,l),
(-11,571,l),
(66,571,l),
(66,0,l),
(270,0,l)
);
}
);
userData = {
assembly = "NPUSHB[ ]	/* 57 values pushed */
0 3 1 0 1 3 0 128 8 1 7 0 7 134 0 2 0 4 1 2 4 105 5 1 1 3 0 1 87 5 1 1 1 0 95 6 1 0 1 0 79 0 0 0 27 0 27 17 19 36 20 35 17 17 9 6 29 
CALL[ ]	/* CallFunction */";
};
width = 335;
}
);
note = dvmI.a12;
},
{
glyphname = dvmI.a13;
layers = (
{
layerId = m01;
shapes = (
{
closed = 1;
nodes = (
(270,571,l),
(346,571,l),
(346,740,l),
(269,740,l),
(276,795,o),
(368,864,o),
(581,899,o),
(768,899,qs),
(976,899,o),
(1213,854,o),
(1312,762,o),
(1312,685,qs),
(1312,675,l),
(1514,675,l),
(1514,689,ls),
(1514,810,o),
(1379,975,o),
(1055,1064,o),
(778,1064,qs),
(518,1064,o),
(210,990,o),
(74,848,o),
(67,740,q),
(-11,740,l),
(-11,571,l),
(66,571,l),
(66,0,l),
(270,0,l)
);
}
);
userData = {
assembly = "NPUSHB[ ]	/* 57 values pushed */
0 3 1 0 1 3 0 128 8 1 7 0 7 134 0 2 0 4 1 2 4 105 5 1 1 3 0 1 87 5 1 1 1 0 95 6 1 0 1 0 79 0 0 0 27 0 27 17 19 36 20 35 17 17 9 6 29 
CALL[ ]	/* CallFunction */";
};
width = 335;
}
);
note = dvmI.a13;
},
{
glyphname = dvmI.a14;
layers = (
{
layerId = m01;
shapes = (
{
closed = 1;
nodes = (
(270,571,l),
(346,571,l),
(346,740,l),
(270,740,l),
(277,796,o),
(373,865,o),
(598,900,o),
(796,900,qs),
(1017,900,o),
(1267,855,o),
(1371,761,o),
(1371,682,qs),
(1371,674,l),
(1572,673,l),
(1572,686,ls),
(1572,810,o),
(1433,976,o),
(1097,1065,o),
(807,1065,qs),
(534,1065,o),
(215,992,o),
(74,850,o),
(67,740,q),
(-11,740,l),
(-11,571,l),
(66,571,l),
(66,0,l),
(270,0,l)
);
}
);
userData = {
assembly = "NPUSHB[ ]	/* 57 values pushed */
0 3 1 0 1 3 0 128 8 1 7 0 7 134 0 2 0 4 1 2 4 105 5 1 1 3 0 1 87 5 1 1 1 0 95 6 1 0 1 0 79 0 0 0 27 0 27 17 19 36 20 35 17 17 9 6 29 
CALL[ ]	/* CallFunction */";
};
width = 335;
}
);
note = dvmI.a14;
},
{
glyphname = dvmI.a15;
layers = (
{
layerId = m01;
shapes = (
{
closed = 1;
nodes = (
(270,571,l),
(346,571,l),
(346,740,l),
(270,740,l),
(277,797,o),
(376,866,o),
(613,901,o),
(824,901,qs),
(1059,901,o),
(1321,856,o),
(1430,761,o),
(1430,680,qs),
(1430,672,l),
(1631,672,l),
(1631,685,ls),
(1631,810,o),
(1488,977,o),
(1138,1066,o),
(835,1066,qs),
(550,1066,o),
(218,993,o),
(74,851,o),
(67,740,q),
(-11,740,l),
(-11,571,l),
(66,571,l),
(66,0,l),
(270,0,l)
);
}
);
userData = {
assembly = "NPUSHB[ ]	/* 57 values pushed */
0 3 1 0 1 3 0 128 8 1 7 0 7 134 0 2 0 4 1 2 4 105 5 1 1 3 0 1 87 5 1 1 1 0 95 6 1 0 1 0 79 0 0 0 27 0 27 17 19 36 20 35 17 17 9 6 29 
CALL[ ]	/* CallFunction */";
};
width = 335;
}
);
note = dvmI.a15;
},
{
glyphname = dvmI.a16;
layers = (
{
layerId = m01;
shapes = (
{
closed = 1;
nodes = (
(270,571,l),
(346,571,l),
(346,740,l),
(270,740,l),
(277,798,o),
(381,868,o),
(629,902,o),
(851,902,qs),
(1100,902,o),
(1375,857,o),
(1487,761,o),
(1487,678,qs),
(1487,671,l),
(1690,671,l),
(1690,683,ls),
(1690,811,o),
(1543,978,o),
(1180,1067,o),
(863,1067,qs),
(566,1067,o),
(222,995,o),
(74,853,o),
(67,740,q),
(-11,740,l),
(-11,571,l),
(66,571,l),
(66,0,l),
(270,0,l)
);
}
);
userData = {
assembly = "NPUSHB[ ]	/* 57 values pushed */
0 3 1 0 1 3 0 128 8 1 7 0 7 134 0 2 0 4 1 2 4 105 5 1 1 3 0 1 87 5 1 1 1 0 95 6 1 0 1 0 79 0 0 0 27 0 27 17 19 36 20 35 17 17 9 6 29 
CALL[ ]	/* CallFunction */";
};
width = 335;
}
);
note = dvmI.a16;
},
{
glyphname = dvmI.a17;
layers = (
{
layerId = m01;
shapes = (
{
closed = 1;
nodes = (
(270,571,l),
(346,571,l),
(346,740,l),
(270,740,l),
(277,799,o),
(385,868,o),
(644,903,o),
(879,903,qs),
(1140,903,o),
(1429,857,o),
(1546,760,o),
(1546,676,qs),
(1546,669,l),
(1748,669,l),
(1748,681,ls),
(1748,811,o),
(1597,979,o),
(1221,1068,o),
(891,1068,qs),
(581,1068,o),
(226,996,o),
(74,854,o),
(67,740,q),
(-11,740,l),
(-11,571,l),
(66,571,l),
(66,0,l),
(270,0,l)
);
}
);
userData = {
assembly = "NPUSHB[ ]	/* 57 values pushed */
0 3 1 0 1 3 0 128 8 1 7 0 7 134 0 2 0 4 1 2 4 105 5 1 1 3 0 1 87 5 1 1 1 0 95 6 1 0 1 0 79 0 0 0 27 0 27 17 19 36 20 35 17 17 9 6 29 
CALL[ ]	/* CallFunction */";
};
width = 335;
}
);
note = dvmI.a17;
},
{
glyphname = dvmI.a18;
layers = (
{
layerId = m01;
shapes = (
{
closed = 1;
nodes = (
(270,571,l),
(346,571,l),
(346,740,l),
(270,740,l),
(278,799,o),
(389,869,o),
(660,904,o),
(907,904,qs),
(1182,904,o),
(1483,858,o),
(1605,759,o),
(1605,674,qs),
(1605,667,l),
(1806,667,l),
(1806,679,ls),
(1806,811,o),
(1652,980,o),
(1264,1069,o),
(920,1069,qs),
(598,1069,o),
(231,998,o),
(75,856,o),
(67,740,q),
(-11,740,l),
(-11,571,l),
(66,571,l),
(66,0,l),
(270,0,l)
);
}
);
userData = {
assembly = "NPUSHB[ ]	/* 57 values pushed */
0 3 1 0 1 3 0 128 8 1 7 0 7 134 0 2 0 4 1 2 4 105 5 1 1 3 0 1 87 5 1 1 1 0 95 6 1 0 1 0 79 0 0 0 27 0 27 17 19 36 20 35 17 17 9 6 29 
CALL[ ]	/* CallFunction */";
};
width = 335;
}
);
note = dvmI.a18;
},
{
glyphname = dvmI.a19;
layers = (
{
layerId = m01;
shapes = (
{
closed = 1;
nodes = (
(270,571,l),
(346,571,l),
(346,740,l),
(270,740,l),
(278,800,o),
(393,870,o),
(675,905,o),
(933,905,qs),
(1221,905,o),
(1536,859,o),
(1662,759,o),
(1662,672,qs),
(1662,665,l),
(1864,665,l),
(1864,677,ls),
(1864,811,o),
(1705,981,o),
(1304,1070,o),
(947,1070,qs),
(613,1070,o),
(235,999,o),
(75,857,o),
(67,740,q),
(-11,740,l),
(-11,571,l),
(66,571,l),
(66,0,l),
(270,0,l)
);
}
);
userData = {
assembly = "NPUSHB[ ]	/* 57 values pushed */
0 3 1 0 1 3 0 128 8 1 7 0 7 134 0 2 0 4 1 2 4 105 5 1 1 3 0 1 87 5 1 1 1 0 95 6 1 0 1 0 79 0 0 0 27 0 27 17 19 36 20 35 17 17 9 6 29 
CALL[ ]	/* CallFunction */";
};
width = 335;
}
);
note = dvmI.a19;
},
{
glyphname = dvmI.a20;
layers = (
{
layerId = m01;
shapes = (
{
closed = 1;
nodes = (
(270,571,l),
(346,571,l),
(346,740,l),
(270,740,l),
(279,800,o),
(398,871,o),
(691,906,o),
(960,906,qs),
(1263,906,o),
(1590,859,o),
(1720,758,o),
(1720,669,qs),
(1720,664,l),
(1923,664,l),
(1923,674,ls),
(1923,811,o),
(1760,982,o),
(1347,1071,o),
(976,1071,qs),
(629,1071,o),
(239,1001,o),
(75,858,o),
(67,740,q),
(-11,740,l),
(-11,571,l),
(66,571,l),
(66,0,l),
(270,0,l)
);
}
);
userData = {
assembly = "NPUSHB[ ]	/* 57 values pushed */
0 3 1 0 1 3 0 128 8 1 7 0 7 134 0 2 0 4 1 2 4 105 5 1 1 3 0 1 87 5 1 1 1 0 95 6 1 0 1 0 79 0 0 0 27 0 27 17 19 36 20 35 17 17 9 6 29 
CALL[ ]	/* CallFunction */";
};
width = 335;
}
);
note = dvmI.a20;
},
{
glyphname = dvmI.a21;
layers = (
{
layerId = m01;
shapes = (
{
closed = 1;
nodes = (
(270,571,l),
(346,571,l),
(346,740,l),
(270,740,l),
(279,801,o),
(401,871,o),
(706,906,o),
(988,906,qs),
(1304,906,o),
(1644,859,o),
(1779,758,o),
(1779,667,qs),
(1779,662,l),
(1981,662,l),
(1981,672,ls),
(1981,811,o),
(1814,983,o),
(1388,1072,o),
(1004,1072,qs),
(643,1072,o),
(242,1003,o),
(75,860,o),
(67,740,q),
(-11,740,l),
(-11,571,l),
(66,571,l),
(66,0,l),
(270,0,l)
);
}
);
userData = {
assembly = "NPUSHB[ ]	/* 57 values pushed */
0 3 1 0 1 3 0 128 8 1 7 0 7 134 0 2 0 4 1 2 4 105 5 1 1 3 0 1 87 5 1 1 1 0 95 6 1 0 1 0 79 0 0 0 27 0 27 17 19 36 20 35 17 17 9 6 29 
CALL[ ]	/* CallFunction */";
};
width = 335;
}
);
note = dvmI.a21;
},
{
glyphname = dvmI.a22;
layers = (
{
layerId = m01;
shapes = (
{
closed = 1;
nodes = (
(270,571,l),
(346,571,l),
(346,740,l),
(270,740,l),
(279,801,o),
(405,872,o),
(722,907,o),
(1016,907,qs),
(1345,907,o),
(1698,860,o),
(1838,757,o),
(1838,665,qs),
(1838,660,l),
(2040,660,l),
(2040,670,ls),
(2040,811,o),
(1869,984,o),
(1430,1073,o),
(1032,1073,qs),
(659,1073,o),
(246,1004,o),
(75,861,o),
(67,740,q),
(-11,740,l),
(-11,571,l),
(66,571,l),
(66,0,l),
(270,0,l)
);
}
);
userData = {
assembly = "NPUSHB[ ]	/* 57 values pushed */
0 3 1 0 1 3 0 128 8 1 7 0 7 134 0 2 0 4 1 2 4 105 5 1 1 3 0 1 87 5 1 1 1 0 95 6 1 0 1 0 79 0 0 0 27 0 27 17 19 36 20 35 17 17 9 6 29 
CALL[ ]	/* CallFunction */";
};
width = 335;
}
);
note = dvmI.a22;
},
{
glyphname = dvmI.a23;
layers = (
{
layerId = m01;
shapes = (
{
closed = 1;
nodes = (
(270,571,l),
(346,571,l),
(346,740,l),
(270,740,l),
(279,802,o),
(409,873,o),
(737,908,o),
(1043,908,qs),
(1387,908,o),
(1752,861,o),
(1895,757,o),
(1895,663,qs),
(1895,658,l),
(2099,658,l),
(2099,668,ls),
(2099,811,o),
(1924,985,o),
(1472,1074,o),
(1060,1074,qs),
(675,1074,o),
(251,1005,o),
(75,863,o),
(67,740,q),
(-11,740,l),
(-11,571,l),
(66,571,l),
(66,0,l),
(270,0,l)
);
}
);
userData = {
assembly = "NPUSHB[ ]	/* 57 values pushed */
0 3 1 0 1 3 0 128 8 1 7 0 7 134 0 2 0 4 1 2 4 105 5 1 1 3 0 1 87 5 1 1 1 0 95 6 1 0 1 0 79 0 0 0 27 0 27 17 19 36 20 35 17 17 9 6 29 
CALL[ ]	/* CallFunction */";
};
width = 335;
}
);
note = dvmI.a23;
},
{
glyphname = dvmI.a24;
layers = (
{
layerId = m01;
shapes = (
{
closed = 1;
nodes = (
(270,571,l),
(346,571,l),
(346,740,l),
(270,740,l),
(279,803,o),
(413,874,o),
(752,909,o),
(1071,909,qs),
(1428,909,o),
(1806,862,o),
(1954,756,o),
(1954,661,qs),
(1954,657,l),
(2157,657,l),
(2157,666,ls),
(2157,811,o),
(1978,986,o),
(1514,1075,o),
(1089,1075,qs),
(690,1075,o),
(254,1007,o),
(75,864,o),
(67,740,q),
(-11,740,l),
(-11,571,l),
(66,571,l),
(66,0,l),
(270,0,l)
);
}
);
userData = {
assembly = "NPUSHB[ ]	/* 57 values pushed */
0 3 1 0 1 3 0 128 8 1 7 0 7 134 0 2 0 4 1 2 4 105 5 1 1 3 0 1 87 5 1 1 1 0 95 6 1 0 1 0 79 0 0 0 27 0 27 17 19 36 20 35 17 17 9 6 29 
CALL[ ]	/* CallFunction */";
};
width = 335;
}
);
note = dvmI.a24;
},
{
glyphname = exclam;
layers = (
{
layerId = m01;
shapes = (
{
closed = 1;
nodes = (
(132,281,o),
(143,281,qs),
(313,281,ls),
(324,281,o),
(324,291,qs),
(348,745,ls),
(348,755,o),
(339,755,qs),
(117,755,ls),
(108,755,o),
(108,745,qs),
(132,291,ls)
);
},
{
closed = 1;
nodes = (
(355,149,o),
(285,212,o),
(228,212,qs),
(170,212,o),
(100,149,o),
(100,101,qs),
(100,54,o),
(170,-8,o),
(228,-8,qs),
(285,-8,o),
(355,54,o),
(355,101,qs)
);
}
);
userData = {
assembly = "NPUSHB[ ]	/* 26 values pushed */
0 0 0 1 3 0 1 103 0 3 3 2 97 0 2 2 35 2 78 36 35 51 49 4 8 26 
CALL[ ]	/* CallFunction */";
};
width = 455;
}
);
note = exclam;
unicode = 33;
},
{
glyphname = quotedbl;
layers = (
{
layerId = m01;
shapes = (
{
closed = 1;
nodes = (
(48,568,o),
(59,568,qs),
(187,568,ls),
(198,568,o),
(198,578,qs),
(209,793,ls),
(209,803,o),
(200,803,qs),
(45,803,ls),
(36,803,o),
(36,793,qs),
(48,578,ls)
);
},
{
closed = 1;
nodes = (
(293,568,o),
(304,568,qs),
(432,568,ls),
(443,568,o),
(443,578,qs),
(454,793,ls),
(454,803,o),
(445,803,qs),
(290,803,ls),
(281,803,o),
(281,793,qs),
(293,578,ls)
);
}
);
userData = {
assembly = "NPUSHB[ ]	/* 26 values pushed */
2 1 0 1 1 0 87 2 1 0 0 1 95 3 1 1 0 1 79 51 51 51 49 4 8 26 
CALL[ ]	/* CallFunction */";
};
width = 490;
}
);
note = quotedbl;
unicode = 34;
},
{
glyphname = numbersign;
layers = (
{
layerId = m01;
shapes = (
{
closed = 1;
nodes = (
(540,326,o),
(507,326,qs),
(439,326,ls),
(421,326,o),
(404,346,o),
(408,364,qs),
(413,390,ls),
(419,421,o),
(452,421,qs),
(520,421,ls),
(538,421,o),
(555,401,o),
(551,383,qs),
(546,357,ls)
);
},
{
closed = 1;
nodes = (
(469,0,o),
(480,0,qs),
(666,0,ls),
(676,0,o),
(677,9,qs),
(694,93,ls),
(700,124,o),
(733,124,qs),
(845,124,ls),
(855,124,o),
(855,134,qs),
(855,316,ls),
(855,326,o),
(845,326,qs),
(784,326,ls),
(766,326,o),
(749,346,o),
(753,364,qs),
(758,390,ls),
(764,421,o),
(797,421,qs),
(913,421,ls),
(923,421,o),
(923,431,qs),
(923,613,ls),
(923,623,o),
(913,623,qs),
(847,623,ls),
(829,623,o),
(812,643,o),
(816,661,qs),
(831,729,ls),
(833,740,o),
(822,740,qs),
(636,740,ls),
(627,740,o),
(625,731,qs),
(609,654,ls),
(603,623,o),
(570,623,qs),
(502,623,ls),
(484,623,o),
(467,643,o),
(471,661,qs),
(486,729,ls),
(488,740,o),
(477,740,qs),
(292,740,ls),
(283,740,o),
(281,731,qs),
(265,654,ls),
(259,623,o),
(226,623,qs),
(78,623,l),
(78,421,l),
(176,421,ls),
(194,421,o),
(211,401,o),
(207,383,qs),
(202,357,ls),
(196,326,o),
(163,326,qs),
(20,326,ls),
(10,326,o),
(10,316,qs),
(10,134,ls),
(10,124,o),
(20,124,qs),
(112,124,ls),
(130,124,o),
(147,104,o),
(143,86,qs),
(127,11,ls),
(125,0,o),
(136,0,qs),
(321,0,ls),
(331,0,o),
(332,9,qs),
(349,93,ls),
(355,124,o),
(388,124,qs),
(456,124,ls),
(474,124,o),
(491,104,o),
(487,86,qs),
(471,11,ls)
);
}
);
userData = {
assembly = "MPPEM[ ]	/* MeasurePixelPerEm */
PUSHB[ ]	/* 1 value pushed */
11 
LT[ ]	/* LessThan */
IF[ ]	/* If */
NPUSHB[ ]	/* 38 values pushed */
10 1 8 7 7 8 112 11 9 2 7 12 6 2 0 1 7 0 104 13 5 2 1 14 4 2 2 3 1 2 103 15 1 3 3 29 3 78 
ELSE[ ]	/* Else */
NPUSHB[ ]	/* 37 values pushed */
10 1 8 7 8 133 11 9 2 7 12 6 2 0 1 7 0 104 13 5 2 1 14 4 2 2 3 1 2 103 15 1 3 3 29 3 78 
EIF[ ]	/* EndIf */
NPUSHB[ ]	/* 26 values pushed */
98 95 92 89 86 83 79 76 73 70 66 63 60 57 51 33 36 51 52 51 52 52 50 16 8 31 
CALL[ ]	/* CallFunction */";
};
width = 933;
}
);
note = numbersign;
unicode = 35;
},
{
glyphname = dollar;
layers = (
{
layerId = m01;
shapes = (
{
closed = 1;
nodes = (
(361,-87,l),
(361,-7,l),
(448,-5,o),
(572,53,o),
(637,149,o),
(637,209,qs),
(637,279,o),
(566,367,o),
(469,412,o),
(394,435,qs),
(361,445,l),
(361,542,l),
(382,529,o),
(386,491,q),
(625,491,l),
(618,594,o),
(480,711,o),
(361,719,q),
(361,800,l),
(299,800,l),
(299,719,l),
(224,716,o),
(102,664,o),
(30,569,o),
(30,504,qs),
(30,429,o),
(105,338,o),
(205,294,o),
(283,273,qs),
(299,269,l),
(299,171,l),
(271,186,o),
(268,227,q),
(32,227,l),
(39,124,o),
(183,6,o),
(299,-5,q),
(299,-87,l)
);
},
{
closed = 1;
nodes = (
(400,170,o),
(361,162,q),
(361,248,l),
(400,230,o),
(400,204,qs)
);
},
{
closed = 1;
nodes = (
(268,544,o),
(299,550,q),
(299,470,l),
(268,488,o),
(268,514,qs)
);
}
);
userData = {
assembly = "NPUSHB[ ]	/* 62 values pushed */
45 25 2 4 1 44 39 26 7 4 0 4 40 6 0 3 5 0 3 76 0 0 4 5 4 0 5 128 0 2 0 6 2 6 99 0 4 4 1 97 3 1 1 1 34 77 0 5 5 35 5 78 17 27 18 17 17 27 19 7 8 29 
CALL[ ]	/* CallFunction */";
};
width = 665;
}
);
note = dollar;
unicode = 36;
},
{
glyphname = percent;
layers = (
{
layerId = m01;
shapes = (
{
closed = 1;
nodes = (
(21,452,o),
(121,360,o),
(202,360,qs),
(282,360,o),
(381,452,o),
(381,540,qs),
(381,628,o),
(282,721,o),
(202,721,qs),
(121,721,o),
(21,628,o),
(21,540,qs)
);
},
{
closed = 1;
nodes = (
(218,592,o),
(237,566,o),
(237,540,qs),
(237,515,o),
(218,489,o),
(200,489,qs),
(166,489,o),
(166,540,qs),
(166,592,o),
(200,592,qs)
);
},
{
closed = 1;
nodes = (
(177,0,l),
(389,0,l),
(762,711,l),
(550,711,l)
);
},
{
closed = 1;
nodes = (
(558,83,o),
(658,-10,o),
(738,-10,qs),
(819,-10,o),
(917,83,o),
(917,171,qs),
(917,259,o),
(819,352,o),
(738,352,qs),
(658,352,o),
(558,259,o),
(558,171,qs)
);
},
{
closed = 1;
nodes = (
(754,223,o),
(773,196,o),
(773,171,qs),
(773,145,o),
(754,119,o),
(737,119,qs),
(702,119,o),
(702,171,qs),
(702,223,o),
(737,223,qs)
);
}
);
userData = {
assembly = "MPPEM[ ]	/* MeasurePixelPerEm */
PUSHB[ ]	/* 1 value pushed */
24 
LT[ ]	/* LessThan */
IF[ ]	/* If */
NPUSHB[ ]	/* 42 values pushed */
0 2 0 1 6 2 1 105 0 6 12 1 9 8 6 9 106 10 1 3 3 0 97 11 5 2 0 0 34 77 0 8 8 4 97 7 1 4 4 29 4 78 
ELSE[ ]	/* Else */
NPUSHB[ ]	/* 50 values pushed */
0 2 0 1 6 2 1 105 0 6 12 1 9 8 6 9 106 11 1 5 5 28 77 10 1 3 3 0 97 0 0 0 34 77 0 4 4 29 77 0 8 8 7 97 0 7 7 35 7 78 
EIF[ ]	/* EndIf */
NPUSHB[ ]	/* 32 values pushed */
38 38 22 22 12 12 38 47 38 46 42 40 35 33 29 27 22 25 22 25 24 23 12 21 12 20 37 36 33 13 8 25 
CALL[ ]	/* CallFunction */";
};
width = 938;
}
);
note = percent;
unicode = 37;
},
{
glyphname = ampersand;
layers = (
{
layerId = m01;
shapes = (
{
closed = 1;
nodes = (
(598,524,o),
(598,534,qs),
(595,584,o),
(540,669,o),
(434,721,o),
(359,721,qs),
(283,721,o),
(173,668,o),
(116,578,o),
(116,524,qs),
(116,461,o),
(162,404,q),
(100,370,o),
(36,268,o),
(36,207,qs),
(36,143,o),
(104,44,o),
(231,-10,o),
(317,-10,qs),
(444,-10,o),
(538,46,q),
(582,5,ls),
(587,0,o),
(594,0,qs),
(813,0,ls),
(820,0,o),
(823,7,o),
(818,12,qs),
(664,162,l),
(720,240,o),
(758,340,qs),
(764,354,ls),
(766,359,o),
(761,366,o),
(756,366,qs),
(562,366,ls),
(553,366,o),
(550,358,q),
(550,357,l),
(539,323,o),
(525,296,q),
(364,452,ls),
(320,494,o),
(320,526,qs),
(320,543,o),
(343,562,o),
(359,562,qs),
(372,562,o),
(392,548,o),
(395,534,qs),
(396,524,o),
(406,524,qs),
(588,524,ls)
);
},
{
closed = 1;
nodes = (
(293,165,o),
(248,201,o),
(248,227,qs),
(248,243,o),
(265,274,o),
(282,286,q),
(400,176,l),
(369,165,o),
(333,165,qs)
);
}
);
userData = {
assembly = "NPUSHB[ ]	/* 17 values pushed */
40 1 2 0 55 54 11 3 6 2 31 23 2 3 6 3 76 
MPPEM[ ]	/* MeasurePixelPerEm */
PUSHB[ ]	/* 1 value pushed */
24 
LT[ ]	/* LessThan */
IF[ ]	/* If */
NPUSHB[ ]	/* 42 values pushed */
0 1 5 0 0 1 114 7 1 0 0 5 98 0 5 5 34 77 0 2 2 3 97 4 1 3 3 29 77 8 1 6 6 3 97 4 1 3 3 29 3 78 
ELSE[ ]	/* Else */
MPPEM[ ]	/* MeasurePixelPerEm */
PUSHB[ ]	/* 1 value pushed */
33 
LT[ ]	/* LessThan */
IF[ ]	/* If */
NPUSHB[ ]	/* 40 values pushed */
0 1 5 0 0 1 114 7 1 0 0 5 98 0 5 5 34 77 0 2 2 3 95 0 3 3 29 77 8 1 6 6 4 97 0 4 4 35 4 78 
ELSE[ ]	/* Else */
NPUSHB[ ]	/* 41 values pushed */
0 1 5 0 5 1 0 128 7 1 0 0 5 98 0 5 5 34 77 0 2 2 3 95 0 3 3 29 77 8 1 6 6 4 97 0 4 4 35 4 78 
EIF[ ]	/* EndIf */
EIF[ ]	/* EndIf */
NPUSHB[ ]	/* 25 values pushed */
53 53 1 0 53 61 53 60 47 45 34 32 28 26 17 15 6 4 0 52 1 51 9 8 22 
CALL[ ]	/* CallFunction */";
};
width = 831;
}
);
note = ampersand;
unicode = 38;
},
{
glyphname = quotesingle;
layers = (
{
layerId = m01;
shapes = (
{
closed = 1;
nodes = (
(58,568,o),
(69,568,qs),
(197,568,ls),
(208,568,o),
(208,578,qs),
(219,793,ls),
(219,803,o),
(210,803,qs),
(55,803,ls),
(46,803,o),
(46,793,qs),
(58,578,ls)
);
}
);
userData = {
assembly = "NPUSHB[ ]	/* 21 values pushed */
0 0 1 1 0 87 0 0 0 1 95 0 1 0 1 79 51 49 2 8 24 
CALL[ ]	/* CallFunction */";
};
width = 265;
}
);
note = quotesingle;
unicode = 39;
},
{
glyphname = parenleft;
layers = (
{
layerId = m01;
shapes = (
{
closed = 1;
nodes = (
(425,-209,l),
(328,-107,o),
(216,180,o),
(216,333,qs),
(216,485,o),
(328,772,o),
(425,874,q),
(425,895,l),
(211,895,l),
(115,804,o),
(4,506,o),
(4,333,qs),
(4,160,o),
(115,-138,o),
(211,-229,q),
(425,-229,l)
);
}
);
userData = {
assembly = "NPUSHB[ ]	/* 34 values pushed */
14 8 2 1 0 1 76 0 0 1 1 0 87 0 0 0 1 95 2 1 1 0 1 79 0 0 0 15 0 15 22 3 8 23 
CALL[ ]	/* CallFunction */";
};
width = 463;
}
);
note = parenleft;
unicode = 40;
},
{
glyphname = parenright;
layers = (
{
layerId = m01;
shapes = (
{
closed = 1;
nodes = (
(38,-209,l),
(135,-107,o),
(247,180,o),
(247,333,qs),
(247,485,o),
(135,772,o),
(38,874,q),
(38,895,l),
(252,895,l),
(348,804,o),
(459,506,o),
(459,333,qs),
(459,160,o),
(348,-138,o),
(252,-229,q),
(38,-229,l)
);
}
);
userData = {
assembly = "NPUSHB[ ]	/* 34 values pushed */
14 8 2 1 0 1 76 0 0 1 1 0 87 0 0 0 1 95 2 1 1 0 1 79 0 0 0 15 0 15 22 3 8 23 
CALL[ ]	/* CallFunction */";
};
width = 463;
}
);
note = parenright;
unicode = 41;
},
{
glyphname = asterisk;
layers = (
{
layerId = m01;
shapes = (
{
closed = 1;
nodes = (
(356,744,o),
(345,744,qs),
(226,744,ls),
(221,744,o),
(216,738,o),
(217,733,qs),
(234,668,ls),
(238,654,o),
(223,645,o),
(212,655,qs),
(161,700,ls),
(157,704,o),
(149,703,o),
(147,698,q),
(91,597,ls),
(89,593,o),
(92,586,o),
(97,584,qs),
(154,567,ls),
(168,563,o),
(168,547,o),
(154,542,qs),
(95,522,ls),
(85,519,o),
(90,509,qs),
(153,400,l),
(155,395,o),
(163,394,o),
(167,398,qs),
(211,443,ls),
(222,454,o),
(237,446,o),
(233,431,qs),
(219,371,ls),
(216,360,o),
(227,360,qs),
(344,360,ls),
(349,360,o),
(354,366,o),
(352,371,q),
(338,432,ls),
(335,446,o),
(350,455,o),
(360,445,qs),
(406,399,ls),
(410,395,o),
(418,396,o),
(420,401,q),
(481,508,ls),
(486,518,o),
(476,521,qs),
(417,540,ls),
(404,545,o),
(404,561,o),
(417,565,qs),
(476,585,ls),
(481,587,o),
(484,594,o),
(482,598,qs),
(425,699,ls),
(420,709,o),
(412,701,qs),
(359,654,ls),
(348,644,o),
(333,653,o),
(337,667,qs),
(353,733,ls)
);
}
);
userData = {
assembly = "NPUSHB[ ]	/* 31 values pushed */
60 26 7 3 0 1 1 76 0 1 0 0 1 87 0 1 1 0 95 0 0 1 0 79 65 62 31 28 2 8 22 
CALL[ ]	/* CallFunction */";
};
width = 561;
}
);
note = asterisk;
unicode = 42;
},
{
glyphname = plus;
layers = (
{
layerId = m01;
shapes = (
{
closed = 1;
nodes = (
(169,595,o),
(169,585,qs),
(169,466,ls),
(169,441,o),
(144,441,qs),
(30,441,ls),
(20,441,o),
(20,431,qs),
(20,248,ls),
(20,238,o),
(30,238,qs),
(144,238,ls),
(169,238,o),
(169,213,qs),
(169,95,ls),
(169,85,o),
(179,85,qs),
(372,85,ls),
(382,85,o),
(382,95,qs),
(382,213,ls),
(382,238,o),
(407,238,qs),
(521,238,ls),
(531,238,o),
(531,248,qs),
(531,431,ls),
(531,441,o),
(521,441,qs),
(407,441,ls),
(382,441,o),
(382,466,qs),
(382,585,ls),
(382,595,o),
(372,595,qs),
(179,595,ls)
);
}
);
userData = {
assembly = "NPUSHB[ ]	/* 47 values pushed */
6 1 0 1 3 0 87 5 1 1 4 1 2 3 1 2 103 6 1 0 0 3 95 0 3 0 3 79 1 0 31 28 25 22 19 16 13 10 7 4 0 35 1 34 7 8 22 
CALL[ ]	/* CallFunction */";
};
width = 551;
}
);
note = plus;
unicode = 43;
},
{
glyphname = comma;
layers = (
{
layerId = m01;
shapes = (
{
closed = 1;
nodes = (
(33,-155,o),
(39,-161,o),
(43,-161,qs),
(169,-161,ls),
(178,-161,o),
(181,-153,qs),
(306,194,l),
(309,205,o),
(298,205,qs),
(99,205,ls),
(91,205,o),
(89,196,qs),
(34,-150,ls)
);
}
);
userData = {
assembly = "NPUSHB[ ]	/* 21 values pushed */
0 0 1 1 0 87 0 0 0 1 95 0 1 0 1 79 35 49 2 8 24 
CALL[ ]	/* CallFunction */";
};
width = 348;
}
);
note = comma;
unicode = 44;
},
{
glyphname = hyphen;
layers = (
{
layerId = m01;
shapes = (
{
closed = 1;
nodes = (
(46,270,o),
(56,270,qs),
(450,270,ls),
(460,270,o),
(460,280,qs),
(460,403,ls),
(460,413,o),
(450,413,qs),
(56,413,ls),
(46,413,o),
(46,403,qs),
(46,280,ls)
);
}
);
userData = {
assembly = "NPUSHB[ ]	/* 21 values pushed */
0 0 1 1 0 87 0 0 0 1 95 0 1 0 1 79 51 49 2 8 24 
CALL[ ]	/* CallFunction */";
};
width = 576;
}
);
note = hyphen;
unicode = 45;
},
{
glyphname = period;
layers = (
{
layerId = m01;
shapes = (
{
closed = 1;
nodes = (
(287,149,o),
(217,212,o),
(160,212,qs),
(102,212,o),
(32,149,o),
(32,101,qs),
(32,54,o),
(102,-8,o),
(160,-8,qs),
(217,-8,o),
(287,54,o),
(287,101,qs)
);
}
);
userData = {
assembly = "NPUSHB[ ]	/* 16 values pushed */
0 1 1 0 97 0 0 0 35 0 78 36 33 2 8 24 
CALL[ ]	/* CallFunction */";
};
width = 319;
}
);
note = period;
unicode = 46;
},
{
glyphname = slash;
layers = (
{
layerId = m01;
shapes = (
{
closed = 1;
nodes = (
(-35,-198,o),
(-25,-198,qs),
(168,-198,ls),
(177,-198,o),
(179,-189,qs),
(439,944,ls),
(441,955,o),
(431,955,qs),
(239,955,ls),
(230,955,o),
(228,946,qs),
(-33,-187,ls)
);
}
);
userData = {
assembly = "NPUSHB[ ]	/* 14 values pushed */
0 0 1 0 133 0 1 1 118 51 49 2 8 24 
CALL[ ]	/* CallFunction */";
};
width = 399;
}
);
note = slash;
unicode = 47;
},
{
glyphname = zero;
layers = (
{
layerId = m01;
shapes = (
{
closed = 1;
nodes = (
(32,203,o),
(179,4,o),
(332,4,qs),
(484,4,o),
(632,203,o),
(632,376,qs),
(632,548,o),
(484,747,o),
(332,747,qs),
(179,747,o),
(32,549,o),
(32,376,qs)
);
},
{
closed = 1;
nodes = (
(413,295,o),
(381,214,o),
(332,214,qs),
(282,214,o),
(250,295,o),
(250,376,qs),
(250,456,o),
(282,537,o),
(332,537,qs),
(381,537,o),
(413,456,o),
(413,376,qs)
);
}
);
userData = {
assembly = "NPUSHB[ ]	/* 26 values pushed */
0 0 0 2 3 0 2 105 0 3 3 1 97 0 1 1 29 1 78 36 36 36 33 4 8 26 
CALL[ ]	/* CallFunction */";
};
width = 662;
}
);
note = zero;
unicode = 48;
},
{
glyphname = one;
layers = (
{
layerId = m01;
shapes = (
{
closed = 1;
nodes = (
(349,0,l),
(349,686,ls),
(349,708,o),
(326,731,o),
(304,731,qs),
(58,731,l),
(10,523,l),
(71,523,ls),
(93,523,o),
(116,500,o),
(116,478,qs),
(116,0,l)
);
}
);
userData = {
assembly = "MPPEM[ ]	/* MeasurePixelPerEm */
PUSHB[ ]	/* 1 value pushed */
22 
LT[ ]	/* LessThan */
IF[ ]	/* If */
NPUSHB[ ]	/* 16 values pushed */
0 0 0 1 95 0 1 1 28 77 0 2 2 29 2 78 
ELSE[ ]	/* Else */
NPUSHB[ ]	/* 14 values pushed */
0 1 0 0 2 1 0 105 0 2 2 29 2 78 
EIF[ ]	/* EndIf */
PUSHB[ ]	/* 6 values pushed */
19 33 34 3 8 25 
CALL[ ]	/* CallFunction */";
};
width = 399;
}
);
note = one;
unicode = 49;
},
{
glyphname = two;
layers = (
{
layerId = m01;
shapes = (
{
closed = 1;
nodes = (
(535,10,ls),
(545,10,o),
(545,20,qs),
(545,144,ls),
(545,166,o),
(522,189,o),
(500,189,qs),
(316,189,l),
(413,250,o),
(542,427,o),
(542,528,qs),
(542,624,o),
(423,747,o),
(295,747,qs),
(184,747,o),
(33,620,o),
(25,488,qs),
(25,478,o),
(35,478,qs),
(197,478,ls),
(217,478,o),
(237,500,o),
(243,523,qs),
(251,561,o),
(280,561,qs),
(297,561,o),
(318,535,o),
(318,511,qs),
(318,440,o),
(162,277,o),
(28,177,q),
(28,10,l)
);
}
);
userData = {
assembly = "PUSHB[ ]	/* 6 values pushed */
0 1 4 3 1 76 
MPPEM[ ]	/* MeasurePixelPerEm */
PUSHB[ ]	/* 1 value pushed */
15 
LT[ ]	/* LessThan */
IF[ ]	/* If */
NPUSHB[ ]	/* 26 values pushed */
0 1 0 3 0 1 114 0 2 0 0 1 2 0 105 0 3 3 4 95 0 4 4 29 4 78 
ELSE[ ]	/* Else */
MPPEM[ ]	/* MeasurePixelPerEm */
PUSHB[ ]	/* 1 value pushed */
50 
LT[ ]	/* LessThan */
IF[ ]	/* If */
NPUSHB[ ]	/* 27 values pushed */
0 1 0 3 0 1 3 128 0 2 0 0 1 2 0 105 0 3 3 4 95 0 4 4 29 4 78 
ELSE[ ]	/* Else */
NPUSHB[ ]	/* 32 values pushed */
0 1 0 3 0 1 3 128 0 2 0 0 1 2 0 105 0 3 4 4 3 87 0 3 3 4 95 0 4 3 4 79 
EIF[ ]	/* EndIf */
EIF[ ]	/* EndIf */
PUSHB[ ]	/* 8 values pushed */
36 37 35 51 37 5 8 27 
CALL[ ]	/* CallFunction */";
};
width = 566;
}
);
note = two;
unicode = 50;
},
{
glyphname = three;
layers = (
{
layerId = m01;
shapes = (
{
closed = 1;
nodes = (
(239,502,o),
(258,521,o),
(267,543,qs),
(276,564,o),
(298,564,qs),
(314,564,o),
(335,540,o),
(335,515,qs),
(335,457,o),
(267,461,qs),
(256,461,ls),
(231,461,o),
(231,436,qs),
(231,307,ls),
(231,282,o),
(256,282,qs),
(268,282,ls),
(312,282,o),
(349,253,o),
(349,225,qs),
(349,203,o),
(325,176,o),
(307,176,qs),
(268,176,o),
(257,207,qs),
(250,229,o),
(231,249,o),
(211,249,qs),
(47,249,ls),
(37,249,o),
(37,239,qs),
(42,112,o),
(190,-7,o),
(317,-7,qs),
(393,-7,o),
(504,47,o),
(564,145,o),
(564,209,qs),
(564,322,o),
(462,368,qs),
(451,373,o),
(451,382,o),
(462,387,qs),
(499,405,o),
(551,482,o),
(551,543,qs),
(551,601,o),
(494,693,o),
(382,747,o),
(303,747,qs),
(184,747,o),
(51,627,o),
(45,512,qs),
(45,502,o),
(55,502,qs),
(220,502,ls)
);
}
);
userData = {
assembly = "MPPEM[ ]	/* MeasurePixelPerEm */
PUSHB[ ]	/* 1 value pushed */
17 
LT[ ]	/* LessThan */
IF[ ]	/* If */
NPUSHB[ ]	/* 42 values pushed */
8 1 0 7 6 7 0 114 0 3 5 4 4 3 114 0 1 0 7 0 1 7 105 0 6 0 5 3 6 5 105 0 4 4 2 98 0 2 2 35 2 78 
ELSE[ ]	/* Else */
MPPEM[ ]	/* MeasurePixelPerEm */
PUSHB[ ]	/* 1 value pushed */
20 
LT[ ]	/* LessThan */
IF[ ]	/* If */
NPUSHB[ ]	/* 43 values pushed */
8 1 0 7 6 7 0 114 0 3 5 4 5 3 4 128 0 1 0 7 0 1 7 105 0 6 0 5 3 6 5 105 0 4 4 2 98 0 2 2 35 2 78 
ELSE[ ]	/* Else */
NPUSHB[ ]	/* 44 values pushed */
8 1 0 7 6 7 0 6 128 0 3 5 4 5 3 4 128 0 1 0 7 0 1 7 105 0 6 0 5 3 6 5 105 0 4 4 2 98 0 2 2 35 2 78 
EIF[ ]	/* EndIf */
EIF[ ]	/* EndIf */
NPUSHB[ ]	/* 23 values pushed */
1 0 51 49 46 43 40 37 33 31 28 25 22 20 6 4 0 55 1 54 9 8 22 
CALL[ ]	/* CallFunction */";
};
width = 615;
}
);
note = three;
unicode = 51;
},
{
glyphname = four;
layers = (
{
layerId = m01;
shapes = (
{
closed = 1;
nodes = (
(365,10,ls),
(365,0,o),
(375,0,qs),
(579,0,ls),
(589,0,o),
(589,10,qs),
(589,110,l),
(651,110,ls),
(661,110,o),
(661,120,qs),
(661,292,ls),
(661,302,o),
(651,302,qs),
(634,302,ls),
(612,302,o),
(589,325,o),
(589,347,qs),
(589,710,ls),
(589,720,o),
(579,720,qs),
(350,720,l),
(52,295,l),
(52,110,l),
(365,110,l)
);
},
{
closed = 1;
nodes = (
(275,302,l),
(383,467,l),
(383,302,l)
);
}
);
userData = {
assembly = "NPUSHB[ ]	/* 10 values pushed */
24 1 1 0 1 1 2 1 2 76 
MPPEM[ ]	/* MeasurePixelPerEm */
PUSHB[ ]	/* 1 value pushed */
41 
LT[ ]	/* LessThan */
IF[ ]	/* If */
NPUSHB[ ]	/* 22 values pushed */
5 1 1 6 4 2 2 3 1 2 106 0 0 0 28 77 0 3 3 29 3 78 
ELSE[ ]	/* Else */
NPUSHB[ ]	/* 22 values pushed */
0 0 1 0 133 5 1 1 6 4 2 2 3 1 2 106 0 3 3 29 3 78 
EIF[ ]	/* EndIf */
NPUSHB[ ]	/* 15 values pushed */
0 0 26 25 0 23 0 23 50 35 52 34 7 8 26 
CALL[ ]	/* CallFunction */";
};
width = 704;
}
);
note = four;
unicode = 52;
},
{
glyphname = five;
layers = (
{
layerId = m01;
shapes = (
{
closed = 1;
nodes = (
(94,731,o),
(94,721,qs),
(94,283,l),
(310,283,l),
(310,296,o),
(332,316,o),
(353,316,qs),
(378,316,o),
(405,286,o),
(405,257,qs),
(405,226,o),
(381,190,o),
(356,190,qs),
(335,190,o),
(313,211,o),
(310,225,qs),
(309,234,o),
(300,234,qs),
(103,234,ls),
(93,234,o),
(93,224,qs),
(94,158,o),
(160,57,o),
(283,0,o),
(367,0,qs),
(485,0,o),
(620,133,o),
(620,253,qs),
(620,318,o),
(574,425,o),
(480,489,o),
(412,489,qs),
(374,489,o),
(313,469,o),
(294,452,q),
(294,526,ls),
(294,536,o),
(304,536,qs),
(539,536,ls),
(561,536,o),
(584,559,o),
(584,581,qs),
(584,721,ls),
(584,731,o),
(574,731,qs),
(104,731,ls)
);
}
);
userData = {
assembly = "PUSHB[ ]	/* 6 values pushed */
10 1 6 2 1 76 
MPPEM[ ]	/* MeasurePixelPerEm */
PUSHB[ ]	/* 1 value pushed */
22 
LT[ ]	/* LessThan */
IF[ ]	/* If */
NPUSHB[ ]	/* 50 values pushed */
0 2 1 6 1 2 6 128 0 6 7 1 6 7 126 0 7 4 1 7 4 126 0 4 5 5 4 112 0 1 1 0 95 8 1 0 0 28 77 0 5 5 3 98 0 3 3 29 3 78 
ELSE[ ]	/* Else */
MPPEM[ ]	/* MeasurePixelPerEm */
PUSHB[ ]	/* 1 value pushed */
29 
LT[ ]	/* LessThan */
IF[ ]	/* If */
NPUSHB[ ]	/* 48 values pushed */
0 2 1 6 1 2 6 128 0 6 7 1 6 7 126 0 7 4 1 7 4 126 0 4 5 5 4 112 8 1 0 0 1 2 0 1 103 0 5 5 3 98 0 3 3 29 3 78 
ELSE[ ]	/* Else */
NPUSHB[ ]	/* 49 values pushed */
0 2 1 6 1 2 6 128 0 6 7 1 6 7 126 0 7 4 1 7 4 126 0 4 5 1 4 5 126 8 1 0 0 1 2 0 1 103 0 5 5 3 98 0 3 3 29 3 78 
EIF[ ]	/* EndIf */
EIF[ ]	/* EndIf */
NPUSHB[ ]	/* 23 values pushed */
1 0 42 41 39 37 33 31 28 25 21 19 14 12 8 5 0 45 1 44 9 8 22 
CALL[ ]	/* CallFunction */";
};
width = 660;
}
);
note = five;
unicode = 53;
},
{
glyphname = six;
layers = (
{
layerId = m01;
shapes = (
{
closed = 1;
nodes = (
(567,509,o),
(572,515,o),
(571,519,q),
(563,615,o),
(442,744,o),
(326,744,qs),
(229,744,o),
(108,664,o),
(52,496,o),
(52,360,qs),
(52,186,o),
(174,-7,o),
(331,-7,qs),
(410,-7,o),
(526,53,o),
(589,164,o),
(589,239,qs),
(589,351,o),
(474,469,o),
(378,469,qs),
(335,469,o),
(267,437,o),
(249,409,q),
(249,490,o),
(274,567,o),
(312,567,qs),
(340,567,o),
(353,546,qs),
(365,526,o),
(386,509,o),
(404,509,qs),
(562,509,ls)
);
},
{
closed = 1;
nodes = (
(350,299,o),
(382,269,o),
(382,242,qs),
(382,212,o),
(351,183,o),
(323,183,qs),
(295,183,o),
(264,212,o),
(264,242,qs),
(264,269,o),
(296,299,o),
(323,299,qs)
);
}
);
userData = {
assembly = "PUSHB[ ]	/* 6 values pushed */
8 1 6 2 1 76 
MPPEM[ ]	/* MeasurePixelPerEm */
PUSHB[ ]	/* 1 value pushed */
13 
LT[ ]	/* LessThan */
IF[ ]	/* If */
NPUSHB[ ]	/* 38 values pushed */
7 1 0 1 2 1 0 114 0 2 8 1 6 5 2 6 105 0 1 1 4 97 0 4 4 34 77 0 5 5 3 97 0 3 3 35 3 78 
ELSE[ ]	/* Else */
MPPEM[ ]	/* MeasurePixelPerEm */
PUSHB[ ]	/* 1 value pushed */
15 
LT[ ]	/* LessThan */
IF[ ]	/* If */
NPUSHB[ ]	/* 36 values pushed */
7 1 0 1 2 1 0 114 0 4 0 1 0 4 1 105 0 2 8 1 6 5 2 6 105 0 5 5 3 97 0 3 3 35 3 78 
ELSE[ ]	/* Else */
MPPEM[ ]	/* MeasurePixelPerEm */
PUSHB[ ]	/* 1 value pushed */
20 
LT[ ]	/* LessThan */
IF[ ]	/* If */
NPUSHB[ ]	/* 38 values pushed */
7 1 0 1 2 1 0 114 0 2 8 1 6 5 2 6 105 0 1 1 4 97 0 4 4 34 77 0 5 5 3 97 0 3 3 35 3 78 
ELSE[ ]	/* Else */
MPPEM[ ]	/* MeasurePixelPerEm */
PUSHB[ ]	/* 1 value pushed */
22 
LT[ ]	/* LessThan */
IF[ ]	/* If */
NPUSHB[ ]	/* 36 values pushed */
7 1 0 1 2 1 0 114 0 4 0 1 0 4 1 105 0 2 8 1 6 5 2 6 105 0 5 5 3 97 0 3 3 35 3 78 
ELSE[ ]	/* Else */
NPUSHB[ ]	/* 37 values pushed */
7 1 0 1 2 1 0 2 128 0 4 0 1 0 4 1 105 0 2 8 1 6 5 2 6 105 0 5 5 3 97 0 3 3 35 3 78 
EIF[ ]	/* EndIf */
EIF[ ]	/* EndIf */
EIF[ ]	/* EndIf */
EIF[ ]	/* EndIf */
NPUSHB[ ]	/* 25 values pushed */
32 32 1 0 32 43 32 42 38 36 26 24 19 17 12 10 6 4 0 31 1 30 9 8 22 
CALL[ ]	/* CallFunction */";
};
width = 633;
}
);
note = six;
unicode = 54;
},
{
glyphname = seven;
layers = (
{
layerId = m01;
shapes = (
{
closed = 1;
nodes = (
(18,731,o),
(18,721,qs),
(18,586,ls),
(18,564,o),
(41,541,o),
(63,541,qs),
(219,541,ls),
(245,541,o),
(264,513,o),
(254,489,qs),
(51,12,ls),
(49,7,o),
(54,0,o),
(59,0,qs),
(266,0,ls),
(274,0,o),
(277,8,qs),
(502,568,l),
(502,686,ls),
(502,708,o),
(479,731,o),
(457,731,qs),
(28,731,ls)
);
}
);
userData = {
assembly = "PUSHB[ ]	/* 6 values pushed */
4 1 2 0 1 76 
MPPEM[ ]	/* MeasurePixelPerEm */
PUSHB[ ]	/* 1 value pushed */
22 
LT[ ]	/* LessThan */
IF[ ]	/* If */
NPUSHB[ ]	/* 17 values pushed */
0 2 2 0 95 3 1 0 0 28 77 0 1 1 29 1 78 
ELSE[ ]	/* Else */
NPUSHB[ ]	/* 15 values pushed */
3 1 0 0 2 1 0 2 103 0 1 1 29 1 78 
EIF[ ]	/* EndIf */
NPUSHB[ ]	/* 13 values pushed */
1 0 17 14 8 6 0 22 1 21 4 8 22 
CALL[ ]	/* CallFunction */";
};
width = 512;
}
);
note = seven;
unicode = 55;
},
{
glyphname = eight;
layers = (
{
layerId = m01;
shapes = (
{
closed = 1;
nodes = (
(48,343,o),
(48,225,qs),
(48,149,o),
(124,43,o),
(252,-11,o),
(328,-11,qs),
(404,-11,o),
(532,43,o),
(608,149,o),
(608,225,qs),
(608,343,o),
(507,402,q),
(547,425,o),
(592,500,o),
(592,552,qs),
(592,606,o),
(534,694,o),
(415,747,o),
(328,747,qs),
(241,747,o),
(122,694,o),
(64,606,o),
(64,552,qs),
(64,500,o),
(109,425,o),
(149,402,q)
);
},
{
closed = 1;
nodes = (
(308,456,o),
(282,486,o),
(282,515,qs),
(282,543,o),
(308,576,o),
(328,576,qs),
(348,576,o),
(374,543,o),
(374,515,qs),
(374,486,o),
(348,456,o),
(328,456,qs)
);
},
{
closed = 1;
nodes = (
(358,307,o),
(393,268,o),
(393,238,qs),
(393,208,o),
(359,170,o),
(328,170,qs),
(297,170,o),
(263,208,o),
(263,238,qs),
(263,268,o),
(298,307,o),
(328,307,qs)
);
}
);
userData = {
assembly = "NPUSHB[ ]	/* 56 values pushed */
25 13 2 5 3 1 76 0 0 0 2 3 0 2 105 6 1 3 7 1 5 4 3 5 105 0 4 4 1 97 0 1 1 35 1 78 38 38 26 26 38 49 38 48 44 42 26 37 26 36 42 43 37 8 8 25 
CALL[ ]	/* CallFunction */";
};
width = 657;
}
);
note = eight;
unicode = 56;
},
{
glyphname = nine;
layers = (
{
layerId = m01;
shapes = (
{
closed = 1;
nodes = (
(52,228,o),
(47,222,o),
(48,218,q),
(54,158,o),
(116,56,o),
(228,-7,o),
(305,-7,qs),
(448,-7,o),
(569,191,o),
(569,389,qs),
(569,561,o),
(446,747,o),
(288,747,qs),
(210,747,o),
(93,687,o),
(30,576,o),
(30,501,qs),
(30,388,o),
(146,268,o),
(241,268,qs),
(284,268,o),
(352,300,o),
(370,328,q),
(370,245,o),
(347,170,o),
(310,170,qs),
(280,170,o),
(267,192,qs),
(254,212,o),
(233,228,o),
(215,228,qs),
(57,228,ls)
);
},
{
closed = 1;
nodes = (
(269,438,o),
(237,468,o),
(237,495,qs),
(237,525,o),
(268,554,o),
(296,554,qs),
(324,554,o),
(355,525,o),
(355,495,qs),
(355,468,o),
(323,438,o),
(296,438,qs)
);
}
);
userData = {
assembly = "PUSHB[ ]	/* 6 values pushed */
8 1 2 6 1 76 
MPPEM[ ]	/* MeasurePixelPerEm */
PUSHB[ ]	/* 1 value pushed */
22 
LT[ ]	/* LessThan */
IF[ ]	/* If */
NPUSHB[ ]	/* 36 values pushed */
7 1 0 2 1 1 0 114 0 3 0 5 6 3 5 105 8 1 6 0 2 0 6 2 105 0 1 1 4 98 0 4 4 35 4 78 
ELSE[ ]	/* Else */
NPUSHB[ ]	/* 37 values pushed */
7 1 0 2 1 2 0 1 128 0 3 0 5 6 3 5 105 8 1 6 0 2 0 6 2 105 0 1 1 4 98 0 4 4 35 4 78 
EIF[ ]	/* EndIf */
NPUSHB[ ]	/* 25 values pushed */
32 32 1 0 32 43 32 42 38 36 25 23 19 17 12 10 6 4 0 31 1 30 9 8 22 
CALL[ ]	/* CallFunction */";
};
width = 597;
}
);
note = nine;
unicode = 57;
},
{
glyphname = colon;
layers = (
{
layerId = m01;
shapes = (
{
closed = 1;
nodes = (
(287,149,o),
(217,212,o),
(160,212,qs),
(102,212,o),
(32,149,o),
(32,101,qs),
(32,54,o),
(102,-8,o),
(160,-8,qs),
(217,-8,o),
(287,54,o),
(287,101,qs)
);
},
{
closed = 1;
nodes = (
(287,545,o),
(217,608,o),
(160,608,qs),
(102,608,o),
(32,545,o),
(32,497,qs),
(32,450,o),
(102,388,o),
(160,388,qs),
(217,388,o),
(287,450,o),
(287,497,qs)
);
}
);
userData = {
assembly = "NPUSHB[ ]	/* 26 values pushed */
0 3 0 2 1 3 2 105 0 1 1 0 97 0 0 0 35 0 78 36 36 36 33 4 8 26 
CALL[ ]	/* CallFunction */";
};
width = 319;
}
);
note = colon;
unicode = 58;
},
{
glyphname = semicolon;
layers = (
{
layerId = m01;
shapes = (
{
closed = 1;
nodes = (
(323,530,o),
(253,593,o),
(196,593,qs),
(138,593,o),
(68,530,o),
(68,482,qs),
(68,435,o),
(138,373,o),
(196,373,qs),
(253,373,o),
(323,435,o),
(323,482,qs)
);
},
{
closed = 1;
nodes = (
(54,-161,l),
(200,-161,l),
(332,205,l),
(112,205,l)
);
}
);
userData = {
assembly = "MPPEM[ ]	/* MeasurePixelPerEm */
PUSHB[ ]	/* 1 value pushed */
22 
LT[ ]	/* LessThan */
IF[ ]	/* If */
NPUSHB[ ]	/* 19 values pushed */
4 1 3 0 2 3 2 99 0 0 0 1 97 0 1 1 37 0 78 
ELSE[ ]	/* Else */
NPUSHB[ ]	/* 26 values pushed */
0 1 0 0 3 1 0 105 4 1 3 2 2 3 87 4 1 3 3 2 95 0 2 3 2 79 
EIF[ ]	/* EndIf */
NPUSHB[ ]	/* 12 values pushed */
12 12 12 15 12 15 20 36 33 5 8 25 
CALL[ ]	/* CallFunction */";
};
width = 385;
}
);
note = semicolon;
unicode = 59;
},
{
glyphname = less;
layers = (
{
layerId = m01;
shapes = (
{
closed = 1;
nodes = (
(305,330,o),
(305,350,o),
(312,358,qs),
(467,544,ls),
(471,549,o),
(467,556,o),
(461,556,qs),
(207,556,ls),
(200,556,o),
(195,550,qs),
(35,358,ls),
(28,350,o),
(28,330,o),
(35,322,qs),
(195,131,ls),
(200,125,o),
(207,125,qs),
(461,125,ls),
(467,125,o),
(471,133,o),
(467,137,qs),
(312,322,ls)
);
}
);
userData = {
assembly = "NPUSHB[ ]	/* 22 values pushed */
0 1 0 1 1 76 0 0 0 1 95 0 1 1 31 0 78 40 34 2 8 24 
CALL[ ]	/* CallFunction */";
};
width = 497;
}
);
note = less;
unicode = 60;
},
{
glyphname = equal;
layers = (
{
layerId = m01;
shapes = (
{
closed = 1;
nodes = (
(20,99,o),
(30,99,qs),
(596,99,ls),
(606,99,o),
(606,109,qs),
(606,290,ls),
(606,300,o),
(596,300,qs),
(30,300,ls),
(20,300,o),
(20,290,qs),
(20,109,ls)
);
},
{
closed = 1;
nodes = (
(20,379,o),
(30,379,qs),
(596,379,ls),
(606,379,o),
(606,389,qs),
(606,570,ls),
(606,580,o),
(596,580,qs),
(30,580,ls),
(20,580,o),
(20,570,qs),
(20,389,ls)
);
}
);
userData = {
assembly = "MPPEM[ ]	/* MeasurePixelPerEm */
PUSHB[ ]	/* 1 value pushed */
31 
LT[ ]	/* LessThan */
IF[ ]	/* If */
NPUSHB[ ]	/* 18 values pushed */
0 0 0 1 0 1 99 0 3 3 2 95 0 2 2 31 3 78 
ELSE[ ]	/* Else */
NPUSHB[ ]	/* 24 values pushed */
0 2 0 3 0 2 3 103 0 0 1 1 0 87 0 0 0 1 95 0 1 0 1 79 
EIF[ ]	/* EndIf */
PUSHB[ ]	/* 7 values pushed */
51 51 51 49 4 8 26 
CALL[ ]	/* CallFunction */";
};
width = 626;
}
);
note = equal;
unicode = 61;
},
{
glyphname = greater;
layers = (
{
layerId = m01;
shapes = (
{
closed = 1;
nodes = (
(26,133,o),
(30,125,o),
(36,125,qs),
(290,125,ls),
(298,125,o),
(302,131,q),
(462,322,l),
(470,330,o),
(470,350,o),
(462,358,q),
(302,550,l),
(298,556,o),
(290,556,qs),
(36,556,ls),
(30,556,o),
(26,549,o),
(30,544,qs),
(185,358,l),
(193,350,o),
(193,330,o),
(185,322,q),
(30,137,ls)
);
}
);
userData = {
assembly = "NPUSHB[ ]	/* 16 values pushed */
0 1 1 0 95 0 0 0 31 1 78 40 38 2 8 24 
CALL[ ]	/* CallFunction */";
};
width = 497;
}
);
note = greater;
unicode = 62;
},
{
glyphname = question;
layers = (
{
layerId = m01;
shapes = (
{
closed = 1;
nodes = (
(227,548,o),
(228,558,qs),
(230,574,o),
(248,593,o),
(266,593,qs),
(281,593,o),
(300,573,o),
(301,556,qs),
(302,525,o),
(240,498,o),
(179,498,qs),
(95,498,l),
(101,296,ls),
(101,286,o),
(111,286,qs),
(287,286,ls),
(292,286,o),
(298,292,o),
(298,296,qs),
(303,357,l),
(399,359,o),
(518,467,o),
(518,555,qs),
(518,662,o),
(383,773,o),
(272,773,qs),
(188,773,o),
(74,715,o),
(17,617,o),
(18,558,qs),
(18,548,o),
(28,548,qs),
(217,548,ls)
);
},
{
closed = 1;
nodes = (
(329,149,o),
(259,212,o),
(202,212,qs),
(144,212,o),
(74,149,o),
(74,101,qs),
(74,54,o),
(144,-8,o),
(202,-8,qs),
(259,-8,o),
(329,54,o),
(329,101,qs)
);
}
);
userData = {
assembly = "MPPEM[ ]	/* MeasurePixelPerEm */
PUSHB[ ]	/* 1 value pushed */
27 
LT[ ]	/* LessThan */
IF[ ]	/* If */
NPUSHB[ ]	/* 43 values pushed */
0 5 1 0 0 5 114 0 2 4 3 4 2 3 128 0 1 8 1 0 4 1 0 103 0 4 0 3 7 4 3 103 0 7 7 6 97 0 6 6 35 6 78 
ELSE[ ]	/* Else */
NPUSHB[ ]	/* 44 values pushed */
0 5 1 0 1 5 0 128 0 2 4 3 4 2 3 128 0 1 8 1 0 4 1 0 103 0 4 0 3 7 4 3 103 0 7 7 6 97 0 6 6 35 6 78 
EIF[ ]	/* EndIf */
NPUSHB[ ]	/* 23 values pushed */
1 0 42 40 36 34 28 26 22 20 18 15 12 11 7 5 0 32 1 31 9 8 22 
CALL[ ]	/* CallFunction */";
};
width = 538;
}
);
note = question;
unicode = 63;
},
{
glyphname = at;
layers = (
{
layerId = m01;
shapes = (
{
closed = 1;
nodes = (
(865,-4,o),
(989,80,o),
(1053,225,o),
(1053,315,qs),
(1053,424,o),
(952,593,o),
(766,687,o),
(645,687,qs),
(486,687,o),
(226,546,o),
(76,295,o),
(76,136,qs),
(76,22,o),
(174,-151,o),
(354,-245,o),
(473,-245,qs),
(595,-245,o),
(698,-203,qs),
(708,-198,o),
(705,-190,qs),
(681,-105,ls),
(669,-62,o),
(625,-76,qs),
(557,-96,o),
(483,-96,qs),
(368,-96,o),
(236,38,o),
(236,152,qs),
(236,257,o),
(339,436,o),
(518,541,o),
(626,541,qs),
(706,541,o),
(825,483,o),
(890,378,o),
(890,309,qs),
(890,235,o),
(849,138,o),
(809,138,qs),
(768,138,o),
(780,201,qs),
(810,373,ls),
(814,396,o),
(793,422,o),
(770,422,qs),
(656,422,ls),
(647,422,o),
(645,413,qs),
(637,364,l),
(627,393,o),
(572,427,o),
(531,427,qs),
(469,427,o),
(369,350,o),
(313,224,o),
(313,153,qs),
(313,77,o),
(395,-7,o),
(468,-7,qs),
(521,-7,o),
(604,34,o),
(629,73,q),
(646,36,o),
(723,-4,o),
(778,-4,qs)
);
},
{
closed = 1;
nodes = (
(607,191,o),
(566,147,o),
(541,147,qs),
(521,147,o),
(498,173,o),
(498,195,qs),
(498,229,o),
(538,274,o),
(564,274,qs),
(583,274,o),
(607,247,o),
(607,224,qs)
);
}
);
userData = {
assembly = "MPPEM[ ]	/* MeasurePixelPerEm */
PUSHB[ ]	/* 1 value pushed */
45 
LT[ ]	/* LessThan */
IF[ ]	/* If */
NPUSHB[ ]	/* 10 values pushed */
15 1 9 1 2 1 0 3 2 76 
ELSE[ ]	/* Else */
NPUSHB[ ]	/* 10 values pushed */
15 1 9 2 2 1 0 3 2 76 
EIF[ ]	/* EndIf */
MPPEM[ ]	/* MeasurePixelPerEm */
PUSHB[ ]	/* 1 value pushed */
24 
LT[ ]	/* LessThan */
IF[ ]	/* If */
NPUSHB[ ]	/* 40 values pushed */
2 1 1 0 9 3 1 9 105 0 5 0 6 5 6 102 0 4 4 7 97 0 7 7 28 77 10 1 3 3 0 98 11 8 2 0 0 35 0 78 
ELSE[ ]	/* Else */
MPPEM[ ]	/* MeasurePixelPerEm */
PUSHB[ ]	/* 1 value pushed */
27 
LT[ ]	/* LessThan */
IF[ ]	/* If */
NPUSHB[ ]	/* 38 values pushed */
0 7 0 4 1 7 4 105 2 1 1 0 9 3 1 9 105 0 5 0 6 5 6 102 10 1 3 3 0 98 11 8 2 0 0 35 0 78 
ELSE[ ]	/* Else */
MPPEM[ ]	/* MeasurePixelPerEm */
PUSHB[ ]	/* 1 value pushed */
45 
LT[ ]	/* LessThan */
IF[ ]	/* If */
NPUSHB[ ]	/* 45 values pushed */
0 10 9 3 9 10 3 128 0 7 0 4 1 7 4 105 2 1 1 0 9 10 1 9 105 0 5 0 6 5 6 102 0 3 3 0 98 11 8 2 0 0 35 0 78 
ELSE[ ]	/* Else */
NPUSHB[ ]	/* 52 values pushed */
0 2 1 9 1 2 9 128 0 10 9 3 9 10 3 128 0 7 0 4 1 7 4 105 0 1 0 9 10 1 9 105 0 5 0 6 5 6 102 0 3 3 0 98 11 8 2 0 0 35 0 78 
EIF[ ]	/* EndIf */
EIF[ ]	/* EndIf */
EIF[ ]	/* EndIf */
NPUSHB[ ]	/* 21 values pushed */
0 0 74 72 68 66 0 64 0 63 38 39 37 37 36 52 37 36 12 8 30 
CALL[ ]	/* CallFunction */";
};
width = 1129;
}
);
note = at;
unicode = 64;
},
{
glyphname = A;
lastChange = "2022-10-21 05:12:19 +0000";
layers = (
{
layerId = m01;
shapes = (
{
closed = 1;
nodes = (
(530,29,ls),
(536,12,o),
(551,0,o),
(569,0,cs),
(761,0,ls),
(768,0,o),
(771,4,o),
(769,11,cs),
(525,681,ls),
(519,698,o),
(504,708,o),
(486,708,cs),
(288,708,ls),
(270,708,o),
(255,698,o),
(249,681,cs),
(4,11,ls),
(2,4,o),
(5,0,o),
(12,0,cs),
(203,0,ls),
(221,0,o),
(236,12,o),
(242,29,cs),
(265,99,ls),
(267,104,o),
(272,107,o),
(277,107,cs),
(495,107,ls),
(500,107,o),
(505,104,o),
(507,99,cs)
);
},
{
closed = 1;
nodes = (
(446,285,ls),
(448,278,o),
(445,274,o),
(438,274,cs),
(334,274,ls),
(327,274,o),
(324,278,o),
(326,285,cs),
(380,451,ls),
(383,461,o),
(389,461,o),
(392,451,cs)
);
}
);
userData = {
assembly = "MPPEM[ ]	/* MeasurePixelPerEm */
PUSHB[ ]	/* 1 value pushed */
50 
LT[ ]	/* LessThan */
IF[ ]	/* If */
NPUSHB[ ]	/* 27 values pushed */
7 1 5 0 2 1 5 2 103 0 4 4 0 97 0 0 0 34 77 6 3 2 1 1 29 1 78 
ELSE[ ]	/* Else */
NPUSHB[ ]	/* 27 values pushed */
6 3 2 1 2 1 134 7 1 5 0 2 1 5 2 103 0 4 4 0 97 0 0 0 34 4 78 
EIF[ ]	/* EndIf */
NPUSHB[ ]	/* 20 values pushed */
33 33 0 0 33 44 33 43 39 38 0 32 0 31 53 53 54 8 8 25 
CALL[ ]	/* CallFunction */";
};
width = 795;
}
);
note = A;
unicode = 65;
},
{
glyphname = B;
lastChange = "2022-10-20 17:42:28 +0000";
layers = (
{
layerId = m01;
shapes = (
{
closed = 1;
nodes = (
(52,9,o),
(61,0,o),
(67,0,qs),
(384,0,ls),
(459,0,o),
(585,52,o),
(659,144,o),
(659,200,qs),
(659,258,o),
(573,337,o),
(512,362,q),
(564,389,o),
(638,467,o),
(638,517,qs),
(638,570,o),
(565,659,o),
(441,710,o),
(367,710,qs),
(67,710,ls),
(61,710,o),
(52,701,o),
(52,695,qs),
(52,15,ls)
);
},
{
closed = 1;
nodes = (
(256,530,ls),
(256,544,o),
(277,565,o),
(292,565,qs),
(344,565,ls),
(378,565,o),
(421,529,o),
(421,497,qs),
(421,464,o),
(377,424,o),
(344,424,qs),
(256,424,l)
);
},
{
closed = 1;
nodes = (
(256,252,ls),
(256,267,o),
(277,288,o),
(292,288,qs),
(349,288,ls),
(385,288,o),
(443,249,o),
(443,218,qs),
(443,185,o),
(396,144,o),
(363,144,qs),
(256,144,l)
);
}
);
userData = {
assembly = "NPUSHB[ ]	/* 10 values pushed */
0 1 3 0 11 1 5 2 2 76 
MPPEM[ ]	/* MeasurePixelPerEm */
PUSHB[ ]	/* 1 value pushed */
50 
LT[ ]	/* LessThan */
IF[ ]	/* If */
NPUSHB[ ]	/* 31 values pushed */
6 1 2 0 5 4 2 5 105 0 3 3 0 95 0 0 0 28 77 7 1 4 4 1 95 0 1 1 29 1 78 
ELSE[ ]	/* Else */
NPUSHB[ ]	/* 28 values pushed */
6 1 2 0 5 4 2 5 105 7 1 4 0 1 4 1 99 0 3 3 0 95 0 0 0 28 3 78 
EIF[ ]	/* EndIf */
NPUSHB[ ]	/* 21 values pushed */
36 35 24 23 43 40 35 46 36 46 31 28 23 34 24 34 44 50 8 8 24 
CALL[ ]	/* CallFunction */";
};
width = 684;
}
);
note = B;
unicode = 66;
},
{
glyphname = C;
layers = (
{
layerId = m01;
shapes = (
{
closed = 1;
nodes = (
(30,250,o),
(115,86,o),
(273,-5,o),
(380,-5,qs),
(507,-5,o),
(683,124,o),
(714,235,qs),
(719,253,o),
(701,274,o),
(683,274,qs),
(517,274,ls),
(503,274,o),
(484,262,o),
(475,250,qs),
(458,226,o),
(407,200,o),
(376,200,qs),
(320,200,o),
(255,284,o),
(255,355,qs),
(255,426,o),
(320,510,o),
(376,510,qs),
(407,510,o),
(458,484,o),
(475,460,qs),
(484,448,o),
(503,436,o),
(517,436,qs),
(683,436,ls),
(701,436,o),
(719,457,o),
(714,475,qs),
(683,586,o),
(507,715,o),
(380,715,qs),
(273,715,o),
(115,624,o),
(30,460,o),
(30,355,qs)
);
}
);
userData = {
assembly = "MPPEM[ ]	/* MeasurePixelPerEm */
PUSHB[ ]	/* 1 value pushed */
17 
LT[ ]	/* LessThan */
IF[ ]	/* If */
NPUSHB[ ]	/* 34 values pushed */
0 1 2 4 2 1 114 0 4 3 3 4 112 0 2 2 0 97 0 0 0 34 77 0 3 3 5 98 0 5 5 35 5 78 
ELSE[ ]	/* Else */
NPUSHB[ ]	/* 36 values pushed */
0 1 2 4 2 1 4 128 0 4 3 2 4 3 126 0 2 2 0 97 0 0 0 34 77 0 3 3 5 98 0 5 5 35 5 78 
EIF[ ]	/* EndIf */
NPUSHB[ ]	/* 9 values pushed */
36 52 36 36 52 34 6 8 28 
CALL[ ]	/* CallFunction */";
};
width = 753;
}
);
note = C;
unicode = 67;
},
{
glyphname = D;
layers = (
{
layerId = m01;
shapes = (
{
closed = 1;
nodes = (
(71,7,o),
(91,-10,o),
(104,-10,qs),
(348,-10,ls),
(447,-10,o),
(615,88,o),
(714,254,o),
(714,351,qs),
(714,448,o),
(615,613,o),
(447,710,o),
(348,710,qs),
(104,710,ls),
(91,710,o),
(71,693,o),
(71,681,qs),
(71,19,ls)
);
},
{
closed = 1;
nodes = (
(257,508,ls),
(257,525,o),
(276,543,o),
(292,543,qs),
(338,543,ls),
(390,543,o),
(472,493,o),
(518,406,o),
(518,351,qs),
(518,296,o),
(472,208,o),
(390,158,o),
(338,158,qs),
(257,158,l)
);
}
);
userData = {
assembly = "MPPEM[ ]	/* MeasurePixelPerEm */
PUSHB[ ]	/* 1 value pushed */
50 
LT[ ]	/* LessThan */
IF[ ]	/* If */
NPUSHB[ ]	/* 22 values pushed */
0 3 3 0 95 0 0 0 28 77 4 1 2 2 1 95 0 1 1 29 1 78 
ELSE[ ]	/* Else */
NPUSHB[ ]	/* 19 values pushed */
4 1 2 0 1 2 1 99 0 3 3 0 95 0 0 0 28 3 78 
EIF[ ]	/* EndIf */
NPUSHB[ ]	/* 13 values pushed */
18 17 27 24 17 30 18 30 54 50 5 8 24 
CALL[ ]	/* CallFunction */";
};
width = 743;
}
);
note = D;
unicode = 68;
},
{
glyphname = E;
lastChange = "2022-10-20 17:42:17 +0000";
layers = (
{
layerId = m01;
shapes = (
{
closed = 1;
nodes = (
(515,0,ls),
(525,0,o),
(525,10,qs),
(525,130,ls),
(525,147,o),
(507,165,o),
(490,165,qs),
(249,165,ls),
(238,165,o),
(229,176,o),
(229,189,qs),
(229,278,ls),
(229,279,o),
(227,279,o),
(226,279,q),
(226,278,o),
(224,278,qs),
(442,278,ls),
(462,278,o),
(476,288,o),
(476,307,qs),
(476,414,ls),
(476,433,o),
(462,443,o),
(442,443,qs),
(224,443,ls),
(226,443,o),
(226,442,q),
(227,442,o),
(229,442,o),
(229,443,qs),
(229,521,ls),
(229,534,o),
(238,545,o),
(249,545,qs),
(490,545,ls),
(507,545,o),
(525,564,o),
(525,580,qs),
(525,700,ls),
(525,710,o),
(515,710,qs),
(53,710,ls),
(47,710,o),
(43,706,o),
(43,700,cs),
(43,10,ls),
(43,4,o),
(47,0,o),
(53,0,cs)
);
}
);
userData = {
assembly = "MPPEM[ ]	/* MeasurePixelPerEm */
PUSHB[ ]	/* 1 value pushed */
50 
LT[ ]	/* LessThan */
IF[ ]	/* If */
NPUSHB[ ]	/* 29 values pushed */
0 2 0 3 4 2 3 103 0 1 1 0 95 0 0 0 28 77 0 4 4 5 95 0 5 5 29 5 78 
ELSE[ ]	/* Else */
NPUSHB[ ]	/* 26 values pushed */
0 2 0 3 4 2 3 103 0 4 0 5 4 5 99 0 1 1 0 95 0 0 0 28 1 78 
EIF[ ]	/* EndIf */
NPUSHB[ ]	/* 9 values pushed */
52 56 37 115 52 49 6 8 28 
CALL[ ]	/* CallFunction */";
};
width = 556;
}
);
note = E;
unicode = 69;
},
{
glyphname = F;
layers = (
{
layerId = m01;
shapes = (
{
closed = 1;
nodes = (
(50,0,o),
(60,0,qs),
(262,0,ls),
(272,0,o),
(272,10,qs),
(272,257,ls),
(272,267,o),
(282,267,qs),
(462,267,ls),
(472,267,o),
(472,277,qs),
(472,424,ls),
(472,434,o),
(462,434,qs),
(282,434,ls),
(272,434,o),
(272,444,qs),
(272,497,ls),
(272,514,o),
(291,532,o),
(307,532,qs),
(515,532,ls),
(532,532,o),
(550,551,o),
(550,567,qs),
(550,698,ls),
(550,708,o),
(540,708,qs),
(85,708,ls),
(69,708,o),
(50,690,o),
(50,673,qs),
(50,10,ls)
);
}
);
userData = {
assembly = "NPUSHB[ ]	/* 32 values pushed */
0 2 0 3 4 2 3 103 0 1 1 0 95 0 0 0 28 77 0 4 4 29 4 78 51 51 52 52 50 5 8 27 
CALL[ ]	/* CallFunction */";
};
width = 575;
}
);
note = F;
unicode = 70;
},
{
glyphname = G;
lastChange = "2022-10-20 09:09:54 +0000";
layers = (
{
layerId = m01;
shapes = (
{
closed = 1;
nodes = (
(166,715,o),
(30,566,o),
(30,355,cs),
(30,144,o),
(167,-5,o),
(390,-5,cs),
(573,-5,o),
(673,102,o),
(722,187,c),
(722,399,ls),
(722,405,o),
(718,409,o),
(712,409,cs),
(406,409,ls),
(377,409,o),
(361,393,o),
(361,364,cs),
(361,262,ls),
(361,256,o),
(365,252,o),
(371,252,cs),
(538,252,l),
(505,208,o),
(464,190,o),
(414,190,cs),
(305,190,o),
(255,245,o),
(255,355,cs),
(255,449,o),
(303,510,o),
(389,510,cs),
(419,510,o),
(443,503,o),
(461,490,cs),
(480,476,o),
(494,466,o),
(517,466,cs),
(707,466,ls),
(713,466,o),
(717,470,o),
(716,477,cs),
(691,622,o),
(572,715,o),
(388,715,cs)
);
}
);
userData = {
assembly = "NPUSHB[ ]	/* 47 values pushed */
28 1 3 4 1 76 0 1 2 5 2 1 5 128 0 3 4 3 134 0 5 0 4 3 5 4 103 0 2 2 0 97 0 0 0 34 2 78 52 34 38 36 24 34 6 8 28 
CALL[ ]	/* CallFunction */";
};
width = 752;
}
);
note = G;
unicode = 71;
},
{
glyphname = H;
lastChange = "2022-10-20 17:21:54 +0000";
layers = (
{
layerId = m01;
shapes = (
{
closed = 1;
nodes = (
(488,51,ls),
(488,21,o),
(511,0,o),
(553,0,cs),
(689,0,ls),
(702,0,o),
(709,7,o),
(709,15,cs),
(709,708,ls),
(709,716,o),
(702,723,o),
(689,723,cs),
(508,723,ls),
(495,723,o),
(488,716,o),
(488,708,cs),
(488,470,ls),
(488,445,o),
(482,439,o),
(463,439,cs),
(263,439,l),
(263,443,l),
(263,672,ls),
(263,702,o),
(240,723,o),
(198,723,cs),
(62,723,ls),
(49,723,o),
(42,716,o),
(42,708,cs),
(42,15,ls),
(42,7,o),
(49,0,o),
(62,0,cs),
(228,0,ls),
(244,0,o),
(263,9,o),
(263,24,cs),
(263,261,ls),
(263,286,o),
(270,293,o),
(288,293,cs),
(488,293,l),
(488,289,l)
);
}
);
userData = {
assembly = "NPUSHB[ ]	/* 30 values pushed */
0 3 0 0 1 3 0 103 4 1 2 2 28 77 5 1 1 1 29 1 78 51 52 52 51 52 49 6 8 28 
CALL[ ]	/* CallFunction */";
};
width = 755;
}
);
note = H;
unicode = 72;
},
{
glyphname = I;
lastChange = "2022-10-20 09:12:23 +0000";
layers = (
{
layerId = m01;
shapes = (
{
closed = 1;
nodes = (
(234,-10,ls),
(244,-10,o),
(259,1,o),
(259,10,qs),
(259,665,ls),
(259,685,o),
(232,710,o),
(209,710,qs),
(83,710,ls),
(73,710,o),
(58,699,o),
(58,690,qs),
(58,-10,l)
);
}
);
userData = {
assembly = "MPPEM[ ]	/* MeasurePixelPerEm */
PUSHB[ ]	/* 1 value pushed */
50 
LT[ ]	/* LessThan */
IF[ ]	/* If */
NPUSHB[ ]	/* 11 values pushed */
0 0 0 28 77 0 1 1 29 1 78 
ELSE[ ]	/* Else */
NPUSHB[ ]	/* 11 values pushed */
0 1 1 0 95 0 0 0 28 1 78 
EIF[ ]	/* EndIf */
PUSHB[ ]	/* 5 values pushed */
53 50 2 8 24 
CALL[ ]	/* CallFunction */";
};
width = 322;
}
);
note = I;
unicode = 73;
},
{
glyphname = J;
lastChange = "2022-10-20 08:17:06 +0000";
layers = (
{
layerId = m01;
shapes = (
{
closed = 1;
nodes = (
(339,251,ls),
(339,205,o),
(321,193,o),
(297,193,cs),
(276,193,o),
(259,201,o),
(250,228,cs),
(242,256,o),
(231,271,o),
(203,271,cs),
(41,271,ls),
(32,271,o),
(26,266,o),
(26,256,cs),
(32,80,o),
(146,-7,o),
(307,-7,cs),
(463,-7,o),
(560,78,o),
(560,251,cs),
(560,693,ls),
(560,702,o),
(554,708,o),
(545,708,cs),
(384,708,ls),
(355,708,o),
(339,692,o),
(339,663,cs)
);
}
);
userData = {
assembly = "MPPEM[ ]	/* MeasurePixelPerEm */
PUSHB[ ]	/* 1 value pushed */
38 
LT[ ]	/* LessThan */
IF[ ]	/* If */
NPUSHB[ ]	/* 16 values pushed */
0 1 1 28 77 0 0 0 2 98 0 2 2 35 2 78 
ELSE[ ]	/* Else */
NPUSHB[ ]	/* 13 values pushed */
0 0 0 2 0 2 102 0 1 1 28 1 78 
EIF[ ]	/* EndIf */
PUSHB[ ]	/* 6 values pushed */
21 53 37 3 8 25 
CALL[ ]	/* CallFunction */";
};
width = 590;
}
);
note = J;
unicode = 74;
},
{
glyphname = K;
lastChange = "2022-10-20 08:18:04 +0000";
layers = (
{
layerId = m01;
shapes = (
{
closed = 1;
nodes = (
(472,10,ls),
(476,4,o),
(482,0,o),
(490,0,cs),
(720,0,ls),
(732,0,o),
(736,8,o),
(729,18,cs),
(494,351,ls),
(486,363,o),
(487,374,o),
(495,386,cs),
(713,690,ls),
(720,700,o),
(716,708,o),
(704,708,cs),
(487,708,ls),
(479,708,o),
(472,704,o),
(468,698,cs),
(302,455,ls),
(289,435,o),
(272,440,o),
(272,464,cs),
(272,663,ls),
(272,692,o),
(256,708,o),
(227,708,cs),
(65,708,ls),
(56,708,o),
(50,702,o),
(50,693,cs),
(50,45,ls),
(50,16,o),
(66,0,o),
(95,0,cs),
(257,0,ls),
(266,0,o),
(272,6,o),
(272,15,cs),
(272,252,ls),
(272,276,o),
(289,282,o),
(302,262,cs)
);
}
);
userData = {
assembly = "NPUSHB[ ]	/* 27 values pushed */
32 18 2 0 1 1 76 2 1 1 1 28 77 3 1 0 0 29 0 78 41 40 52 53 4 8 26 
CALL[ ]	/* CallFunction */";
};
width = 755;
}
);
note = K;
unicode = 75;
},
{
glyphname = L;
lastChange = "2022-10-20 08:22:19 +0000";
layers = (
{
layerId = m01;
shapes = (
{
closed = 1;
nodes = (
(33,0,o),
(43,0,qs),
(445,0,ls),
(467,0,o),
(480,13,o),
(480,35,cs),
(480,150,ls),
(480,159,o),
(474,165,o),
(465,165,cs),
(248,165,ls),
(235,165,o),
(223,177,o),
(223,189,qs),
(223,666,ls),
(223,687,o),
(200,710,o),
(178,710,qs),
(43,710,ls),
(33,710,o),
(33,700,qs),
(33,10,ls)
);
}
);
userData = {
assembly = "MPPEM[ ]	/* MeasurePixelPerEm */
PUSHB[ ]	/* 1 value pushed */
50 
LT[ ]	/* LessThan */
IF[ ]	/* If */
NPUSHB[ ]	/* 16 values pushed */
0 0 0 28 77 0 1 1 2 96 0 2 2 29 2 78 
ELSE[ ]	/* Else */
NPUSHB[ ]	/* 13 values pushed */
0 1 0 2 1 2 100 0 0 0 28 0 78 
EIF[ ]	/* EndIf */
PUSHB[ ]	/* 6 values pushed */
52 53 49 3 8 25 
CALL[ ]	/* CallFunction */";
};
width = 506;
}
);
note = L;
unicode = 76;
},
{
glyphname = M;
lastChange = "2022-10-21 05:11:25 +0000";
layers = (
{
layerId = m01;
shapes = (
{
closed = 1;
nodes = (
(50,15,ls),
(50,6,o),
(56,0,o),
(65,0,cs),
(227,0,ls),
(256,0,o),
(272,16,o),
(272,45,cs),
(272,296,ls),
(272,309,o),
(285,311,o),
(289,299,cs),
(369,37,ls),
(377,11,o),
(394,0,o),
(420,0,cs),
(532,0,ls),
(558,0,o),
(575,11,o),
(583,37,cs),
(663,299,ls),
(667,311,o),
(680,309,o),
(680,296,cs),
(680,45,ls),
(680,16,o),
(696,0,o),
(725,0,cs),
(886,0,ls),
(895,0,o),
(901,6,o),
(901,15,cs),
(901,693,ls),
(901,702,o),
(895,708,o),
(886,708,cs),
(668,708,ls),
(642,708,o),
(626,696,o),
(617,672,cs),
(488,310,ls),
(483,296,o),
(473,296,o),
(468,310,cs),
(335,672,ls),
(326,697,o),
(310,708,o),
(284,708,cs),
(65,708,ls),
(56,708,o),
(50,702,o),
(50,693,cs)
);
}
);
userData = {
assembly = "MPPEM[ ]	/* MeasurePixelPerEm */
PUSHB[ ]	/* 1 value pushed */
24 
LT[ ]	/* LessThan */
IF[ ]	/* If */
NPUSHB[ ]	/* 19 values pushed */
2 1 0 0 34 77 0 1 1 3 95 5 4 2 3 3 29 3 78 
ELSE[ ]	/* Else */
MPPEM[ ]	/* MeasurePixelPerEm */
PUSHB[ ]	/* 1 value pushed */
36 
LT[ ]	/* LessThan */
IF[ ]	/* If */
NPUSHB[ ]	/* 23 values pushed */
2 1 0 0 34 77 5 1 3 3 29 77 0 1 1 4 97 0 4 4 35 4 78 
ELSE[ ]	/* Else */
MPPEM[ ]	/* MeasurePixelPerEm */
PUSHB[ ]	/* 1 value pushed */
45 
LT[ ]	/* LessThan */
IF[ ]	/* If */
NPUSHB[ ]	/* 20 values pushed */
0 1 0 4 1 4 101 2 1 0 0 34 77 5 1 3 3 29 3 78 
ELSE[ ]	/* Else */
NPUSHB[ ]	/* 20 values pushed */
0 1 0 4 1 4 101 5 1 3 3 0 97 2 1 0 0 34 3 78 
EIF[ ]	/* EndIf */
EIF[ ]	/* EndIf */
EIF[ ]	/* EndIf */
NPUSHB[ ]	/* 9 values pushed */
56 57 52 52 20 49 6 8 28 
CALL[ ]	/* CallFunction */";
};
width = 951;
}
);
note = M;
unicode = 77;
},
{
glyphname = N;
lastChange = "2022-10-21 05:13:38 +0000";
layers = (
{
layerId = m01;
shapes = (
{
closed = 1;
nodes = (
(522,708,ls),
(513,708,o),
(507,702,o),
(507,693,cs),
(507,346,l),
(278,698,ls),
(274,705,o),
(268,708,o),
(260,708,cs),
(65,708,ls),
(56,708,o),
(50,702,o),
(50,693,cs),
(50,45,ls),
(50,16,o),
(66,0,o),
(95,0,cs),
(257,0,ls),
(266,0,o),
(272,6,o),
(272,15,cs),
(272,356,l),
(501,10,ls),
(505,3,o),
(511,0,o),
(519,0,cs),
(714,0,ls),
(723,0,o),
(729,6,o),
(729,15,cs),
(729,663,ls),
(729,692,o),
(713,708,o),
(684,708,cs)
);
}
);
userData = {
assembly = "NPUSHB[ ]	/* 36 values pushed */
23 9 2 1 0 1 76 3 4 2 0 0 28 77 2 1 1 1 29 1 78 1 0 20 18 15 12 6 4 0 27 1 26 5 8 22 
CALL[ ]	/* CallFunction */";
};
width = 779;
}
);
note = N;
unicode = 78;
},
{
glyphname = O;
lastChange = "2022-10-20 17:42:47 +0000";
layers = (
{
layerId = m01;
shapes = (
{
closed = 1;
nodes = (
(758,463,o),
(661,628,o),
(495,720,o),
(395,720,qs),
(295,720,o),
(128,628,o),
(30,463,o),
(30,360,qs),
(30,257,o),
(128,93,o),
(295,0,o),
(395,0,qs),
(494,0,o),
(661,93,o),
(758,257,o),
(758,360,qs)
);
},
{
closed = 1;
nodes = (
(256,433,o),
(328,517,o),
(395,517,qs),
(461,517,o),
(533,433,o),
(533,360,qs),
(533,289,o),
(461,205,o),
(395,205,qs),
(328,205,o),
(256,289,o),
(256,360,qs)
);
}
);
userData = {
assembly = "NPUSHB[ ]	/* 28 values pushed */
0 3 3 1 97 0 1 1 34 77 0 2 2 0 97 0 0 0 35 0 78 36 37 38 34 4 8 26 
CALL[ ]	/* CallFunction */";
};
width = 788;
}
);
note = O;
unicode = 79;
},
{
glyphname = P;
layers = (
{
layerId = m01;
shapes = (
{
closed = 1;
nodes = (
(272,485,ls),
(272,507,o),
(295,530,o),
(317,530,qs),
(335,530,ls),
(404,530,o),
(404,465,qs),
(404,400,o),
(335,400,qs),
(272,400,l)
);
},
{
closed = 1;
nodes = (
(629,576,o),
(490,708,o),
(360,708,qs),
(60,708,ls),
(50,708,o),
(50,698,qs),
(50,10,ls),
(50,0,o),
(60,0,qs),
(227,0,ls),
(249,0,o),
(272,23,o),
(272,45,qs),
(272,215,ls),
(272,225,o),
(282,225,qs),
(360,225,ls),
(446,225,o),
(567,289,o),
(629,398,o),
(629,465,qs)
);
}
);
userData = {
assembly = "NPUSHB[ ]	/* 42 values pushed */
5 1 0 0 2 3 0 2 103 0 1 1 4 95 0 4 4 28 77 0 3 3 29 3 78 1 0 28 25 22 19 15 12 6 3 0 9 1 9 6 8 22 
CALL[ ]	/* CallFunction */";
};
width = 649;
}
);
note = P;
unicode = 80;
},
{
glyphname = Q;
layers = (
{
layerId = m01;
shapes = (
{
closed = 1;
nodes = (
(256,430,o),
(328,515,o),
(395,515,qs),
(461,515,o),
(533,430,o),
(533,357,qs),
(533,285,o),
(461,200,o),
(395,200,qs),
(328,200,o),
(256,285,o),
(256,357,qs)
);
},
{
closed = 1;
nodes = (
(758,461,o),
(661,627,o),
(495,720,o),
(395,720,qs),
(295,720,o),
(128,627,o),
(30,461,o),
(30,357,qs),
(30,253,o),
(128,87,o),
(295,-7,o),
(395,-7,qs),
(413,-7,o),
(422,-6,qs),
(449,-4,o),
(463,-28,qs),
(502,-91,ls),
(516,-115,o),
(544,-115,qs),
(763,-115,ls),
(769,-115,o),
(773,-108,o),
(769,-103,qs),
(654,52,ls),
(635,77,o),
(658,102,qs),
(706,151,o),
(758,281,o),
(758,357,qs)
);
}
);
userData = {
assembly = "NPUSHB[ ]	/* 34 values pushed */
0 2 3 2 134 0 1 1 4 97 0 4 4 34 77 0 0 0 3 97 0 3 3 35 3 78 38 37 58 36 33 5 8 27 
CALL[ ]	/* CallFunction */";
};
width = 788;
}
);
note = Q;
unicode = 81;
},
{
glyphname = R;
layers = (
{
layerId = m01;
shapes = (
{
closed = 1;
nodes = (
(424,431,o),
(392,402,o),
(360,402,qs),
(272,402,l),
(272,487,ls),
(272,504,o),
(291,522,o),
(307,522,qs),
(360,522,ls),
(391,522,o),
(424,490,o),
(424,462,qs)
);
},
{
closed = 1;
nodes = (
(87,708,o),
(64,685,o),
(64,663,qs),
(64,10,ls),
(64,0,o),
(74,0,qs),
(262,0,ls),
(272,0,o),
(272,10,qs),
(272,254,l),
(273,254,l),
(314,175,l),
(389,32,ls),
(405,0,o),
(442,0,qs),
(636,0,ls),
(642,0,o),
(646,7,o),
(643,12,qs),
(501,261,ls),
(496,270,o),
(506,275,q),
(576,301,o),
(649,407,o),
(649,476,qs),
(649,542,o),
(588,647,o),
(466,708,o),
(380,708,qs),
(109,708,ls)
);
}
);
userData = {
assembly = "NPUSHB[ ]	/* 47 values pushed */
30 1 3 1 1 76 0 1 0 3 0 1 3 128 0 0 0 2 95 5 1 2 2 28 77 4 1 3 3 29 3 78 13 12 36 33 27 24 12 41 13 40 35 49 6 8 24 
CALL[ ]	/* CallFunction */";
};
width = 670;
}
);
note = R;
unicode = 82;
},
{
glyphname = S;
lastChange = "2022-10-21 02:16:23 +0000";
layers = (
{
layerId = m01;
shapes = (
{
closed = 1;
nodes = (
(597,285,o),
(533,366,o),
(446,412,o),
(379,437,qs),
(321,459,o),
(268,489,o),
(268,513,qs),
(268,530,o),
(286,549,o),
(300,549,qs),
(330,549,o),
(342,524,qs),
(349,507,o),
(365,493,o),
(380,493,qs),
(578,493,ls),
(583,493,o),
(588,499,o),
(587,503,q),
(580,607,o),
(428,720,o),
(301,720,qs),
(224,720,o),
(101,670,o),
(30,574,o),
(30,506,qs),
(29,438,o),
(93,351,o),
(182,305,o),
(250,281,qs),
(307,261,o),
(361,231,o),
(361,206,qs),
(361,188,o),
(336,171,o),
(318,171,qs),
(284,171,o),
(271,200,qs),
(264,217,o),
(248,232,o),
(233,232,qs),
(38,232,ls),
(33,232,o),
(28,226,o),
(29,222,q),
(40,113,o),
(203,0,o),
(327,0,qs),
(411,0,o),
(533,57,o),
(597,159,o),
(597,224,qs)
);
}
);
userData = {
assembly = "PUSHB[ ]	/* 6 values pushed */
32 1 4 5 1 76 
MPPEM[ ]	/* MeasurePixelPerEm */
PUSHB[ ]	/* 1 value pushed */
20 
LT[ ]	/* LessThan */
IF[ ]	/* If */
NPUSHB[ ]	/* 35 values pushed */
0 5 3 4 4 5 114 0 1 4 2 2 1 114 0 4 4 3 98 0 3 3 34 77 0 2 2 0 98 0 0 0 35 0 78 
ELSE[ ]	/* Else */
MPPEM[ ]	/* MeasurePixelPerEm */
PUSHB[ ]	/* 1 value pushed */
22 
LT[ ]	/* LessThan */
IF[ ]	/* If */
NPUSHB[ ]	/* 36 values pushed */
0 5 3 4 4 5 114 0 1 4 2 4 1 2 128 0 4 4 3 98 0 3 3 34 77 0 2 2 0 98 0 0 0 35 0 78 
ELSE[ ]	/* Else */
NPUSHB[ ]	/* 37 values pushed */
0 5 3 4 3 5 4 128 0 1 4 2 4 1 2 128 0 4 4 3 98 0 3 3 34 77 0 2 2 0 98 0 0 0 35 0 78 
EIF[ ]	/* EndIf */
EIF[ ]	/* EndIf */
NPUSHB[ ]	/* 9 values pushed */
35 52 44 35 52 34 6 8 28 
CALL[ ]	/* CallFunction */";
};
width = 617;
}
);
note = S;
unicode = 83;
},
{
glyphname = T;
lastChange = "2022-10-21 05:11:57 +0000";
layers = (
{
layerId = m01;
shapes = (
{
closed = 1;
nodes = (
(10,532,o),
(20,532,qs),
(161,532,ls),
(178,532,o),
(196,514,o),
(196,497,qs),
(196,10,ls),
(196,0,o),
(206,0,qs),
(408,0,ls),
(418,0,o),
(418,10,qs),
(418,497,ls),
(418,514,o),
(437,532,o),
(453,532,qs),
(596,532,ls),
(606,532,o),
(606,542,qs),
(606,698,ls),
(606,708,o),
(596,708,qs),
(20,708,ls),
(10,708,o),
(10,698,qs),
(10,542,ls)
);
}
);
userData = {
assembly = "NPUSHB[ ]	/* 24 values pushed */
3 1 1 1 0 95 0 0 0 28 77 0 2 2 29 2 78 52 52 51 49 4 8 26 
CALL[ ]	/* CallFunction */";
};
width = 611;
}
);
note = T;
unicode = 84;
},
{
glyphname = U;
layers = (
{
layerId = m01;
shapes = (
{
closed = 1;
nodes = (
(46,207,o),
(124,65,o),
(263,-7,o),
(353,-7,qs),
(443,-7,o),
(589,65,o),
(673,208,o),
(673,309,qs),
(673,698,ls),
(673,708,o),
(663,708,qs),
(497,708,ls),
(475,708,o),
(452,685,o),
(452,663,qs),
(452,309,ls),
(452,260,o),
(406,203,o),
(358,203,qs),
(310,203,o),
(267,260,o),
(267,309,qs),
(267,663,ls),
(267,685,o),
(244,708,o),
(222,708,qs),
(56,708,ls),
(46,708,o),
(46,698,qs),
(46,309,ls)
);
}
);
userData = {
assembly = "NPUSHB[ ]	/* 24 values pushed */
2 1 0 0 28 77 0 1 1 3 97 0 3 3 35 3 78 37 53 37 49 4 8 26 
CALL[ ]	/* CallFunction */";
};
width = 719;
}
);
note = U;
unicode = 85;
},
{
glyphname = V;
lastChange = "2022-10-21 02:12:06 +0000";
layers = (
{
layerId = m01;
shapes = (
{
closed = 1;
nodes = (
(277,40,ls),
(287,14,o),
(309,0,o),
(342,0,cs),
(440,0,ls),
(473,0,o),
(495,14,o),
(505,40,cs),
(774,698,ls),
(778,707,o),
(774,713,o),
(763,713,cs),
(613,713,ls),
(580,713,o),
(558,698,o),
(548,673,cs),
(406,316,ls),
(394,286,o),
(388,286,o),
(376,316,cs),
(234,673,ls),
(224,698,o),
(202,713,o),
(169,713,cs),
(18,713,ls),
(7,713,o),
(3,707,o),
(7,698,cs)
);
}
);
userData = {
assembly = "MPPEM[ ]	/* MeasurePixelPerEm */
PUSHB[ ]	/* 1 value pushed */
50 
LT[ ]	/* LessThan */
IF[ ]	/* If */
NPUSHB[ ]	/* 17 values pushed */
2 1 0 0 28 77 0 1 1 3 97 0 3 3 29 3 78 
ELSE[ ]	/* Else */
NPUSHB[ ]	/* 14 values pushed */
0 1 0 3 1 3 101 2 1 0 0 28 0 78 
EIF[ ]	/* EndIf */
PUSHB[ ]	/* 7 values pushed */
53 51 19 50 4 8 26 
CALL[ ]	/* CallFunction */";
};
width = 777;
}
);
note = V;
unicode = 86;
},
{
glyphname = W;
lastChange = "2022-10-20 08:21:27 +0000";
layers = (
{
layerId = m01;
shapes = (
{
closed = 1;
nodes = (
(212,40,ls),
(220,15,o),
(239,0,o),
(269,0,cs),
(351,0,ls),
(381,0,o),
(401,15,o),
(408,40,c),
(565,494,l),
(537,494,l),
(694,39,ls),
(702,15,o),
(721,0,o),
(751,0,cs),
(833,0,ls),
(863,0,o),
(882,15,o),
(890,39,cs),
(1116,698,ls),
(1119,707,o),
(1114,713,o),
(1103,713,cs),
(978,713,ls),
(947,713,o),
(929,698,o),
(921,672,cs),
(802,315,ls),
(792,286,o),
(791,286,o),
(782,315,cs),
(662,672,l),
(656,696,o),
(638,710,o),
(611,713,c),
(490,713,l),
(462,710,o),
(447,696,o),
(440,673,cs),
(321,316,ls),
(311,288,o),
(311,288,o),
(300,316,cs),
(181,673,ls),
(173,698,o),
(155,713,o),
(124,713,cs),
(-3,713,ls),
(-14,713,o),
(-19,707,o),
(-16,698,cs)
);
}
);
userData = {
assembly = "NPUSHB[ ]	/* 22 values pushed */
2 1 2 0 0 28 77 4 1 3 3 29 3 78 55 51 56 56 49 5 8 27 
CALL[ ]	/* CallFunction */";
};
width = 1100;
}
);
note = W;
unicode = 87;
},
{
glyphname = X;
layers = (
{
layerId = m01;
shapes = (
{
closed = 1;
nodes = (
(500,0,o),
(528,0,qs),
(749,0,ls),
(755,0,o),
(759,8,o),
(755,12,q),
(538,319,ls),
(515,351,o),
(536,382,qs),
(737,696,ls),
(740,701,o),
(737,708,o),
(731,708,qs),
(520,708,ls),
(493,708,o),
(478,684,qs),
(418,581,ls),
(405,559,o),
(370,557,o),
(355,578,qs),
(279,686,ls),
(264,708,o),
(236,708,qs),
(15,708,ls),
(9,708,o),
(5,701,o),
(9,696,qs),
(221,396,ls),
(244,364,o),
(223,333,qs),
(18,12,ls),
(15,7,o),
(18,0,o),
(24,0,qs),
(235,0,ls),
(262,0,o),
(277,24,qs),
(341,134,ls),
(354,156,o),
(389,158,o),
(404,137,qs),
(485,22,ls)
);
}
);
userData = {
assembly = "NPUSHB[ ]	/* 38 values pushed */
35 1 1 0 1 76 4 1 2 2 28 77 0 0 0 3 97 0 3 3 31 77 5 1 1 1 29 1 78 57 35 19 57 35 17 6 8 28 
CALL[ ]	/* CallFunction */";
};
width = 764;
}
);
note = X;
unicode = 88;
},
{
glyphname = Y;
lastChange = "2022-10-20 09:34:46 +0000";
layers = (
{
layerId = m01;
shapes = (
{
closed = 1;
nodes = (
(254,10,ls),
(254,0,o),
(264,0,qs),
(466,0,ls),
(476,0,o),
(476,10,qs),
(476,215,l),
(724,696,ls),
(726,701,o),
(722,708,o),
(717,708,qs),
(517,708,ls),
(492,708,o),
(475,697,o),
(465,674,cs),
(377,479,ls),
(373,470,o),
(361,470,o),
(357,479,qs),
(268,674,ls),
(258,697,o),
(241,708,o),
(216,708,cs),
(13,708,ls),
(8,708,o),
(4,701,o),
(6,696,qs),
(254,215,l)
);
}
);
userData = {
assembly = "NPUSHB[ ]	/* 31 values pushed */
25 18 2 3 1 1 76 2 1 0 0 28 77 0 1 1 3 95 0 3 3 29 3 78 54 35 20 34 4 8 26 
CALL[ ]	/* CallFunction */";
};
width = 730;
}
);
note = Y;
unicode = 89;
},
{
glyphname = Z;
layers = (
{
layerId = m01;
shapes = (
{
closed = 1;
nodes = (
(580,708,o),
(570,708,qs),
(60,708,ls),
(50,708,o),
(50,698,qs),
(50,577,ls),
(50,555,o),
(73,532,o),
(95,532,qs),
(315,532,ls),
(321,532,o),
(325,525,o),
(321,520,qs),
(54,172,ls),
(50,167,o),
(50,160,qs),
(50,10,ls),
(50,0,o),
(60,0,qs),
(570,0,ls),
(580,0,o),
(580,10,qs),
(580,132,ls),
(580,154,o),
(557,177,o),
(535,177,qs),
(311,177,ls),
(305,177,o),
(302,184,o),
(306,189,qs),
(576,536,ls),
(580,541,o),
(580,548,qs),
(580,698,ls)
);
}
);
userData = {
assembly = "NPUSHB[ ]	/* 38 values pushed */
0 1 2 3 17 1 1 0 2 76 0 2 2 3 95 0 3 3 28 77 0 0 0 1 95 0 1 1 29 1 78 52 55 52 53 4 8 26 
CALL[ ]	/* CallFunction */";
};
width = 630;
}
);
note = Z;
unicode = 90;
},
{
glyphname = bracketleft;
layers = (
{
layerId = m01;
shapes = (
{
closed = 1;
nodes = (
(95,-229,o),
(105,-229,qs),
(467,-229,ls),
(477,-229,o),
(477,-219,qs),
(477,-61,ls),
(477,-51,o),
(467,-51,qs),
(348,-51,ls),
(326,-51,o),
(303,-28,o),
(303,-6,qs),
(303,672,ls),
(303,694,o),
(326,717,o),
(348,717,qs),
(467,717,ls),
(477,717,o),
(477,727,qs),
(477,885,ls),
(477,895,o),
(467,895,qs),
(105,895,ls),
(95,895,o),
(95,885,qs),
(95,-219,ls)
);
}
);
userData = {
assembly = "NPUSHB[ ]	/* 31 values pushed */
0 0 0 1 2 0 1 103 0 2 3 3 2 87 0 2 2 3 95 0 3 2 3 79 51 53 51 49 4 8 26 
CALL[ ]	/* CallFunction */";
};
width = 533;
}
);
note = bracketleft;
unicode = 91;
},
{
glyphname = backslash;
layers = (
{
layerId = m01;
shapes = (
{
closed = 1;
nodes = (
(412,955,l),
(200,955,l),
(440,-198,l),
(652,-198,l)
);
}
);
userData = {
assembly = "NPUSHB[ ]	/* 20 values pushed */
0 0 1 0 133 2 1 1 1 118 0 0 0 3 0 3 17 3 8 23 
CALL[ ]	/* CallFunction */";
};
width = 878;
}
);
note = backslash;
unicode = 92;
},
{
glyphname = bracketright;
layers = (
{
layerId = m01;
shapes = (
{
closed = 1;
nodes = (
(458,895,o),
(448,895,qs),
(86,895,ls),
(76,895,o),
(76,885,qs),
(76,727,ls),
(76,717,o),
(86,717,qs),
(205,717,ls),
(227,717,o),
(250,694,o),
(250,672,qs),
(250,-6,ls),
(250,-28,o),
(227,-51,o),
(205,-51,qs),
(86,-51,ls),
(76,-51,o),
(76,-61,qs),
(76,-219,ls),
(76,-229,o),
(86,-229,qs),
(448,-229,ls),
(458,-229,o),
(458,-219,qs),
(458,885,ls)
);
}
);
userData = {
assembly = "NPUSHB[ ]	/* 31 values pushed */
0 3 0 2 1 3 2 103 0 1 0 0 1 87 0 1 1 0 95 0 0 1 0 79 51 53 51 49 4 8 26 
CALL[ ]	/* CallFunction */";
};
width = 533;
}
);
note = bracketright;
unicode = 93;
},
{
glyphname = asciicircum;
layers = (
{
layerId = m01;
shapes = (
{
closed = 1;
nodes = (
(513,162,o),
(521,162,qs),
(720,162,ls),
(725,162,o),
(730,169,o),
(728,174,qs),
(504,677,ls),
(489,711,o),
(452,711,qs),
(308,711,ls),
(271,711,o),
(256,677,qs),
(30,174,ls),
(28,169,o),
(33,162,o),
(38,162,qs),
(237,162,ls),
(245,162,o),
(248,170,qs),
(350,393,ls),
(362,419,o),
(398,420,o),
(410,393,qs),
(510,170,ls)
);
}
);
userData = {
assembly = "PUSHB[ ]	/* 2 values pushed */
6 100 
WCVTP[ ]	/* WriteCVTInPixels */
NPUSHB[ ]	/* 29 values pushed */
3 1 1 0 1 134 0 2 0 0 2 87 0 2 2 0 97 0 0 2 0 81 36 53 35 17 4 8 26 
CALL[ ]	/* CallFunction */
PUSHB[ ]	/* 2 values pushed */
6 0 
WCVTP[ ]	/* WriteCVTInPixels */";
};
width = 758;
}
);
note = asciicircum;
unicode = 94;
},
{
glyphname = underscore;
layers = (
{
layerId = m01;
shapes = (
{
closed = 1;
nodes = (
(49,-258,o),
(59,-258,qs),
(714,-258,ls),
(724,-258,o),
(724,-248,qs),
(724,-52,ls),
(724,-42,o),
(714,-42,qs),
(59,-42,ls),
(49,-42,o),
(49,-52,qs),
(49,-248,ls)
);
}
);
userData = {
assembly = "PUSHB[ ]	/* 2 values pushed */
6 100 
WCVTP[ ]	/* WriteCVTInPixels */
NPUSHB[ ]	/* 21 values pushed */
0 0 1 1 0 87 0 0 0 1 95 0 1 0 1 79 51 49 2 8 24 
CALL[ ]	/* CallFunction */
PUSHB[ ]	/* 2 values pushed */
6 0 
WCVTP[ ]	/* WriteCVTInPixels */";
};
width = 764;
}
);
note = underscore;
unicode = 95;
},
{
glyphname = grave;
layers = (
{
layerId = m01;
shapes = (
{
closed = 1;
nodes = (
(10,696,o),
(18,693,qs),
(258,606,l),
(269,603,o),
(269,614,qs),
(269,742,ls),
(269,750,o),
(261,753,qs),
(22,855,ls),
(17,857,o),
(10,852,o),
(10,847,qs),
(10,705,ls)
);
}
);
userData = {
assembly = "PUSHB[ ]	/* 4 values pushed */
8 2 1 50 
CALL[ ]	/* CallFunction */";
};
width = 324;
}
);
note = grave;
unicode = 96;
},
{
glyphname = a;
layers = (
{
layerId = m01;
shapes = (
{
closed = 1;
nodes = (
(20,193,o),
(81,62,o),
(187,-7,o),
(253,-7,qs),
(308,-7,o),
(388,38,o),
(409,77,q),
(409,46,ls),
(409,27,o),
(436,0,o),
(455,0,qs),
(620,0,ls),
(630,0,o),
(630,10,qs),
(630,518,ls),
(630,538,o),
(604,564,o),
(584,564,qs),
(419,564,ls),
(409,564,o),
(409,554,qs),
(409,487,l),
(388,526,o),
(308,571,o),
(253,571,qs),
(187,571,o),
(81,502,o),
(20,371,o),
(20,282,qs)
);
},
{
closed = 1;
nodes = (
(409,237,o),
(363,187,o),
(327,187,qs),
(291,187,o),
(245,237,o),
(245,282,qs),
(245,327,o),
(291,377,o),
(327,377,qs),
(363,377,o),
(409,327,o),
(409,282,qs)
);
}
);
userData = {
assembly = "MPPEM[ ]	/* MeasurePixelPerEm */
PUSHB[ ]	/* 1 value pushed */
34 
LT[ ]	/* LessThan */
IF[ ]	/* If */
NPUSHB[ ]	/* 10 values pushed */
6 1 4 0 21 1 2 5 2 76 
ELSE[ ]	/* Else */
NPUSHB[ ]	/* 10 values pushed */
6 1 4 1 21 1 2 5 2 76 
EIF[ ]	/* EndIf */
MPPEM[ ]	/* MeasurePixelPerEm */
PUSHB[ ]	/* 1 value pushed */
34 
LT[ ]	/* LessThan */
IF[ ]	/* If */
NPUSHB[ ]	/* 23 values pushed */
0 4 4 0 97 1 1 0 0 37 77 0 5 5 2 97 3 1 2 2 29 2 78 
ELSE[ ]	/* Else */
NPUSHB[ ]	/* 31 values pushed */
0 1 1 31 77 0 4 4 0 97 0 0 0 37 77 0 2 2 29 77 0 5 5 3 97 0 3 3 35 3 78 
EIF[ ]	/* EndIf */
NPUSHB[ ]	/* 9 values pushed */
36 37 37 52 52 34 6 8 28 
CALL[ ]	/* CallFunction */";
};
width = 680;
}
);
note = a;
unicode = 97;
},
{
glyphname = b;
layers = (
{
layerId = m01;
shapes = (
{
closed = 1;
nodes = (
(272,740,o),
(262,740,qs),
(95,740,ls),
(73,740,o),
(50,717,o),
(50,695,qs),
(50,10,ls),
(50,0,o),
(60,0,qs),
(227,0,ls),
(249,0,o),
(272,23,o),
(272,45,qs),
(272,77,l),
(293,38,o),
(372,-7,o),
(427,-7,qs),
(493,-7,o),
(599,62,o),
(660,193,o),
(660,282,qs),
(660,371,o),
(599,502,o),
(493,571,o),
(427,571,qs),
(372,571,o),
(293,526,o),
(272,487,q),
(272,730,ls)
);
},
{
closed = 1;
nodes = (
(435,237,o),
(389,187,o),
(353,187,qs),
(317,187,o),
(271,237,o),
(271,282,qs),
(271,327,o),
(317,377,o),
(353,377,qs),
(389,377,o),
(435,327,o),
(435,282,qs)
);
}
);
userData = {
assembly = "MPPEM[ ]	/* MeasurePixelPerEm */
PUSHB[ ]	/* 1 value pushed */
34 
LT[ ]	/* LessThan */
IF[ ]	/* If */
NPUSHB[ ]	/* 10 values pushed */
0 1 4 0 14 1 1 5 2 76 
ELSE[ ]	/* Else */
NPUSHB[ ]	/* 10 values pushed */
0 1 4 0 14 1 2 5 2 76 
EIF[ ]	/* EndIf */
MPPEM[ ]	/* MeasurePixelPerEm */
PUSHB[ ]	/* 1 value pushed */
34 
LT[ ]	/* LessThan */
IF[ ]	/* If */
NPUSHB[ ]	/* 33 values pushed */
0 3 3 1 97 2 1 1 1 35 77 0 4 4 0 97 0 0 0 37 77 0 5 5 1 97 2 1 1 1 35 1 78 
ELSE[ ]	/* Else */
NPUSHB[ ]	/* 31 values pushed */
0 4 4 0 97 0 0 0 37 77 0 3 3 2 95 0 2 2 29 77 0 5 5 1 97 0 1 1 35 1 78 
EIF[ ]	/* EndIf */
NPUSHB[ ]	/* 9 values pushed */
36 35 52 53 38 34 6 8 28 
CALL[ ]	/* CallFunction */";
};
width = 680;
}
);
note = b;
unicode = 98;
},
{
glyphname = c;
layers = (
{
layerId = m01;
shapes = (
{
closed = 1;
nodes = (
(20,194,o),
(93,63,o),
(224,-7,o),
(308,-7,qs),
(408,-7,o),
(552,95,o),
(580,188,qs),
(585,206,o),
(567,227,o),
(549,227,qs),
(383,227,ls),
(370,227,o),
(352,215,o),
(342,201,qs),
(327,183,o),
(303,183,qs),
(276,183,o),
(245,233,o),
(245,282,qs),
(245,331,o),
(276,381,o),
(303,381,qs),
(327,381,o),
(342,363,qs),
(352,349,o),
(370,337,o),
(383,337,qs),
(549,337,ls),
(567,337,o),
(585,358,o),
(580,376,qs),
(552,469,o),
(408,571,o),
(308,571,qs),
(224,571,o),
(93,501,o),
(20,370,o),
(20,282,qs)
);
}
);
userData = {
assembly = "MPPEM[ ]	/* MeasurePixelPerEm */
PUSHB[ ]	/* 1 value pushed */
29 
LT[ ]	/* LessThan */
IF[ ]	/* If */
NPUSHB[ ]	/* 34 values pushed */
0 1 2 4 2 1 114 0 4 3 3 4 112 0 2 2 0 97 0 0 0 37 77 0 3 3 5 98 0 5 5 35 5 78 
ELSE[ ]	/* Else */
NPUSHB[ ]	/* 36 values pushed */
0 1 2 4 2 1 4 128 0 4 3 2 4 3 126 0 2 2 0 97 0 0 0 37 77 0 3 3 5 98 0 5 5 35 5 78 
EIF[ ]	/* EndIf */
NPUSHB[ ]	/* 9 values pushed */
36 51 36 35 52 34 6 8 28 
CALL[ ]	/* CallFunction */";
};
width = 609;
}
);
note = c;
unicode = 99;
},
{
glyphname = d;
layers = (
{
layerId = m01;
shapes = (
{
closed = 1;
nodes = (
(387,526,o),
(308,571,o),
(253,571,qs),
(187,571,o),
(81,502,o),
(20,371,o),
(20,282,qs),
(20,193,o),
(81,62,o),
(187,-7,o),
(253,-7,qs),
(308,-7,o),
(387,38,o),
(408,77,q),
(408,35,ls),
(408,19,o),
(427,0,o),
(443,0,qs),
(620,0,ls),
(630,0,o),
(630,10,qs),
(630,705,ls),
(630,722,o),
(612,740,o),
(595,740,qs),
(418,740,ls),
(408,740,o),
(408,730,qs),
(408,487,l)
);
},
{
closed = 1;
nodes = (
(245,327,o),
(291,377,o),
(327,377,qs),
(363,377,o),
(409,327,o),
(409,282,qs),
(409,237,o),
(363,187,o),
(327,187,qs),
(291,187,o),
(245,237,o),
(245,282,qs)
);
}
);
userData = {
assembly = "NPUSHB[ ]	/* 10 values pushed */
28 1 5 3 14 1 1 4 2 76 
MPPEM[ ]	/* MeasurePixelPerEm */
PUSHB[ ]	/* 1 value pushed */
34 
LT[ ]	/* LessThan */
IF[ ]	/* If */
NPUSHB[ ]	/* 33 values pushed */
0 0 0 1 97 2 1 1 1 29 77 0 5 5 3 97 0 3 3 37 77 0 4 4 1 97 2 1 1 1 29 1 78 
ELSE[ ]	/* Else */
NPUSHB[ ]	/* 31 values pushed */
0 5 5 3 97 0 3 3 37 77 0 0 0 1 95 0 1 1 29 77 0 4 4 2 97 0 2 2 35 2 78 
EIF[ ]	/* EndIf */
NPUSHB[ ]	/* 9 values pushed */
36 36 38 37 52 49 6 8 28 
CALL[ ]	/* CallFunction */";
};
width = 680;
}
);
note = d;
unicode = 100;
},
{
glyphname = e;
layers = (
{
layerId = m01;
shapes = (
{
closed = 1;
nodes = (
(333,397,o),
(369,371,o),
(371,346,qs),
(371,340,o),
(366,340,qs),
(245,340,ls),
(243,340,o),
(239,343,o),
(240,346,qs),
(252,397,o),
(308,397,qs)
);
},
{
closed = 1;
nodes = (
(333,170,o),
(297,170,qs),
(241,170,o),
(237,243,q),
(560,243,ls),
(595,243,o),
(596,276,qs),
(596,287,ls),
(596,374,o),
(523,502,o),
(392,571,o),
(308,571,qs),
(224,571,o),
(93,501,o),
(20,370,o),
(20,282,qs),
(20,194,o),
(93,63,o),
(224,-7,o),
(308,-7,qs),
(401,-7,o),
(544,88,o),
(573,164,qs),
(580,181,o),
(562,203,o),
(543,203,qs),
(349,203,l)
);
}
);
userData = {
assembly = "PUSHB[ ]	/* 7 values pushed */
7 1 2 0 1 1 76 
MPPEM[ ]	/* MeasurePixelPerEm */
PUSHB[ ]	/* 1 value pushed */
38 
LT[ ]	/* LessThan */
IF[ ]	/* If */
NPUSHB[ ]	/* 38 values pushed */
8 1 2 5 6 6 2 114 0 0 0 5 2 0 5 103 7 1 1 1 4 97 0 4 4 37 77 0 6 6 3 98 0 3 3 35 3 78 
ELSE[ ]	/* Else */
NPUSHB[ ]	/* 39 values pushed */
8 1 2 5 6 5 2 6 128 0 0 0 5 2 0 5 103 7 1 1 1 4 97 0 4 4 37 77 0 6 6 3 98 0 3 3 35 3 78 
EIF[ ]	/* EndIf */
NPUSHB[ ]	/* 24 values pushed */
12 11 0 0 36 34 33 31 26 24 18 16 11 37 12 37 0 10 0 9 35 9 8 23 
CALL[ ]	/* CallFunction */";
};
width = 616;
}
);
note = e;
unicode = 101;
},
{
glyphname = f;
layers = (
{
layerId = m01;
shapes = (
{
closed = 1;
nodes = (
(70,0,o),
(80,0,qs),
(282,0,ls),
(292,0,o),
(292,10,qs),
(292,362,ls),
(292,372,o),
(302,372,qs),
(365,372,ls),
(375,372,o),
(375,382,qs),
(375,547,ls),
(375,557,o),
(365,557,qs),
(294,557,l),
(302,601,o),
(339,605,qs),
(375,608,o),
(375,639,qs),
(375,793,l),
(283,801,o),
(148,752,o),
(74,644,o),
(70,567,qs),
(70,557,o),
(60,557,qs),
(20,557,ls),
(10,557,o),
(10,547,qs),
(10,382,ls),
(10,372,o),
(20,372,qs),
(35,372,ls),
(52,372,o),
(70,354,o),
(70,337,qs),
(70,10,ls)
);
}
);
userData = {
assembly = "NPUSHB[ ]	/* 30 values pushed */
16 1 1 74 3 1 0 0 1 97 2 1 1 1 31 77 0 4 4 29 4 78 51 51 42 51 50 5 8 27 
CALL[ ]	/* CallFunction */";
};
width = 385;
}
);
note = f;
unicode = 102;
},
{
glyphname = g;
layers = (
{
layerId = m01;
shapes = (
{
closed = 1;
nodes = (
(20,193,o),
(81,62,o),
(187,-7,o),
(253,-7,qs),
(308,-7,o),
(388,38,o),
(409,77,q),
(409,10,ls),
(409,-45,o),
(365,-85,o),
(326,-85,qs),
(286,-85,o),
(267,-66,qs),
(264,-63,ls),
(253,-51,o),
(238,-41,o),
(226,-41,qs),
(36,-41,l),
(47,-150,o),
(206,-277,o),
(342,-277,qs),
(443,-277,o),
(572,-199,o),
(630,-69,o),
(630,10,qs),
(630,554,ls),
(630,564,o),
(620,564,qs),
(444,564,ls),
(428,564,o),
(409,546,o),
(409,529,qs),
(409,487,l),
(388,526,o),
(308,571,o),
(253,571,qs),
(187,571,o),
(81,502,o),
(20,371,o),
(20,282,qs)
);
},
{
closed = 1;
nodes = (
(409,237,o),
(363,187,o),
(327,187,qs),
(291,187,o),
(245,237,o),
(245,282,qs),
(245,327,o),
(291,377,o),
(327,377,qs),
(363,377,o),
(409,327,o),
(409,282,qs)
);
}
);
userData = {
assembly = "MPPEM[ ]	/* MeasurePixelPerEm */
PUSHB[ ]	/* 1 value pushed */
34 
LT[ ]	/* LessThan */
IF[ ]	/* If */
NPUSHB[ ]	/* 10 values pushed */
6 1 6 0 32 1 5 7 2 76 
ELSE[ ]	/* Else */
NPUSHB[ ]	/* 10 values pushed */
6 1 6 1 32 1 5 7 2 76 
EIF[ ]	/* EndIf */
MPPEM[ ]	/* MeasurePixelPerEm */
PUSHB[ ]	/* 1 value pushed */
29 
LT[ ]	/* LessThan */
IF[ ]	/* If */
NPUSHB[ ]	/* 39 values pushed */
0 3 5 4 4 3 114 0 6 6 0 97 1 1 0 0 37 77 0 7 7 5 97 0 5 5 35 77 0 4 4 2 98 0 2 2 39 2 78 
ELSE[ ]	/* Else */
MPPEM[ ]	/* MeasurePixelPerEm */
PUSHB[ ]	/* 1 value pushed */
34 
LT[ ]	/* LessThan */
IF[ ]	/* If */
NPUSHB[ ]	/* 40 values pushed */
0 3 5 4 5 3 4 128 0 6 6 0 97 1 1 0 0 37 77 0 7 7 5 97 0 5 5 35 77 0 4 4 2 98 0 2 2 39 2 78 
ELSE[ ]	/* Else */
NPUSHB[ ]	/* 44 values pushed */
0 3 5 4 5 3 4 128 0 1 1 31 77 0 6 6 0 97 0 0 0 37 77 0 7 7 5 97 0 5 5 35 77 0 4 4 2 98 0 2 2 39 2 78 
EIF[ ]	/* EndIf */
EIF[ ]	/* EndIf */
NPUSHB[ ]	/* 11 values pushed */
36 37 37 36 34 37 53 34 8 8 30 
CALL[ ]	/* CallFunction */";
};
width = 680;
}
);
note = g;
unicode = 103;
},
{
glyphname = h;
layers = (
{
layerId = m01;
shapes = (
{
closed = 1;
nodes = (
(50,0,o),
(60,0,qs),
(262,0,ls),
(272,0,o),
(272,10,qs),
(272,299,ls),
(272,339,o),
(314,386,o),
(351,386,qs),
(387,386,o),
(430,339,o),
(430,299,qs),
(430,45,ls),
(430,23,o),
(453,0,o),
(475,0,qs),
(641,0,ls),
(651,0,o),
(651,10,qs),
(651,327,ls),
(651,438,o),
(542,568,o),
(445,568,qs),
(385,568,o),
(298,518,o),
(272,478,q),
(272,695,ls),
(272,717,o),
(249,740,o),
(227,740,qs),
(60,740,ls),
(50,740,o),
(50,730,qs),
(50,10,ls)
);
}
);
userData = {
assembly = "PUSHB[ ]	/* 6 values pushed */
7 1 3 1 1 76 
MPPEM[ ]	/* MeasurePixelPerEm */
PUSHB[ ]	/* 1 value pushed */
10 
LT[ ]	/* LessThan */
IF[ ]	/* If */
NPUSHB[ ]	/* 31 values pushed */
0 3 1 2 1 3 2 128 0 0 0 2 95 4 1 2 2 29 77 0 1 1 31 77 4 1 2 2 29 2 78 
ELSE[ ]	/* Else */
NPUSHB[ ]	/* 31 values pushed */
0 3 1 2 1 3 2 128 0 0 0 2 95 4 1 2 2 29 77 0 1 1 37 77 4 1 2 2 29 2 78 
EIF[ ]	/* EndIf */
PUSHB[ ]	/* 8 values pushed */
52 37 52 37 49 5 8 27 
CALL[ ]	/* CallFunction */";
};
width = 697;
}
);
note = h;
unicode = 104;
},
{
glyphname = i;
lastChange = "2022-10-20 09:12:44 +0000";
layers = (
{
layerId = m01;
shapes = (
{
closed = 1;
nodes = (
(262,0,ls),
(272,0,o),
(272,10,qs),
(272,529,ls),
(272,546,o),
(254,564,o),
(237,564,qs),
(60,564,ls),
(50,564,o),
(50,554,qs),
(50,35,ls),
(50,13,o),
(63,0,o),
(85,0,cs)
);
},
{
closed = 1;
nodes = (
(219,609,o),
(283,671,o),
(283,718,qs),
(283,766,o),
(219,829,o),
(162,829,qs),
(105,829,o),
(44,767,o),
(44,718,qs),
(44,670,o),
(105,609,o),
(162,609,qs)
);
}
);
userData = {
assembly = "NPUSHB[ ]	/* 32 values pushed */
0 2 4 1 3 0 2 3 105 0 0 0 31 77 0 1 1 29 1 78 13 13 13 24 13 23 38 52 49 5 8 25 
CALL[ ]	/* CallFunction */";
};
width = 322;
}
);
note = i;
unicode = 105;
},
{
glyphname = j;
layers = (
{
layerId = m01;
shapes = (
{
closed = 1;
nodes = (
(50,564,o),
(50,554,qs),
(50,-43,ls),
(50,-63,o),
(31,-81,o),
(9,-81,qs),
(1,-81,ls),
(-16,-81,o),
(-34,-100,o),
(-34,-116,qs),
(-34,-270,l),
(40,-270,ls),
(272,-270,o),
(272,-39,qs),
(272,529,ls),
(272,546,o),
(254,564,o),
(237,564,qs),
(60,564,ls)
);
},
{
closed = 1;
nodes = (
(219,609,o),
(283,671,o),
(283,718,qs),
(283,766,o),
(219,829,o),
(162,829,qs),
(105,829,o),
(44,767,o),
(44,718,qs),
(44,670,o),
(105,609,o),
(162,609,qs)
);
}
);
userData = {
assembly = "NPUSHB[ ]	/* 47 values pushed */
0 3 6 1 4 0 3 4 105 5 1 0 0 31 77 0 2 2 1 96 0 1 1 33 1 78 19 19 1 0 19 30 19 29 25 23 13 10 7 5 0 18 1 17 7 8 22 
CALL[ ]	/* CallFunction */";
};
width = 320;
}
);
note = j;
unicode = 106;
},
{
glyphname = k;
layers = (
{
layerId = m01;
shapes = (
{
closed = 1;
nodes = (
(50,19,o),
(69,0,o),
(85,0,qs),
(262,0,ls),
(272,0,o),
(272,10,qs),
(272,225,l),
(407,7,ls),
(412,0,o),
(419,0,qs),
(661,0,ls),
(667,0,o),
(671,8,o),
(667,12,q),
(471,266,ls),
(460,281,o),
(470,294,qs),
(662,552,ls),
(666,557,o),
(662,564,o),
(656,564,qs),
(440,564,ls),
(413,564,o),
(398,541,qs),
(272,353,l),
(272,705,ls),
(272,722,o),
(254,740,o),
(237,740,qs),
(60,740,ls),
(50,740,o),
(50,730,qs),
(50,35,ls)
);
}
);
userData = {
assembly = "NPUSHB[ ]	/* 38 values pushed */
25 18 7 3 2 1 1 76 0 0 0 2 95 3 1 2 2 29 77 0 1 1 31 77 3 1 2 2 29 2 78 53 41 37 49 4 8 26 
CALL[ ]	/* CallFunction */";
};
width = 676;
}
);
note = k;
unicode = 107;
},
{
glyphname = l;
layers = (
{
layerId = m01;
shapes = (
{
closed = 1;
nodes = (
(50,11,o),
(69,-8,o),
(85,-8,qs),
(262,-8,ls),
(272,-8,o),
(272,2,qs),
(272,727,ls),
(272,744,o),
(254,762,o),
(237,762,qs),
(60,762,ls),
(50,762,o),
(50,752,qs),
(50,27,ls)
);
}
);
userData = {
assembly = "NPUSHB[ ]	/* 16 values pushed */
0 0 0 1 95 0 1 1 29 1 78 52 49 2 8 24 
CALL[ ]	/* CallFunction */";
};
width = 322;
}
);
note = l;
unicode = 108;
},
{
glyphname = m;
layers = (
{
layerId = m01;
shapes = (
{
closed = 1;
nodes = (
(809,23,o),
(832,0,o),
(854,0,qs),
(1020,0,ls),
(1030,0,o),
(1030,10,qs),
(1030,327,ls),
(1030,438,o),
(911,568,o),
(803,568,qs),
(738,568,o),
(632,528,o),
(604,488,q),
(577,534,o),
(500,568,o),
(435,568,qs),
(379,568,o),
(296,524,o),
(272,488,q),
(272,519,ls),
(272,541,o),
(249,564,o),
(227,564,qs),
(60,564,ls),
(50,564,o),
(50,554,qs),
(50,10,ls),
(50,0,o),
(60,0,qs),
(262,0,ls),
(272,0,o),
(272,10,qs),
(272,299,ls),
(272,335,o),
(314,376,o),
(351,376,qs),
(387,376,o),
(430,335,o),
(430,299,qs),
(430,45,ls),
(430,23,o),
(453,0,o),
(475,0,qs),
(641,0,ls),
(651,0,o),
(651,10,qs),
(651,299,ls),
(651,335,o),
(693,376,o),
(730,376,qs),
(766,376,o),
(809,335,o),
(809,299,qs),
(809,45,ls)
);
}
);
userData = {
assembly = "NPUSHB[ ]	/* 39 values pushed */
40 34 2 0 4 1 76 2 1 0 0 4 97 6 5 2 4 4 31 77 7 3 2 1 1 29 1 78 52 36 37 51 52 37 52 34 8 8 30 
CALL[ ]	/* CallFunction */";
};
width = 1076;
}
);
note = m;
unicode = 109;
},
{
glyphname = n;
layers = (
{
layerId = m01;
shapes = (
{
closed = 1;
nodes = (
(430,23,o),
(453,0,o),
(475,0,qs),
(641,0,ls),
(651,0,o),
(651,10,qs),
(651,327,ls),
(651,438,o),
(542,568,o),
(445,568,qs),
(385,568,o),
(298,518,o),
(272,478,q),
(272,519,ls),
(272,541,o),
(249,564,o),
(227,564,qs),
(60,564,ls),
(50,564,o),
(50,554,qs),
(50,35,ls),
(50,19,o),
(69,0,o),
(85,0,qs),
(262,0,ls),
(272,0,o),
(272,10,qs),
(272,299,ls),
(272,339,o),
(314,386,o),
(351,386,qs),
(387,386,o),
(430,339,o),
(430,299,qs),
(430,45,ls)
);
}
);
userData = {
assembly = "NPUSHB[ ]	/* 35 values pushed */
21 1 0 2 1 76 0 0 2 1 2 0 1 128 3 1 2 2 31 77 4 1 1 1 29 1 78 52 37 52 52 34 5 8 27 
CALL[ ]	/* CallFunction */";
};
width = 697;
}
);
note = n;
unicode = 110;
},
{
glyphname = o;
layers = (
{
layerId = m01;
shapes = (
{
closed = 1;
nodes = (
(616,370,o),
(539,501,o),
(403,571,o),
(318,571,qs),
(233,571,o),
(97,501,o),
(20,370,o),
(20,282,qs),
(20,194,o),
(97,63,o),
(233,-7,o),
(318,-7,qs),
(403,-7,o),
(539,63,o),
(616,194,o),
(616,282,qs)
);
},
{
closed = 1;
nodes = (
(245,330,o),
(287,379,o),
(318,379,qs),
(349,379,o),
(391,330,o),
(391,282,qs),
(391,234,o),
(349,185,o),
(318,185,qs),
(286,185,o),
(245,234,o),
(245,282,qs)
);
}
);
userData = {
assembly = "NPUSHB[ ]	/* 28 values pushed */
0 3 3 1 97 0 1 1 37 77 0 2 2 0 97 0 0 0 35 0 78 36 37 38 34 4 8 26 
CALL[ ]	/* CallFunction */";
};
width = 636;
}
);
note = o;
unicode = 111;
},
{
glyphname = p;
layers = (
{
layerId = m01;
shapes = (
{
closed = 1;
nodes = (
(293,39,o),
(372,-6,o),
(427,-6,qs),
(493,-6,o),
(599,63,o),
(660,194,o),
(660,283,qs),
(660,372,o),
(599,503,o),
(493,572,o),
(427,572,qs),
(372,572,o),
(293,527,o),
(272,488,q),
(272,520,ls),
(272,542,o),
(249,565,o),
(227,565,qs),
(60,565,ls),
(50,565,o),
(50,555,qs),
(50,-235,ls),
(50,-257,o),
(73,-280,o),
(95,-280,qs),
(262,-280,ls),
(272,-280,o),
(272,-270,qs),
(272,78,l)
);
},
{
closed = 1;
nodes = (
(435,238,o),
(389,188,o),
(353,188,qs),
(317,188,o),
(271,238,o),
(271,283,qs),
(271,328,o),
(317,378,o),
(353,378,qs),
(389,378,o),
(435,328,o),
(435,283,qs)
);
}
);
userData = {
assembly = "NPUSHB[ ]	/* 10 values pushed */
14 1 4 1 28 1 3 5 2 76 
MPPEM[ ]	/* MeasurePixelPerEm */
PUSHB[ ]	/* 1 value pushed */
34 
LT[ ]	/* LessThan */
IF[ ]	/* If */
NPUSHB[ ]	/* 27 values pushed */
0 4 4 1 97 2 1 1 1 31 77 0 5 5 3 97 0 3 3 35 77 0 0 0 33 0 78 
ELSE[ ]	/* Else */
MPPEM[ ]	/* MeasurePixelPerEm */
PUSHB[ ]	/* 1 value pushed */
50 
LT[ ]	/* LessThan */
IF[ ]	/* If */
NPUSHB[ ]	/* 31 values pushed */
0 1 1 31 77 0 4 4 2 97 0 2 2 37 77 0 5 5 3 97 0 3 3 35 77 0 0 0 33 0 78 
ELSE[ ]	/* Else */
NPUSHB[ ]	/* 31 values pushed */
0 4 4 2 97 0 2 2 37 77 0 5 5 3 97 0 3 3 35 77 0 0 0 1 95 0 1 1 31 0 78 
EIF[ ]	/* EndIf */
EIF[ ]	/* EndIf */
NPUSHB[ ]	/* 9 values pushed */
36 36 38 37 52 49 6 8 28 
CALL[ ]	/* CallFunction */";
};
width = 680;
}
);
note = p;
unicode = 112;
},
{
glyphname = q;
layers = (
{
layerId = m01;
shapes = (
{
closed = 1;
nodes = (
(438,-280,o),
(448,-280,qs),
(615,-280,ls),
(637,-280,o),
(660,-257,o),
(660,-235,qs),
(660,555,ls),
(660,565,o),
(650,565,qs),
(483,565,ls),
(461,565,o),
(438,542,o),
(438,520,qs),
(438,488,l),
(417,527,o),
(338,572,o),
(283,572,qs),
(217,572,o),
(111,503,o),
(50,372,o),
(50,283,qs),
(50,194,o),
(111,63,o),
(217,-6,o),
(283,-6,qs),
(338,-6,o),
(417,39,o),
(438,78,q),
(438,-270,ls)
);
},
{
closed = 1;
nodes = (
(275,328,o),
(321,378,o),
(357,378,qs),
(393,378,o),
(439,328,o),
(439,283,qs),
(439,238,o),
(393,188,o),
(357,188,qs),
(321,188,o),
(275,238,o),
(275,283,qs)
);
}
);
userData = {
assembly = "MPPEM[ ]	/* MeasurePixelPerEm */
PUSHB[ ]	/* 1 value pushed */
34 
LT[ ]	/* LessThan */
IF[ ]	/* If */
NPUSHB[ ]	/* 10 values pushed */
14 1 5 1 0 1 0 4 2 76 
ELSE[ ]	/* Else */
NPUSHB[ ]	/* 10 values pushed */
14 1 5 2 0 1 0 4 2 76 
EIF[ ]	/* EndIf */
MPPEM[ ]	/* MeasurePixelPerEm */
PUSHB[ ]	/* 1 value pushed */
34 
LT[ ]	/* LessThan */
IF[ ]	/* If */
NPUSHB[ ]	/* 27 values pushed */
0 5 5 1 97 2 1 1 1 37 77 0 4 4 0 97 0 0 0 35 77 0 3 3 33 3 78 
ELSE[ ]	/* Else */
MPPEM[ ]	/* MeasurePixelPerEm */
PUSHB[ ]	/* 1 value pushed */
50 
LT[ ]	/* LessThan */
IF[ ]	/* If */
NPUSHB[ ]	/* 31 values pushed */
0 2 2 31 77 0 5 5 1 97 0 1 1 37 77 0 4 4 0 97 0 0 0 35 77 0 3 3 33 3 78 
ELSE[ ]	/* Else */
NPUSHB[ ]	/* 31 values pushed */
0 5 5 1 97 0 1 1 37 77 0 4 4 0 97 0 0 0 35 77 0 3 3 2 95 0 2 2 31 3 78 
EIF[ ]	/* EndIf */
EIF[ ]	/* EndIf */
NPUSHB[ ]	/* 9 values pushed */
36 35 52 53 38 34 6 8 28 
CALL[ ]	/* CallFunction */";
};
width = 680;
}
);
note = q;
unicode = 113;
},
{
glyphname = r;
layers = (
{
layerId = m01;
shapes = (
{
closed = 1;
nodes = (
(272,287,o),
(331,331,o),
(394,331,qs),
(422,331,ls),
(439,331,o),
(457,350,o),
(457,366,qs),
(457,568,l),
(404,568,o),
(306,509,o),
(272,460,q),
(272,529,ls),
(272,546,o),
(254,564,o),
(237,564,qs),
(60,564,ls),
(50,564,o),
(50,554,qs),
(50,10,ls),
(50,0,o),
(60,0,qs),
(262,0,ls),
(272,0,o),
(272,10,qs),
(272,231,ls)
);
}
);
userData = {
assembly = "NPUSHB[ ]	/* 30 values pushed */
13 1 3 1 1 76 0 3 3 1 97 2 1 1 1 31 77 0 0 0 29 0 78 51 21 51 49 4 8 26 
CALL[ ]	/* CallFunction */";
};
width = 467;
}
);
note = r;
unicode = 114;
},
{
glyphname = s;
layers = (
{
layerId = m01;
shapes = (
{
closed = 1;
nodes = (
(541,233,o),
(479,306,o),
(395,336,o),
(334,348,qs),
(288,357,o),
(246,374,o),
(246,391,qs),
(246,404,o),
(264,417,o),
(281,417,qs),
(316,417,o),
(333,395,q),
(333,395,l),
(345,380,o),
(360,369,o),
(374,369,qs),
(503,369,ls),
(521,369,o),
(539,390,o),
(534,407,qs),
(512,481,o),
(387,571,o),
(286,571,qs),
(209,571,o),
(101,522,o),
(46,437,o),
(46,385,qs),
(46,325,o),
(105,257,o),
(184,229,o),
(245,217,qs),
(295,207,o),
(337,191,o),
(337,172,qs),
(337,161,o),
(317,146,o),
(300,146,qs),
(263,146,o),
(245,168,q),
(235,183,o),
(219,195,o),
(205,195,qs),
(60,195,ls),
(41,195,o),
(23,175,o),
(28,157,qs),
(50,84,o),
(195,-7,o),
(301,-7,qs),
(374,-7,o),
(483,39,o),
(541,119,o),
(541,169,qs)
);
}
);
userData = {
assembly = "MPPEM[ ]	/* MeasurePixelPerEm */
PUSHB[ ]	/* 1 value pushed */
26 
LT[ ]	/* LessThan */
IF[ ]	/* If */
NPUSHB[ ]	/* 34 values pushed */
0 4 5 1 5 4 114 0 1 2 2 1 112 0 5 5 3 97 0 3 3 37 77 0 2 2 0 98 0 0 0 35 0 78 
ELSE[ ]	/* Else */
NPUSHB[ ]	/* 36 values pushed */
0 4 5 1 5 4 1 128 0 1 2 5 1 2 126 0 5 5 3 97 0 3 3 37 77 0 2 2 0 98 0 0 0 35 0 78 
EIF[ ]	/* EndIf */
NPUSHB[ ]	/* 9 values pushed */
36 52 44 35 52 34 6 8 28 
CALL[ ]	/* CallFunction */";
};
width = 579;
}
);
note = s;
unicode = 115;
},
{
glyphname = t;
layers = (
{
layerId = m01;
shapes = (
{
closed = 1;
nodes = (
(85,231,ls),
(85,0,o),
(317,0,qs),
(391,0,ls),
(401,0,o),
(401,10,qs),
(401,154,ls),
(401,171,o),
(383,189,o),
(366,189,qs),
(348,189,ls),
(326,189,o),
(307,207,o),
(307,227,qs),
(307,379,l),
(389,379,ls),
(399,379,o),
(399,389,qs),
(399,554,ls),
(399,564,o),
(389,564,qs),
(307,564,l),
(307,690,ls),
(307,700,o),
(297,700,qs),
(95,700,ls),
(85,700,o),
(85,690,qs),
(85,609,ls),
(85,587,o),
(62,564,o),
(40,564,qs),
(25,564,ls),
(15,564,o),
(15,554,qs),
(15,389,ls),
(15,379,o),
(25,379,qs),
(85,379,l)
);
}
);
userData = {
assembly = "NPUSHB[ ]	/* 50 values pushed */
0 2 2 28 77 4 7 2 0 0 1 97 3 1 1 1 31 77 0 5 5 6 96 0 6 6 29 6 78 1 0 36 33 29 26 23 21 18 16 14 11 7 4 0 38 1 38 8 8 22 
CALL[ ]	/* CallFunction */";
};
width = 436;
}
);
note = t;
unicode = 116;
},
{
glyphname = u;
lastChange = "2023-01-11 15:49:06 +0000";
layers = (
{
layerId = m01;
shapes = (
{
closed = 1;
nodes = (
(271,546,o),
(248,569,o),
(226,569,qs),
(60,569,ls),
(50,569,o),
(50,559,qs),
(50,242,ls),
(50,131,o),
(159,1,o),
(256,1,qs),
(316,1,o),
(403,51,o),
(429,91,q),
(429,45,ls),
(429,23,o),
(452,0,o),
(474,0,qs),
(641,0,ls),
(651,0,o),
(651,10,qs),
(651,559,ls),
(651,569,o),
(641,569,qs),
(439,569,ls),
(429,569,o),
(429,559,qs),
(429,270,ls),
(429,230,o),
(387,183,o),
(350,183,qs),
(314,183,o),
(271,230,o),
(271,270,qs),
(271,524,ls)
);
}
);
userData = {
assembly = "NPUSHB[ ]	/* 35 values pushed */
20 1 2 0 1 76 0 0 1 2 1 0 2 128 4 1 1 1 31 77 3 1 2 2 29 2 78 52 37 51 52 34 5 8 27 
CALL[ ]	/* CallFunction */";
};
width = 697;
}
);
note = u;
unicode = 117;
},
{
glyphname = v;
layers = (
{
layerId = m01;
shapes = (
{
closed = 1;
nodes = (
(32,564,o),
(16,543,o),
(22,524,qs),
(183,41,ls),
(197,0,o),
(240,0,qs),
(431,0,ls),
(474,0,o),
(488,41,qs),
(649,524,ls),
(655,543,o),
(639,564,o),
(620,564,qs),
(457,564,ls),
(425,564,o),
(418,534,qs),
(348,259,ls),
(344,244,o),
(328,244,o),
(324,259,qs),
(253,534,ls),
(246,564,o),
(214,564,qs),
(51,564,ls)
);
}
);
userData = {
assembly = "NPUSHB[ ]	/* 33 values pushed */
2 4 2 0 0 31 77 0 1 1 3 96 0 3 3 29 3 78 1 0 18 15 11 8 5 4 0 23 1 22 5 8 22 
CALL[ ]	/* CallFunction */";
};
width = 671;
}
);
note = v;
unicode = 118;
},
{
glyphname = w;
layers = (
{
layerId = m01;
shapes = (
{
closed = 1;
nodes = (
(17,564,o),
(12,558,o),
(13,553,qs),
(156,41,ls),
(167,0,o),
(204,0,qs),
(364,0,ls),
(401,0,o),
(412,41,qs),
(444,155,ls),
(447,166,o),
(460,166,o),
(463,155,qs),
(495,41,ls),
(507,0,o),
(543,0,qs),
(704,0,ls),
(740,0,o),
(751,41,qs),
(895,553,ls),
(896,558,o),
(891,564,o),
(886,564,qs),
(740,564,ls),
(700,564,o),
(691,524,qs),
(634,259,ls),
(631,244,o),
(617,244,o),
(614,259,qs),
(554,534,ls),
(551,549,o),
(543,557,qs),
(534,564,o),
(523,564,qs),
(384,564,ls),
(373,564,o),
(364,557,qs),
(356,549,o),
(353,534,qs),
(295,259,ls),
(291,244,o),
(278,244,o),
(274,259,qs),
(217,524,ls),
(208,564,o),
(168,564,qs),
(22,564,ls)
);
}
);
userData = {
assembly = "NPUSHB[ ]	/* 49 values pushed */
0 6 6 0 95 4 2 8 3 0 0 31 77 3 1 1 1 5 96 7 1 5 5 29 5 78 1 0 42 39 36 35 32 29 24 22 19 18 13 10 5 4 0 47 1 46 9 8 22 
CALL[ ]	/* CallFunction */";
};
width = 903;
}
);
note = w;
unicode = 119;
},
{
glyphname = x;
layers = (
{
layerId = m01;
shapes = (
{
closed = 1;
nodes = (
(419,0,o),
(447,0,qs),
(653,0,ls),
(659,0,o),
(663,8,o),
(659,12,q),
(469,267,ls),
(464,275,o),
(469,281,q),
(651,552,ls),
(654,557,o),
(650,564,o),
(644,564,qs),
(423,564,ls),
(416,564,o),
(411,557,q),
(349,447,ls),
(346,442,o),
(338,442,o),
(335,446,qs),
(264,543,ls),
(249,564,o),
(221,564,qs),
(15,564,ls),
(9,564,o),
(5,557,o),
(9,552,qs),
(194,304,l),
(198,297,o),
(194,290,qs),
(18,12,ls),
(15,7,o),
(18,0,o),
(24,0,qs),
(246,0,ls),
(253,0,o),
(258,7,q),
(319,116,ls),
(322,121,o),
(330,121,o),
(333,117,qs),
(404,21,ls)
);
}
);
userData = {
assembly = "NPUSHB[ ]	/* 26 values pushed */
35 1 0 1 1 76 2 1 1 1 31 77 3 1 0 0 29 0 78 57 39 57 37 4 8 26 
CALL[ ]	/* CallFunction */";
};
width = 668;
}
);
note = x;
unicode = 120;
},
{
glyphname = y;
layers = (
{
layerId = m01;
shapes = (
{
closed = 1;
nodes = (
(351,302,o),
(334,301,o),
(330,314,qs),
(240,556,ls),
(237,564,o),
(229,564,qs),
(3,564,ls),
(-2,564,o),
(-7,557,o),
(-5,552,qs),
(225,28,l),
(89,-258,ls),
(87,-263,o),
(91,-270,o),
(96,-270,qs),
(297,-270,ls),
(327,-270,o),
(338,-243,qs),
(682,552,ls),
(684,557,o),
(679,564,o),
(674,564,qs),
(472,564,ls),
(442,564,o),
(432,536,qs),
(356,315,ls)
);
}
);
userData = {
assembly = "NPUSHB[ ]	/* 33 values pushed */
14 1 1 3 1 76 0 3 0 1 0 3 1 128 2 1 0 0 31 77 0 1 1 33 1 78 20 39 37 33 4 8 26 
CALL[ ]	/* CallFunction */";
};
width = 677;
}
);
note = y;
unicode = 121;
},
{
glyphname = z;
layers = (
{
layerId = m01;
shapes = (
{
closed = 1;
nodes = (
(488,564,o),
(478,564,qs),
(33,564,ls),
(23,564,o),
(23,554,qs),
(23,425,ls),
(23,403,o),
(46,380,o),
(68,380,qs),
(217,380,ls),
(224,380,o),
(227,373,o),
(222,368,qs),
(31,184,ls),
(20,173,o),
(20,159,qs),
(20,10,ls),
(20,0,o),
(30,0,qs),
(488,0,ls),
(498,0,o),
(498,10,qs),
(498,139,ls),
(498,161,o),
(475,184,o),
(453,184,qs),
(281,184,ls),
(274,184,o),
(271,191,o),
(276,196,qs),
(477,380,ls),
(488,391,o),
(488,405,qs),
(488,554,ls)
);
}
);
userData = {
assembly = "NPUSHB[ ]	/* 28 values pushed */
0 2 2 3 95 0 3 3 31 77 0 0 0 1 95 0 1 1 29 1 78 52 55 52 53 4 8 26 
CALL[ ]	/* CallFunction */";
};
width = 518;
}
);
note = z;
unicode = 122;
},
{
glyphname = braceleft;
layers = (
{
layerId = m01;
shapes = (
{
closed = 1;
nodes = (
(152,153,o),
(141,94,qs),
(127,18,o),
(127,-24,qs),
(127,-123,o),
(249,-231,o),
(354,-231,qs),
(430,-231,l),
(430,-54,l),
(396,-54,ls),
(364,-54,o),
(337,-26,o),
(337,0,qs),
(337,16,o),
(345,80,qs),
(355,154,o),
(355,187,qs),
(355,246,o),
(301,321,o),
(247,331,q),
(247,333,l),
(301,343,o),
(355,418,o),
(355,477,qs),
(355,510,o),
(345,584,qs),
(337,648,o),
(337,664,qs),
(337,690,o),
(364,718,o),
(396,718,qs),
(430,718,l),
(430,895,l),
(354,895,ls),
(249,895,o),
(127,787,o),
(127,688,qs),
(127,646,o),
(141,570,qs),
(152,511,o),
(152,486,qs),
(152,453,o),
(111,423,o),
(60,423,q),
(60,242,l),
(110,242,o),
(152,209,o),
(152,178,qs)
);
}
);
userData = {
assembly = "NPUSHB[ ]	/* 49 values pushed */
26 1 0 1 1 76 0 2 0 3 1 2 3 105 0 1 0 0 4 1 0 105 0 4 5 5 4 89 0 4 4 5 95 0 5 4 5 79 41 39 38 36 33 40 17 17 6 8 26 
CALL[ ]	/* CallFunction */";
};
width = 484;
}
);
note = braceleft;
unicode = 123;
},
{
glyphname = bar;
layers = (
{
layerId = m01;
shapes = (
{
closed = 1;
nodes = (
(20,828,l),
(20,-144,l),
(242,-144,l),
(242,828,l)
);
}
);
userData = {
assembly = "NPUSHB[ ]	/* 21 values pushed */
0 1 0 0 1 87 0 1 1 0 95 0 0 1 0 79 17 16 2 8 24 
CALL[ ]	/* CallFunction */";
};
width = 262;
}
);
note = bar;
unicode = 124;
},
{
glyphname = braceright;
layers = (
{
layerId = m01;
shapes = (
{
closed = 1;
nodes = (
(332,153,o),
(343,94,qs),
(357,18,o),
(357,-24,qs),
(357,-123,o),
(235,-231,o),
(130,-231,qs),
(54,-231,l),
(54,-54,l),
(88,-54,ls),
(120,-54,o),
(147,-26,o),
(147,0,qs),
(147,16,o),
(139,80,qs),
(129,154,o),
(129,187,qs),
(129,246,o),
(183,321,o),
(237,331,q),
(237,333,l),
(183,343,o),
(129,418,o),
(129,477,qs),
(129,510,o),
(139,584,qs),
(147,648,o),
(147,664,qs),
(147,690,o),
(120,718,o),
(88,718,qs),
(54,718,l),
(54,895,l),
(130,895,ls),
(235,895,o),
(357,787,o),
(357,688,qs),
(357,646,o),
(343,570,qs),
(332,511,o),
(332,486,qs),
(332,453,o),
(373,423,o),
(424,423,q),
(424,242,l),
(374,242,o),
(332,209,o),
(332,178,qs)
);
}
);
userData = {
assembly = "NPUSHB[ ]	/* 49 values pushed */
26 1 0 1 1 76 0 2 0 3 1 2 3 105 0 1 0 0 4 1 0 105 0 4 5 5 4 89 0 4 4 5 95 0 5 4 5 79 41 39 38 36 33 40 17 17 6 8 26 
CALL[ ]	/* CallFunction */";
};
width = 484;
}
);
note = braceright;
unicode = 125;
},
{
glyphname = asciitilde;
layers = (
{
layerId = m01;
shapes = (
{
closed = 1;
nodes = (
(183,181,o),
(186,190,q),
(192,222,o),
(219,250,o),
(244,250,qs),
(261,250,o),
(294,238,o),
(324,223,qs),
(360,204,o),
(419,183,o),
(455,183,qs),
(545,183,o),
(667,306,o),
(689,436,qs),
(690,441,o),
(685,447,o),
(680,447,qs),
(534,447,ls),
(526,447,o),
(524,438,qs),
(518,406,o),
(491,378,o),
(466,378,qs),
(449,378,o),
(415,391,o),
(387,405,qs),
(351,424,o),
(291,445,o),
(255,445,qs),
(166,445,o),
(45,322,o),
(22,192,qs),
(20,181,o),
(31,181,qs),
(175,181,ls)
);
}
);
userData = {
assembly = "PUSHB[ ]	/* 2 values pushed */
6 100 
WCVTP[ ]	/* WriteCVTInPixels */
NPUSHB[ ]	/* 46 values pushed */
0 2 5 0 2 89 3 1 1 0 5 0 1 5 105 0 2 2 0 98 4 6 2 0 2 0 82 1 0 30 28 24 22 17 15 12 10 6 4 0 34 1 33 7 8 22 
CALL[ ]	/* CallFunction */
PUSHB[ ]	/* 2 values pushed */
6 0 
WCVTP[ ]	/* WriteCVTInPixels */";
};
width = 711;
}
);
note = asciitilde;
unicode = 126;
},
{
glyphname = exclamdown;
layers = (
{
layerId = m01;
shapes = (
{
closed = 1;
nodes = (
(133,287,l),
(323,287,l),
(349,-187,l),
(107,-187,l)
);
},
{
closed = 1;
nodes = (
(355,419,o),
(285,356,o),
(228,356,qs),
(170,356,o),
(100,419,o),
(100,467,qs),
(100,514,o),
(170,576,o),
(228,576,qs),
(285,576,o),
(355,514,o),
(355,467,qs)
);
}
);
userData = {
assembly = "NPUSHB[ ]	/* 33 values pushed */
0 0 4 1 1 0 1 99 0 3 3 2 97 0 2 2 37 3 78 0 0 13 11 7 5 0 3 0 3 17 5 8 23 
CALL[ ]	/* CallFunction */";
};
width = 455;
}
);
note = exclamdown;
unicode = 161;
},
{
glyphname = cent;
layers = (
{
layerId = m01;
shapes = (
{
closed = 1;
nodes = (
(352,188,o),
(319,170,o),
(301,170,qs),
(267,170,o),
(232,213,o),
(232,253,qs),
(232,293,o),
(267,337,o),
(301,337,qs),
(319,337,o),
(349,321,o),
(356,302,q),
(559,302,l),
(553,396,o),
(421,506,o),
(326,513,q),
(326,589,l),
(264,589,l),
(264,513,l),
(150,503,o),
(20,370,o),
(20,254,qs),
(20,137,o),
(150,3,o),
(264,-7,q),
(264,-83,l),
(326,-83,l),
(326,-7,l),
(387,-2,o),
(490,49,o),
(555,142,o),
(559,205,q),
(356,205,l)
);
}
);
userData = {
assembly = "NPUSHB[ ]	/* 66 values pushed */
16 13 2 3 1 7 4 2 0 4 2 76 0 2 3 5 3 2 5 128 6 1 5 4 3 5 4 126 0 1 0 3 2 1 3 105 0 4 0 0 4 89 0 4 4 0 95 0 0 4 0 79 0 0 0 32 0 32 36 34 20 24 21 7 8 27 
CALL[ ]	/* CallFunction */";
};
width = 579;
}
);
note = cent;
unicode = 162;
},
{
glyphname = sterling;
layers = (
{
layerId = m01;
shapes = (
{
closed = 1;
nodes = (
(91,493,o),
(108,421,q),
(31,421,l),
(31,274,l),
(134,274,l),
(129,216,o),
(82,133,o),
(36,98,q),
(63,-6,l),
(615,-6,l),
(615,165,l),
(280,165,l),
(327,203,o),
(342,274,q),
(492,274,l),
(492,421,l),
(324,421,l),
(321,432,ls),
(314,457,o),
(302,506,o),
(302,522,qs),
(302,591,o),
(354,591,qs),
(402,591,o),
(409,531,q),
(613,531,l),
(606,639,o),
(470,771,o),
(346,771,qs),
(271,771,o),
(156,718,o),
(91,618,o),
(91,548,qs)
);
}
);
userData = {
assembly = "PUSHB[ ]	/* 6 values pushed */
24 1 6 5 1 76 
MPPEM[ ]	/* MeasurePixelPerEm */
PUSHB[ ]	/* 1 value pushed */
20 
LT[ ]	/* LessThan */
IF[ ]	/* If */
NPUSHB[ ]	/* 36 values pushed */
0 1 2 3 2 1 114 0 0 0 2 1 0 2 105 8 1 3 7 1 4 5 3 4 103 0 5 5 6 95 0 6 6 29 6 78 
ELSE[ ]	/* Else */
NPUSHB[ ]	/* 37 values pushed */
0 1 2 3 2 1 3 128 0 0 0 2 1 0 2 105 8 1 3 7 1 4 5 3 4 103 0 5 5 6 95 0 6 6 29 6 78 
EIF[ ]	/* EndIf */
NPUSHB[ ]	/* 12 values pushed */
17 20 17 18 17 21 33 18 34 9 8 31 
CALL[ ]	/* CallFunction */";
};
width = 679;
}
);
note = sterling;
unicode = 163;
},
{
glyphname = currency;
layers = (
{
layerId = m01;
shapes = (
{
closed = 1;
nodes = (
(362,348,o),
(329,320,o),
(304,320,qs),
(279,320,o),
(246,348,o),
(246,377,qs),
(246,408,o),
(279,436,o),
(304,436,qs),
(329,436,o),
(362,408,o),
(362,377,qs)
);
},
{
closed = 1;
nodes = (
(543,219,l),
(494,268,l),
(532,316,o),
(532,379,qs),
(532,446,o),
(492,491,q),
(543,541,l),
(463,622,l),
(391,550,l),
(350,561,o),
(304,561,qs),
(254,561,o),
(213,549,q),
(140,622,l),
(60,541,l),
(113,488,l),
(76,443,o),
(76,379,qs),
(76,316,o),
(112,271,q),
(60,219,l),
(140,138,l),
(209,207,l),
(253,193,o),
(304,193,qs),
(356,193,o),
(395,206,q),
(463,138,l)
);
}
);
userData = {
assembly = "NPUSHB[ ]	/* 54 values pushed */
33 32 30 26 24 23 6 0 3 38 37 19 18 16 5 2 1 2 76 31 25 2 3 74 39 17 2 2 73 0 1 0 2 1 2 101 0 0 0 3 97 0 3 3 31 0 78 44 36 36 33 4 8 26 
CALL[ ]	/* CallFunction */";
};
width = 603;
}
);
note = currency;
unicode = 164;
},
{
glyphname = yen;
layers = (
{
layerId = m01;
shapes = (
{
closed = 1;
nodes = (
(675,128,l),
(675,272,l),
(505,272,l),
(524,308,l),
(675,308,l),
(675,452,l),
(598,452,l),
(730,708,l),
(480,708,l),
(367,424,l),
(254,708,l),
(0,708,l),
(132,452,l),
(53,452,l),
(53,308,l),
(206,308,l),
(225,272,l),
(53,272,l),
(53,128,l),
(254,128,l),
(254,0,l),
(476,0,l),
(476,128,l)
);
}
);
userData = {
assembly = "NPUSHB[ ]	/* 54 values pushed */
12 1 3 4 1 76 7 1 4 8 1 3 2 4 3 104 9 1 2 10 1 1 0 2 1 103 6 1 5 5 28 77 0 0 0 29 0 78 22 21 20 19 17 17 18 17 17 17 17 17 16 11 8 31 
CALL[ ]	/* CallFunction */";
};
width = 730;
}
);
note = yen;
unicode = 165;
},
{
glyphname = brokenbar;
layers = (
{
layerId = m01;
shapes = (
{
closed = 1;
nodes = (
(105,287,l),
(105,-144,l),
(327,-144,l),
(327,287,l)
);
},
{
closed = 1;
nodes = (
(327,398,l),
(327,828,l),
(105,828,l),
(105,398,l)
);
}
);
userData = {
assembly = "NPUSHB[ ]	/* 31 values pushed */
0 2 0 3 1 2 3 103 0 1 0 0 1 87 0 1 1 0 95 0 0 1 0 79 17 17 17 16 4 8 26 
CALL[ ]	/* CallFunction */";
};
width = 432;
}
);
note = brokenbar;
unicode = 166;
},
{
glyphname = section;
layers = (
{
layerId = m01;
shapes = (
{
closed = 1;
nodes = (
(59,494,o),
(87,420,o),
(116,388,q),
(21,348,o),
(21,244,qs),
(21,189,o),
(95,97,o),
(163,62,qs),
(225,30,o),
(284,-5,o),
(312,-36,o),
(312,-55,qs),
(312,-79,o),
(296,-79,qs),
(274,-79,o),
(272,-25,q),
(53,-25,l),
(61,-119,o),
(183,-235,o),
(291,-235,qs),
(407,-235,o),
(536,-130,o),
(536,-44,qs),
(536,37,o),
(478,101,q),
(531,127,o),
(575,197,o),
(575,244,qs),
(575,349,o),
(432,427,qs),
(370,458,o),
(310,493,o),
(283,524,o),
(283,543,qs),
(283,567,o),
(299,567,qs),
(321,567,o),
(323,513,q),
(542,513,l),
(534,607,o),
(412,723,o),
(304,723,qs),
(188,723,o),
(59,618,o),
(59,532,qs)
);
},
{
closed = 1;
nodes = (
(339,220,o),
(316,189,o),
(297,189,qs),
(279,189,o),
(258,220,o),
(258,244,qs),
(258,268,o),
(281,299,o),
(300,299,qs),
(319,299,o),
(339,268,o),
(339,244,qs)
);
}
);
userData = {
assembly = "NPUSHB[ ]	/* 10 values pushed */
41 1 6 1 19 1 4 7 2 76 
MPPEM[ ]	/* MeasurePixelPerEm */
PUSHB[ ]	/* 1 value pushed */
24 
LT[ ]	/* LessThan */
IF[ ]	/* If */
NPUSHB[ ]	/* 47 values pushed */
0 2 0 1 1 2 114 0 6 1 7 1 6 7 128 0 7 4 1 7 4 126 0 5 4 3 4 5 114 0 4 0 3 4 3 102 0 1 1 0 98 0 0 0 34 1 78 
ELSE[ ]	/* Else */
NPUSHB[ ]	/* 49 values pushed */
0 2 0 1 0 2 1 128 0 6 1 7 1 6 7 128 0 7 4 1 7 4 126 0 5 4 3 4 5 3 128 0 4 0 3 4 3 102 0 1 1 0 98 0 0 0 34 1 78 
EIF[ ]	/* EndIf */
NPUSHB[ ]	/* 11 values pushed */
36 47 33 18 46 33 18 33 8 8 30 
CALL[ ]	/* CallFunction */";
};
width = 595;
}
);
note = section;
unicode = 167;
},
{
glyphname = dieresis;
layers = (
{
layerId = m01;
shapes = (
{
closed = 1;
nodes = (
(132,620,o),
(182,669,o),
(182,705,qs),
(182,743,o),
(133,792,o),
(95,792,qs),
(59,792,o),
(10,742,o),
(10,705,qs),
(10,669,o),
(59,620,o),
(95,620,qs)
);
},
{
closed = 1;
nodes = (
(357,620,o),
(407,669,o),
(407,705,qs),
(407,743,o),
(358,792,o),
(320,792,qs),
(284,792,o),
(235,742,o),
(235,705,qs),
(235,669,o),
(284,620,o),
(320,620,qs)
);
}
);
userData = {
assembly = "PUSHB[ ]	/* 2 values pushed */
6 100 
WCVTP[ ]	/* WriteCVTInPixels */
NPUSHB[ ]	/* 39 values pushed */
2 1 0 1 1 0 89 2 1 0 0 1 97 5 3 4 3 1 0 1 81 12 12 0 0 12 23 12 22 18 16 0 11 0 10 36 6 8 23 
CALL[ ]	/* CallFunction */
PUSHB[ ]	/* 2 values pushed */
6 0 
WCVTP[ ]	/* WriteCVTInPixels */";
};
width = 417;
}
);
note = dieresis;
unicode = 168;
},
{
glyphname = copyright;
layers = (
{
layerId = m01;
shapes = (
{
closed = 1;
nodes = (
(30,253,o),
(120,87,o),
(282,-6,o),
(386,-6,qs),
(490,-6,o),
(651,87,o),
(741,252,o),
(741,358,qs),
(741,463,o),
(652,628,o),
(490,720,o),
(386,720,qs),
(282,720,o),
(120,628,o),
(30,463,o),
(30,358,qs)
);
},
{
closed = 1;
nodes = (
(672,269,o),
(602,133,o),
(473,59,o),
(386,59,qs),
(299,59,o),
(169,133,o),
(100,268,o),
(100,358,qs),
(100,448,o),
(169,582,o),
(298,655,o),
(386,655,qs),
(473,655,o),
(602,582,o),
(672,448,o),
(672,358,qs)
);
},
{
closed = 1;
nodes = (
(408,433,o),
(380,433,qs),
(358,433,o),
(335,395,o),
(335,357,qs),
(335,319,o),
(358,281,o),
(380,281,qs),
(408,281,o),
(418,316,q),
(602,316,l),
(590,234,o),
(472,136,o),
(390,136,qs),
(323,136,o),
(220,190,o),
(164,290,o),
(164,357,qs),
(164,424,o),
(220,524,o),
(323,578,o),
(390,578,qs),
(472,578,o),
(590,480,o),
(602,398,q),
(418,398,l)
);
}
);
userData = {
assembly = "PUSHB[ ]	/* 2 values pushed */
6 100 
WCVTP[ ]	/* WriteCVTInPixels */
MPPEM[ ]	/* MeasurePixelPerEm */
PUSHB[ ]	/* 1 value pushed */
17 
LT[ ]	/* LessThan */
IF[ ]	/* If */
NPUSHB[ ]	/* 55 values pushed */
0 4 2 8 2 4 114 0 5 7 3 3 5 114 0 0 0 2 4 0 2 105 10 1 9 0 6 7 9 6 103 0 8 0 7 5 8 7 105 0 3 1 1 3 89 0 3 3 1 98 0 1 3 1 82 
ELSE[ ]	/* Else */
NPUSHB[ ]	/* 57 values pushed */
0 4 2 8 2 4 8 128 0 5 7 3 7 5 3 128 0 0 0 2 4 0 2 105 10 1 9 0 6 7 9 6 103 0 8 0 7 5 8 7 105 0 3 1 1 3 89 0 3 3 1 98 0 1 3 1 82 
EIF[ ]	/* EndIf */
NPUSHB[ ]	/* 18 values pushed */
32 32 32 57 32 57 36 33 18 38 38 38 38 38 34 11 8 31 
CALL[ ]	/* CallFunction */
PUSHB[ ]	/* 2 values pushed */
6 0 
WCVTP[ ]	/* WriteCVTInPixels */";
};
width = 771;
}
);
note = copyright;
unicode = 169;
},
{
glyphname = ordfeminine;
layers = (
{
layerId = m01;
shapes = (
{
closed = 1;
nodes = (
(226,350,o),
(278,371,o),
(297,394,q),
(297,355,l),
(461,355,l),
(461,708,l),
(297,708,l),
(297,669,l),
(278,691,o),
(225,712,o),
(184,712,qs),
(112,712,o),
(20,616,o),
(20,530,qs),
(20,444,o),
(113,350,o),
(186,350,qs)
);
},
{
closed = 1;
nodes = (
(266,582,o),
(297,556,o),
(297,532,qs),
(297,508,o),
(266,481,o),
(243,481,qs),
(219,481,o),
(189,505,o),
(189,529,qs),
(189,554,o),
(220,582,o),
(243,582,qs)
);
}
);
userData = {
assembly = "MPPEM[ ]	/* MeasurePixelPerEm */
PUSHB[ ]	/* 1 value pushed */
10 
LT[ ]	/* LessThan */
IF[ ]	/* If */
NPUSHB[ ]	/* 10 values pushed */
8 1 5 1 13 1 2 4 2 76 
ELSE[ ]	/* Else */
MPPEM[ ]	/* MeasurePixelPerEm */
PUSHB[ ]	/* 1 value pushed */
11 
LT[ ]	/* LessThan */
IF[ ]	/* If */
NPUSHB[ ]	/* 10 values pushed */
8 1 5 0 13 1 2 4 2 76 
ELSE[ ]	/* Else */
NPUSHB[ ]	/* 10 values pushed */
8 1 5 1 13 1 2 4 2 76 
EIF[ ]	/* EndIf */
EIF[ ]	/* EndIf */
MPPEM[ ]	/* MeasurePixelPerEm */
PUSHB[ ]	/* 1 value pushed */
10 
LT[ ]	/* LessThan */
IF[ ]	/* If */
NPUSHB[ ]	/* 33 values pushed */
0 1 1 44 77 7 1 5 5 0 97 0 0 0 44 77 0 2 2 45 77 0 4 4 3 97 6 1 3 3 45 3 78 
ELSE[ ]	/* Else */
MPPEM[ ]	/* MeasurePixelPerEm */
PUSHB[ ]	/* 1 value pushed */
11 
LT[ ]	/* LessThan */
IF[ ]	/* If */
NPUSHB[ ]	/* 29 values pushed */
7 1 5 5 0 97 1 1 0 0 44 77 0 2 2 45 77 0 4 4 3 97 6 1 3 3 45 3 78 
ELSE[ ]	/* Else */
MPPEM[ ]	/* MeasurePixelPerEm */
PUSHB[ ]	/* 1 value pushed */
12 
LT[ ]	/* LessThan */
IF[ ]	/* If */
NPUSHB[ ]	/* 33 values pushed */
0 1 1 44 77 7 1 5 5 0 97 0 0 0 44 77 0 2 2 45 77 0 4 4 3 97 6 1 3 3 45 3 78 
ELSE[ ]	/* Else */
NPUSHB[ ]	/* 33 values pushed */
0 1 1 44 77 7 1 5 5 0 97 0 0 0 44 77 0 2 2 45 77 0 4 4 3 97 6 1 3 3 47 3 78 
EIF[ ]	/* EndIf */
EIF[ ]	/* EndIf */
EIF[ ]	/* EndIf */
NPUSHB[ ]	/* 20 values pushed */
17 17 0 0 17 28 17 27 23 21 0 16 0 15 17 19 36 8 9 25 
CALL[ ]	/* CallFunction */";
};
width = 481;
}
);
note = ordfeminine;
unicode = 170;
},
{
glyphname = guillemotleft;
layers = (
{
layerId = m01;
shapes = (
{
closed = 1;
nodes = (
(244,295,l),
(323,470,l),
(122,470,l),
(45,295,l),
(122,120,l),
(323,120,l)
);
},
{
closed = 1;
nodes = (
(377,120,l),
(578,120,l),
(499,295,l),
(578,470,l),
(377,470,l),
(300,295,l)
);
}
);
userData = {
assembly = "NPUSHB[ ]	/* 43 values pushed */
11 8 4 1 4 1 0 1 76 2 1 0 1 1 0 87 2 1 0 0 1 95 3 4 2 1 0 1 79 0 0 10 9 7 6 0 5 0 5 18 5 8 23 
CALL[ ]	/* CallFunction */";
};
width = 618;
}
);
note = guillemotleft;
unicode = 171;
},
{
glyphname = logicalnot;
layers = (
{
layerId = m01;
shapes = (
{
closed = 1;
nodes = (
(55,282,l),
(491,282,l),
(491,155,l),
(713,155,l),
(713,448,l),
(55,448,l)
);
}
);
userData = {
assembly = "MPPEM[ ]	/* MeasurePixelPerEm */
PUSHB[ ]	/* 1 value pushed */
10 
LT[ ]	/* LessThan */
IF[ ]	/* If */
NPUSHB[ ]	/* 24 values pushed */
0 0 1 1 0 113 3 1 2 1 1 2 87 3 1 2 2 1 95 0 1 2 1 79 
ELSE[ ]	/* Else */
NPUSHB[ ]	/* 23 values pushed */
0 0 1 0 134 3 1 2 1 1 2 87 3 1 2 2 1 95 0 1 2 1 79 
EIF[ ]	/* EndIf */
NPUSHB[ ]	/* 11 values pushed */
0 0 0 5 0 5 17 17 4 8 24 
CALL[ ]	/* CallFunction */";
};
width = 778;
}
);
note = logicalnot;
unicode = 172;
},
{
glyphname = uni00AD;
layers = (
{
layerId = m01;
shapes = (
{
closed = 1;
nodes = (
(20,250,l),
(486,250,l),
(486,433,l),
(20,433,l)
);
}
);
userData = {
assembly = "NPUSHB[ ]	/* 28 values pushed */
2 1 1 0 0 1 87 2 1 1 1 0 95 0 0 1 0 79 0 0 0 3 0 3 17 3 8 23 
CALL[ ]	/* CallFunction */";
};
width = 576;
}
);
note = uni00AD;
unicode = 173;
},
{
glyphname = registered;
layers = (
{
layerId = m01;
shapes = (
{
closed = 1;
nodes = (
(327,656,o),
(412,569,o),
(412,498,qs),
(412,428,o),
(327,340,o),
(256,340,qs),
(185,340,o),
(99,428,o),
(99,498,qs),
(99,570,o),
(184,656,o),
(256,656,qs)
);
},
{
closed = 1;
nodes = (
(321,275,o),
(424,332,o),
(481,434,o),
(481,498,qs),
(481,563,o),
(424,664,o),
(321,721,o),
(256,721,qs),
(191,721,o),
(88,664,o),
(30,563,o),
(30,498,qs),
(30,434,o),
(88,332,o),
(191,275,o),
(256,275,qs)
);
},
{
closed = 1;
nodes = (
(357,569,o),
(315,606,o),
(280,606,qs),
(160,606,l),
(160,396,l),
(240,396,l),
(240,469,l),
(245,469,l),
(282,396,l),
(368,396,l),
(321,478,l),
(338,487,o),
(357,518,o),
(357,538,qs)
);
},
{
closed = 1;
nodes = (
(261,543,ls),
(274,543,o),
(274,530,qs),
(274,517,o),
(261,517,qs),
(237,517,l),
(237,543,l)
);
}
);
userData = {
assembly = "PUSHB[ ]	/* 2 values pushed */
6 100 
WCVTP[ ]	/* WriteCVTInPixels */
PUSHB[ ]	/* 7 values pushed */
33 30 2 4 7 1 76 
MPPEM[ ]	/* MeasurePixelPerEm */
PUSHB[ ]	/* 1 value pushed */
11 
LT[ ]	/* LessThan */
IF[ ]	/* If */
NPUSHB[ ]	/* 49 values pushed */
0 8 6 7 1 8 114 0 7 4 6 7 4 126 0 2 9 1 1 6 2 1 105 0 6 5 1 4 0 6 4 103 0 0 3 3 0 89 0 0 0 3 98 10 1 3 0 3 82 
ELSE[ ]	/* Else */
NPUSHB[ ]	/* 50 values pushed */
0 8 6 7 6 8 7 128 0 7 4 6 7 4 126 0 2 9 1 1 6 2 1 105 0 6 5 1 4 0 6 4 103 0 0 3 3 0 89 0 0 0 3 98 10 1 3 0 3 82 
EIF[ ]	/* EndIf */
NPUSHB[ ]	/* 28 values pushed */
12 12 0 0 48 46 44 42 39 37 36 35 32 31 12 27 12 26 20 18 0 11 0 10 36 11 8 23 
CALL[ ]	/* CallFunction */
PUSHB[ ]	/* 2 values pushed */
6 0 
WCVTP[ ]	/* WriteCVTInPixels */";
};
width = 511;
}
);
note = registered;
unicode = 174;
},
{
glyphname = macron;
layers = (
{
layerId = m01;
shapes = (
{
closed = 1;
nodes = (
(10,622,l),
(441,622,l),
(441,769,l),
(10,769,l)
);
}
);
userData = {
assembly = "PUSHB[ ]	/* 2 values pushed */
6 100 
WCVTP[ ]	/* WriteCVTInPixels */
NPUSHB[ ]	/* 28 values pushed */
2 1 1 0 0 1 87 2 1 1 1 0 95 0 0 1 0 79 0 0 0 3 0 3 17 3 8 23 
CALL[ ]	/* CallFunction */
PUSHB[ ]	/* 2 values pushed */
6 0 
WCVTP[ ]	/* WriteCVTInPixels */";
};
width = 451;
}
);
note = macron;
unicode = 175;
},
{
glyphname = degree;
layers = (
{
layerId = m01;
shapes = (
{
closed = 1;
nodes = (
(23,477,o),
(81,393,o),
(186,347,o),
(253,347,qs),
(354,347,o),
(473,447,o),
(473,533,qs),
(473,618,o),
(351,715,o),
(249,715,qs),
(146,715,o),
(23,618,o),
(23,533,qs)
);
},
{
closed = 1;
nodes = (
(304,497,o),
(274,464,o),
(253,464,qs),
(230,464,o),
(192,497,o),
(192,531,qs),
(192,566,o),
(227,600,o),
(250,600,qs),
(271,600,o),
(304,566,o),
(304,531,qs)
);
}
);
userData = {
assembly = "PUSHB[ ]	/* 2 values pushed */
6 100 
WCVTP[ ]	/* WriteCVTInPixels */
NPUSHB[ ]	/* 31 values pushed */
0 0 0 2 3 0 2 105 0 3 1 1 3 89 0 3 3 1 97 0 1 3 1 81 36 37 36 33 4 8 26 
CALL[ ]	/* CallFunction */
PUSHB[ ]	/* 2 values pushed */
6 0 
WCVTP[ ]	/* WriteCVTInPixels */";
};
width = 496;
}
);
note = degree;
unicode = 176;
},
{
glyphname = plusminus;
layers = (
{
layerId = m01;
shapes = (
{
closed = 1;
nodes = (
(169,630,l),
(169,545,l),
(20,545,l),
(20,344,l),
(169,344,l),
(169,297,l),
(20,297,l),
(20,96,l),
(531,96,l),
(531,297,l),
(382,297,l),
(382,344,l),
(531,344,l),
(531,545,l),
(382,545,l),
(382,630,l)
);
}
);
userData = {
assembly = "MPPEM[ ]	/* MeasurePixelPerEm */
PUSHB[ ]	/* 1 value pushed */
26 
LT[ ]	/* LessThan */
IF[ ]	/* If */
NPUSHB[ ]	/* 26 values pushed */
0 7 0 7 133 4 1 2 0 3 2 3 100 5 1 1 1 0 95 6 1 0 0 31 1 78 
ELSE[ ]	/* Else */
NPUSHB[ ]	/* 33 values pushed */
0 7 0 7 133 6 1 0 5 1 1 2 0 1 103 4 1 2 3 3 2 87 4 1 2 2 3 96 0 3 2 3 80 
EIF[ ]	/* EndIf */
NPUSHB[ ]	/* 11 values pushed */
17 17 17 17 17 17 17 16 8 8 30 
CALL[ ]	/* CallFunction */";
};
width = 551;
}
);
note = plusminus;
unicode = 177;
},
{
glyphname = uni00B2;
layers = (
{
layerId = m01;
shapes = (
{
closed = 1;
nodes = (
(204,603,o),
(221,603,qs),
(230,603,o),
(230,595,qs),
(230,568,o),
(183,544,qs),
(48,474,l),
(48,352,l),
(393,352,l),
(393,477,l),
(223,477,l),
(263,492,ls),
(338,520,o),
(403,573,o),
(403,609,qs),
(403,652,o),
(325,717,o),
(243,717,qs),
(153,717,o),
(45,635,o),
(40,569,q),
(203,569,l)
);
}
);
userData = {
assembly = "NPUSHB[ ]	/* 10 values pushed */
17 1 4 3 14 1 2 1 2 76 
MPPEM[ ]	/* MeasurePixelPerEm */
PUSHB[ ]	/* 1 value pushed */
37 
LT[ ]	/* LessThan */
IF[ ]	/* If */
NPUSHB[ ]	/* 29 values pushed */
5 1 4 3 1 3 4 114 0 3 3 0 97 0 0 0 44 77 0 1 1 2 95 0 2 2 45 2 78 
ELSE[ ]	/* Else */
NPUSHB[ ]	/* 30 values pushed */
5 1 4 3 1 3 4 1 128 0 3 3 0 97 0 0 0 44 77 0 1 1 2 95 0 2 2 45 2 78 
EIF[ ]	/* EndIf */
NPUSHB[ ]	/* 13 values pushed */
0 0 0 21 0 21 22 17 22 34 6 9 26 
CALL[ ]	/* CallFunction */";
};
width = 422;
}
);
note = uni00B2;
unicode = 178;
},
{
glyphname = uni00B3;
layers = (
{
layerId = m01;
shapes = (
{
closed = 1;
nodes = (
(176,592,o),
(183,605,o),
(190,605,qs),
(202,605,o),
(202,588,qs),
(202,574,o),
(190,562,o),
(176,562,qs),
(155,562,l),
(155,508,l),
(185,508,ls),
(199,508,o),
(212,497,o),
(212,483,qs),
(212,462,o),
(199,462,qs),
(192,462,o),
(185,471,o),
(185,482,q),
(13,482,l),
(19,417,o),
(108,349,o),
(213,349,qs),
(293,349,o),
(385,402,o),
(385,452,qs),
(385,484,o),
(346,523,o),
(301,533,q),
(301,537,l),
(376,549,o),
(376,611,qs),
(376,659,o),
(288,717,o),
(209,717,qs),
(109,717,o),
(20,636,o),
(20,577,q),
(176,577,l)
);
}
);
userData = {
assembly = "PUSHB[ ]	/* 6 values pushed */
8 1 4 5 1 76 
MPPEM[ ]	/* MeasurePixelPerEm */
PUSHB[ ]	/* 1 value pushed */
45 
LT[ ]	/* LessThan */
IF[ ]	/* If */
NPUSHB[ ]	/* 44 values pushed */
8 1 7 6 5 6 7 114 0 2 4 3 3 2 114 0 5 0 4 2 5 4 105 0 6 6 0 97 0 0 0 44 77 0 3 3 1 98 0 1 1 47 1 78 
ELSE[ ]	/* Else */
NPUSHB[ ]	/* 45 values pushed */
8 1 7 6 5 6 7 5 128 0 2 4 3 3 2 114 0 5 0 4 2 5 4 105 0 6 6 0 97 0 0 0 44 77 0 3 3 1 98 0 1 1 47 1 78 
EIF[ ]	/* EndIf */
NPUSHB[ ]	/* 16 values pushed */
0 0 0 38 0 38 19 33 35 34 18 42 34 9 9 29 
CALL[ ]	/* CallFunction */";
};
width = 403;
}
);
note = uni00B3;
unicode = 179;
},
{
glyphname = acute;
layers = (
{
layerId = m01;
shapes = (
{
closed = 1;
nodes = (
(10,750,l),
(10,602,l),
(269,696,l),
(269,860,l)
);
}
);
userData = {
assembly = "PUSHB[ ]	/* 4 values pushed */
3 1 1 50 
CALL[ ]	/* CallFunction */";
};
width = 279;
}
);
note = acute;
unicode = 180;
},
